<svg width="408" height="403" viewBox="0 0 408 403" fill="none" xmlns="http://www.w3.org/2000/svg">
<path d="M198.102 67.2823C205.958 67.2823 212.327 60.7607 212.327 52.716C212.327 44.6713 205.958 38.1497 198.102 38.1497C190.246 38.1497 183.878 44.6713 183.878 52.716C183.878 60.7607 190.246 67.2823 198.102 67.2823Z" fill="#332D52"/>
<path d="M199.787 135.194C207.265 129.336 208.672 118.404 202.93 110.776C197.188 103.149 186.47 101.713 178.992 107.571L135.638 141.529C128.16 147.387 126.753 158.319 132.495 165.947C138.237 173.574 148.954 175.01 156.432 169.152L199.787 135.194Z" fill="#FAEEDE"/>
<path d="M146.061 172.714C156.216 172.714 164.449 164.329 164.449 153.986C164.449 143.643 156.216 135.258 146.061 135.258C135.906 135.258 127.673 143.643 127.673 153.986C127.673 164.329 135.906 172.714 146.061 172.714Z" fill="#F2E6D7"/>
<path d="M109.48 85.7847L109.475 85.7872C102.589 89.4892 99.9484 98.1846 103.578 105.209L131.839 159.909C135.468 166.933 143.993 169.627 150.879 165.925L150.884 165.922C157.77 162.22 160.411 153.525 156.781 146.5L128.52 91.8004C124.891 84.776 116.366 82.0827 109.48 85.7847Z" fill="#EF948C"/>
<path d="M109.455 109.843C116.531 112.975 124.756 109.664 127.826 102.448C130.896 95.232 127.649 86.8429 120.573 83.7106L109.37 78.751C102.294 75.6187 94.069 78.9294 90.9988 86.1456C87.9287 93.3617 91.1758 101.751 98.2515 104.883L109.455 109.843Z" fill="#EF948C"/>
<path d="M114.074 92.0626C116.633 93.1954 119.608 91.9977 120.719 89.3874C121.829 86.7772 120.655 83.7428 118.096 82.61L92.1539 71.1259C89.5949 69.9931 86.6202 71.1908 85.5096 73.801C84.3991 76.4113 85.5733 79.4456 88.1322 80.5784L114.074 92.0626Z" fill="#EF948C"/>
<path d="M115.9 91.1374C117.443 93.5077 120.578 94.1531 122.902 92.5788C125.225 91.0046 125.858 87.8069 124.315 85.4366L115.612 72.0705C114.069 69.7002 110.934 69.0548 108.61 70.6291C106.287 72.2033 105.654 75.401 107.197 77.7714L115.9 91.1374Z" fill="#EA8681"/>
<path d="M116.918 101.964C122.092 101.964 126.286 97.4609 126.286 91.9062C126.286 86.3515 122.092 81.8485 116.918 81.8485C111.745 81.8485 107.551 86.3515 107.551 91.9062C107.551 97.4609 111.745 101.964 116.918 101.964Z" fill="#EA8681"/>
<path d="M199.787 135.194C207.265 129.336 208.672 118.404 202.93 110.776C197.188 103.149 186.47 101.713 178.992 107.571L135.638 141.529C128.16 147.387 126.753 158.319 132.495 165.947C138.237 173.574 148.954 175.01 156.432 169.152L199.787 135.194Z" fill="#F2E6D7"/>
<path d="M146.061 172.714C156.216 172.714 164.449 164.329 164.449 153.986C164.449 143.643 156.216 135.258 146.061 135.258C135.906 135.258 127.673 143.643 127.673 153.986C127.673 164.329 135.906 172.714 146.061 172.714Z" fill="#FAEEDE"/>
<path d="M109.48 85.7847L109.475 85.7872C102.589 89.4892 99.9484 98.1846 103.578 105.209L131.839 159.909C135.468 166.933 143.993 169.627 150.879 165.925L150.884 165.922C157.77 162.22 160.411 153.525 156.781 146.5L128.52 91.8004C124.891 84.776 116.366 82.0827 109.48 85.7847Z" fill="#EF948C"/>
<path d="M109.455 109.843C116.531 112.975 124.756 109.664 127.826 102.448C130.896 95.232 127.649 86.8429 120.573 83.7106L109.37 78.751C102.294 75.6187 94.069 78.9294 90.9988 86.1456C87.9287 93.3617 91.1758 101.751 98.2515 104.883L109.455 109.843Z" fill="#EF948C"/>
<path d="M90.6695 85.8358C91.1701 84.6549 91.821 83.5474 92.6052 82.5422C91.6068 85.9085 91.8515 89.5345 93.2926 92.7273C94.7338 95.9201 97.2703 98.4559 100.418 99.8502L101.781 100.454L107.091 102.82L110.962 110.357L134.02 155.277C135.111 157.403 136.7 159.217 138.644 160.556C140.588 161.894 142.826 162.716 145.156 162.946C147.486 163.175 149.835 162.806 151.992 161.872C154.149 160.938 156.045 159.467 157.51 157.593C156.696 160.339 155.107 162.774 152.942 164.59C150.778 166.406 148.136 167.521 145.354 167.794C142.571 168.066 139.772 167.483 137.312 166.12C134.852 164.756 132.843 162.673 131.539 160.135L104.615 107.678L97.9364 104.703C96.2505 103.956 94.7247 102.876 93.4464 101.523C92.1682 100.17 91.1627 98.5708 90.4876 96.818C89.8124 95.0652 89.481 93.1929 89.5122 91.3083C89.5434 89.4237 89.9367 87.564 90.6695 85.8358V85.8358Z" fill="#EA8681"/>
<path d="M114.074 92.0626C116.633 93.1954 119.608 91.9977 120.719 89.3874C121.829 86.7772 120.655 83.7428 118.096 82.61L92.1539 71.1259C89.5949 69.9931 86.6202 71.1908 85.5096 73.801C84.3991 76.4113 85.5733 79.4456 88.1322 80.5784L114.074 92.0626Z" fill="#EF948C"/>
<path d="M115.9 91.1374C117.443 93.5077 120.578 94.1531 122.902 92.5788C125.225 91.0046 125.858 87.8069 124.315 85.4366L115.612 72.0705C114.069 69.7002 110.934 69.0548 108.61 70.6291C106.287 72.2033 105.654 75.401 107.197 77.7713L115.9 91.1374Z" fill="#EF948C"/>
<path d="M117.078 101.822C122.574 101.822 127.03 97.2771 127.03 91.6704C127.03 86.0638 122.574 81.5188 117.078 81.5188C111.581 81.5188 107.126 86.0638 107.126 91.6704C107.126 97.2771 111.581 101.822 117.078 101.822Z" fill="#EF948C"/>
<path d="M199.143 153.293C213.705 153.293 225.51 141.026 225.51 125.894C225.51 110.762 213.705 98.4957 199.143 98.4957C184.581 98.4957 172.776 110.762 172.776 125.894C172.776 141.026 184.581 153.293 199.143 153.293Z" fill="#F2E6D7"/>
<path d="M188.703 134.703L190.638 221.662C190.988 237.436 203.809 249.933 219.273 249.575L243.955 249.004C259.419 248.646 271.67 235.568 271.319 219.795L269.385 132.835C269.034 117.061 256.213 104.564 240.749 104.922L216.068 105.493C200.604 105.851 188.352 118.929 188.703 134.703Z" fill="#FAEEDE"/>
<path d="M177.369 124.825C177.211 116.742 180.207 108.926 185.698 103.097C191.189 97.2667 198.725 93.9007 206.65 93.7391L251.616 92.8217C259.54 92.6601 267.203 95.716 272.918 101.317C278.633 106.918 281.933 114.606 282.092 122.689C282.221 129.292 281.074 135.857 278.716 142.008C276.359 148.16 272.836 153.777 268.35 158.54C263.864 163.303 258.503 167.117 252.571 169.766C246.64 172.415 240.255 173.847 233.782 173.979L227.646 174.104C214.573 174.369 201.931 169.327 192.503 160.085C183.074 150.844 177.631 138.161 177.369 124.825V124.825Z" fill="#FAEEDE"/>
<path d="M232.925 173.408H232.973C246.194 173.107 258.755 167.573 267.893 158.02C277.031 148.468 281.998 135.68 281.702 122.469C281.52 114.46 278.162 106.851 272.366 101.316C266.571 95.7809 258.812 92.7732 250.797 92.9544L205.313 93.9865C203.235 94.0319 201.167 94.2927 199.143 94.7646L242.804 93.7703H243.507C251.4 93.7738 258.977 96.8614 264.622 102.373C270.266 107.885 273.53 115.384 273.715 123.268C273.982 135.105 270.025 146.65 262.551 155.837C255.077 165.023 244.575 171.252 232.925 173.408V173.408Z" fill="#FFF7EE"/>
<path d="M213.024 71.3377L213.603 97.1942C213.684 101.066 215.262 104.751 217.997 107.459C220.732 110.166 224.406 111.68 228.231 111.675H228.563C230.485 111.63 232.379 111.203 234.137 110.417C235.895 109.631 237.483 108.502 238.811 107.094C240.138 105.686 241.178 104.027 241.871 102.212C242.565 100.397 242.899 98.4614 242.853 96.5158L242.66 87.6581L242.274 70.6647C242.189 66.7941 240.61 63.1112 237.876 60.4047C235.142 57.6982 231.47 56.1832 227.646 56.1842H227.309C223.431 56.2781 219.748 57.9267 217.07 60.768C214.391 63.6093 212.936 67.4108 213.024 71.3377V71.3377Z" fill="#EF948C"/>
<path d="M120.534 227.351L120.585 229.635C120.858 241.905 130.83 251.626 142.859 251.348L250.178 248.864C262.207 248.585 271.737 238.413 271.464 226.143L271.413 223.859C271.14 211.589 261.168 201.868 249.139 202.146L141.82 204.63C129.791 204.909 120.261 215.081 120.534 227.351Z" fill="#332D52"/>
<path d="M225.51 227.213V366.238H271.306V227.213C271.306 221.038 268.894 215.115 264.599 210.748C260.305 206.381 254.481 203.928 248.408 203.928C242.335 203.928 236.511 206.381 232.217 210.748C227.923 215.115 225.51 221.038 225.51 227.213V227.213Z" fill="#666DA2"/>
<path d="M225.51 227.213V366.238H237.419V248.369C237.42 244.328 238.456 240.357 240.424 236.846C242.392 233.334 245.224 230.405 248.643 228.344C252.062 226.283 255.949 225.162 259.922 225.092C263.896 225.021 267.819 226.003 271.306 227.941V227.213C271.306 221.038 268.894 215.115 264.599 210.748C260.305 206.381 254.481 203.928 248.408 203.928C242.335 203.928 236.511 206.381 232.217 210.748C227.923 215.115 225.51 221.038 225.51 227.213Z" fill="#555A8B"/>
<path d="M225.51 346.816V366.238H271.306V353.908L225.51 346.816Z" fill="#141334"/>
<path d="M74.2449 351.602L115.227 368.318L119.856 356.11L164.99 237.134C166.077 234.268 166.598 231.211 166.524 228.139C166.45 225.067 165.782 222.041 164.558 219.231C163.334 216.422 161.579 213.886 159.392 211.767C157.205 209.648 154.629 207.989 151.812 206.883C148.994 205.777 145.99 205.247 142.972 205.322C139.953 205.397 136.978 206.077 134.217 207.322C131.457 208.567 128.964 210.354 126.882 212.579C124.8 214.804 123.169 217.425 122.082 220.292L79.7907 331.834L74.261 346.39L74.2449 351.602Z" fill="#332D52"/>
<path d="M101.885 386.573L69.8287 373.949L76.6086 356.036L108.665 368.66L101.885 386.573Z" fill="#EA8681"/>
<path d="M265.061 388.434H231.755V370.399H265.061V388.434Z" fill="#EF948C"/>
<path d="M213.025 71.3849L213.594 97.2663C213.622 98.6241 213.831 99.9715 214.217 101.27H215.271C220.463 101.273 225.586 100.05 230.248 97.696C234.909 95.3417 238.985 91.9182 242.163 87.6885L241.784 70.6786C241.7 66.8043 240.146 63.1179 237.457 60.4087C234.767 57.6996 231.155 56.1832 227.394 56.1842H227.077C225.186 56.2307 223.321 56.6609 221.591 57.4501C219.861 58.2394 218.298 59.3723 216.993 60.784C215.688 62.1957 214.666 63.8585 213.985 65.6775C213.304 67.4965 212.978 69.4359 213.025 71.3849V71.3849Z" fill="#EA8681"/>
<path d="M187.347 58.9559C187.347 68.0016 190.726 76.7036 196.79 83.2737C202.854 89.8438 211.142 93.7831 219.95 94.2819C220.565 94.3147 221.179 94.3312 221.805 94.3312C226.371 94.3895 230.903 93.5176 235.139 91.7661C239.374 90.0146 243.228 87.4184 246.477 84.1279C249.727 80.8375 252.306 76.9184 254.067 72.5978C255.828 68.2773 256.735 63.6413 256.735 58.9587C256.735 54.2761 255.828 49.6401 254.067 45.3196C252.306 40.999 249.727 37.0799 246.477 33.7894C243.228 30.499 239.374 27.9028 235.139 26.1513C230.903 24.3998 226.371 23.5279 221.805 23.5862C221.179 23.5862 220.565 23.5862 219.95 23.6355C211.142 24.133 202.854 28.071 196.79 34.6403C190.727 41.2095 187.347 49.9109 187.347 58.9559V58.9559Z" fill="#EF948C"/>
<path d="M208.163 68.2137C208.165 69.2778 208.36 70.3311 208.739 71.3134C209.118 72.2956 209.672 73.1875 210.371 73.9378C210.543 74.1234 210.725 74.2977 210.892 74.4607C212.236 75.6562 213.925 76.3066 215.666 76.2994H215.973C217.854 76.2906 219.664 75.5197 221.045 74.1391C222.425 72.7585 223.276 70.8688 223.429 68.8435C223.429 68.6185 223.429 68.3936 223.429 68.1687C223.43 67.96 223.393 67.7531 223.32 67.56C223.247 67.3669 223.138 67.1915 223.002 67.0441C222.724 66.7492 222.35 66.5854 221.96 66.5887L209.559 66.6224C209.18 66.6385 208.822 66.814 208.561 67.1113C208.3 67.4086 208.158 67.8043 208.163 68.2137V68.2137Z" fill="#962F4A"/>
<path d="M216.49 75.064C216.491 75.4788 216.526 75.8925 216.594 76.2995H216.632C218.348 76.2933 219.999 75.5312 221.258 74.1643C222.517 72.7973 223.292 70.9255 223.429 68.92C222.937 68.7513 222.427 68.6669 221.915 68.6696C221.2 68.6718 220.493 68.8389 219.834 69.1614C219.175 69.484 218.577 69.9556 218.073 70.5494C217.569 71.1431 217.17 71.8475 216.898 72.6221C216.627 73.3967 216.488 74.2265 216.49 75.064V75.064Z" fill="#E1617F"/>
<path d="M210.245 66.6157C210.308 68.1493 212.622 69.3686 215.46 69.3631C218.297 69.3577 220.6 68.1222 220.653 66.5886L210.245 66.6157Z" fill="white"/>
<path d="M187.347 58.9559C187.347 68.0149 190.788 76.7297 196.962 83.3095C203.136 89.8894 211.575 93.8344 220.544 94.3339C221.513 94.279 222.476 94.1912 223.429 94.054C215.018 92.8894 207.311 88.693 201.731 82.2408C196.152 75.7886 193.078 67.517 193.078 58.9559C193.078 50.3948 196.152 42.1233 201.731 35.6711C207.311 29.2189 215.018 25.0225 223.429 23.8579C222.476 23.7262 221.513 23.6329 220.544 23.5835C211.576 24.0817 203.137 28.0255 196.963 34.6044C190.788 41.1834 187.347 49.8975 187.347 58.9559V58.9559Z" fill="#EA8681"/>
<path d="M250.493 121.851V122.211C250.835 133.667 258.535 142.748 267.937 142.888H268.543C278.324 142.636 286.09 132.797 285.873 120.921C285.765 114.344 284.357 109.025 280.458 105.183C278.126 103.049 275.354 101.445 272.334 100.481C269.868 99.7557 267.253 99.689 264.753 100.287C256.499 102.265 250.32 111.244 250.493 121.851Z" fill="#FAEEDE"/>
<path d="M249.802 121.218V121.591C250.103 130.041 254.247 137.266 260.128 140.807C257.061 136.673 255.342 131.687 255.209 126.533C255.209 126.406 255.209 126.285 255.209 126.159C254.974 115.146 261.353 105.845 269.967 103.847C271.01 103.598 272.077 103.461 273.149 103.44C274.752 103.408 276.35 103.625 277.888 104.083C279.23 104.484 280.516 105.056 281.714 105.785C279.418 102.641 276.184 100.313 272.482 99.1416C269.907 98.3695 267.177 98.2881 264.561 98.9055C255.941 100.92 249.562 110.188 249.802 121.218Z" fill="#F2E6D7"/>
<path d="M288.15 115.128C284.176 106.406 274.023 102.623 265.473 106.677C256.923 110.73 253.214 121.087 257.188 129.808L280.229 180.37C284.203 189.092 294.355 192.875 302.905 188.822C311.455 184.768 315.165 174.412 311.19 165.69L288.15 115.128Z" fill="#FAEEDE"/>
<path d="M294.551 191.442C304.706 191.442 312.939 183.058 312.939 172.714C312.939 162.371 304.706 153.986 294.551 153.986C284.396 153.986 276.163 162.371 276.163 172.714C276.163 183.058 284.396 191.442 294.551 191.442Z" fill="#F2E6D7"/>
<path d="M288.15 115.128C284.176 106.406 274.023 102.623 265.473 106.677C256.923 110.73 253.214 121.087 257.188 129.808L280.229 180.37C284.203 189.092 294.355 192.875 302.905 188.822C311.455 184.768 315.165 174.412 311.19 165.69L288.15 115.128Z" fill="#FAEEDE"/>
<path d="M256.041 116.532C257.7 113.877 260.033 111.724 262.796 110.299C265.558 108.874 268.649 108.23 271.742 108.434C274.835 108.638 277.817 109.683 280.374 111.459C282.932 113.234 284.97 115.676 286.276 118.526L309.567 169.341C311.455 173.449 311.696 178.141 310.237 182.425C311.991 179.621 312.928 176.371 312.939 173.05C312.936 170.507 312.383 167.994 311.318 165.692L288.027 114.877C286.58 111.712 284.233 109.058 281.288 107.256C278.343 105.453 274.933 104.584 271.497 104.761C268.061 104.938 264.756 106.152 262.006 108.247C259.255 110.343 257.186 113.224 256.062 116.521L256.041 116.532Z" fill="#FFF7EE"/>
<path d="M294.551 191.442C304.706 191.442 312.939 183.058 312.939 172.714C312.939 162.371 304.706 153.986 294.551 153.986C284.396 153.986 276.163 162.371 276.163 172.714C276.163 183.058 284.396 191.442 294.551 191.442Z" fill="#F2E6D7"/>
<path d="M195.993 50.6351H246.701C255.692 50.6351 262.98 43.0267 262.98 33.6411C262.98 24.2556 255.692 16.6472 246.701 16.6472H195.993C187.002 16.6472 179.714 24.2556 179.714 33.6411C179.714 43.0267 187.002 50.6351 195.993 50.6351Z" fill="#332D52"/>
<path d="M253.959 67.2823C262.007 67.2823 268.531 60.7607 268.531 52.716C268.531 44.6713 262.007 38.1497 253.959 38.1497C245.912 38.1497 239.388 44.6713 239.388 52.716C239.388 60.7607 245.912 67.2823 253.959 67.2823Z" fill="#332D52"/>
<path d="M256.735 67.2823C263.249 67.2823 268.531 61.8476 268.531 55.1437C268.531 48.4398 263.249 43.0052 256.735 43.0052C250.22 43.0052 244.939 48.4398 244.939 55.1437C244.939 61.8476 250.22 67.2823 256.735 67.2823Z" fill="#49466B"/>
<path d="M257.082 70.7504C263.405 70.7504 268.531 65.6264 268.531 59.3055C268.531 52.9847 263.405 47.8606 257.082 47.8606C250.759 47.8606 245.633 52.9847 245.633 59.3055C245.633 65.6264 250.759 70.7504 257.082 70.7504Z" fill="#EF948C"/>
<path d="M255.347 62.6362V55.2666C255.347 55.0825 255.396 54.901 255.489 54.7372C255.581 54.5733 255.715 54.4317 255.88 54.3239C256.045 54.2161 256.235 54.1452 256.436 54.117C256.637 54.0888 256.842 54.1042 257.035 54.1618C258.157 54.4875 259.135 55.1277 259.83 55.99C260.524 56.8524 260.898 57.8923 260.898 58.9597C260.898 60.0272 260.524 61.0671 259.83 61.9294C259.135 62.7917 258.157 63.4319 257.035 63.7577C256.841 63.8145 256.634 63.8287 256.433 63.7991C256.231 63.7695 256.04 63.697 255.875 63.5876C255.711 63.4781 255.577 63.3349 255.485 63.1695C255.393 63.0041 255.346 62.8214 255.347 62.6362V62.6362Z" fill="#EA8681"/>
<path d="M198.102 51.3287C210.173 51.3287 219.959 41.3912 219.959 29.1325C219.959 16.8739 210.173 6.93631 198.102 6.93631C186.031 6.93631 176.245 16.8739 176.245 29.1325C176.245 41.3912 186.031 51.3287 198.102 51.3287Z" fill="#332D52"/>
<path d="M179.02 28.7634C179.018 31.4611 179.537 34.1287 180.542 36.5901C181.548 39.0515 183.017 41.2508 184.853 43.0428C186.689 44.8348 188.85 46.1788 191.194 46.9861C193.537 47.7935 196.01 48.0458 198.449 47.7264C194.228 47.1743 190.339 44.9415 187.517 41.4508C184.695 37.9601 183.136 33.454 183.136 28.7857C183.136 24.1175 184.695 19.6113 187.517 16.1206C190.339 12.6299 194.228 10.3971 198.449 9.84503C196.01 9.52565 193.537 9.77796 191.194 10.5853C188.85 11.3926 186.689 12.7367 184.853 14.5287C183.017 16.3207 181.548 18.5199 180.542 20.9813C179.537 23.4427 179.018 26.1103 179.02 28.808V28.7634Z" fill="#49466B"/>
<path d="M215.344 30.6622C223.644 30.6622 230.373 23.7983 230.373 15.3311C230.373 6.86398 223.644 0 215.344 0C207.043 0 200.314 6.86398 200.314 15.3311C200.314 23.7983 207.043 30.6622 215.344 30.6622Z" fill="#332D52"/>
<path d="M198.641 56.1069C198.679 57.1777 199.123 58.1916 199.879 58.9354C200.635 59.6792 201.645 60.0948 202.695 60.0948C203.745 60.0948 204.755 59.6792 205.511 58.9354C206.267 58.1916 206.711 57.1777 206.749 56.1069C206.75 55.7835 206.713 55.4613 206.637 55.1473C206.426 56.0522 205.923 56.8582 205.207 57.4349C204.492 58.0116 203.607 58.3253 202.695 58.3253C201.783 58.3253 200.898 58.0116 200.183 57.4349C199.467 56.8582 198.964 56.0522 198.753 55.1473C198.677 55.4613 198.64 55.7835 198.641 56.1069V56.1069Z" fill="#332D52"/>
<path d="M220.913 56.1069C220.913 57.2044 221.34 58.2569 222.101 59.0329C222.862 59.809 223.894 60.245 224.97 60.245C226.046 60.245 227.078 59.809 227.838 59.0329C228.599 58.2569 229.027 57.2044 229.027 56.1069C229.028 55.7835 228.99 55.4613 228.914 55.1473C228.701 56.051 228.197 56.8552 227.481 57.4306C226.765 58.0059 225.881 58.3187 224.97 58.3187C224.059 58.3187 223.174 58.0059 222.458 57.4306C221.743 56.8552 221.238 56.051 221.025 55.1473C220.949 55.4613 220.912 55.7835 220.913 56.1069V56.1069Z" fill="#332D52"/>
<path d="M225.766 397.23H269.423C269.423 391.324 267.123 385.661 263.03 381.485C258.936 377.309 253.384 374.964 247.595 374.964C241.805 374.964 236.253 377.309 232.16 381.485C228.066 385.661 225.766 391.324 225.766 397.23Z" fill="#332D52"/>
<path d="M225.51 397.451H235.644C235.647 392.618 237.147 387.907 239.935 383.982C242.723 380.057 246.657 377.115 251.184 375.571C248.033 375.028 244.804 375.186 241.721 376.035C238.637 376.884 235.774 378.403 233.33 380.485C230.886 382.568 228.92 385.165 227.57 388.095C226.219 391.025 225.516 394.218 225.51 397.451V397.451Z" fill="#49466B"/>
<path d="M219.959 393.298C219.961 393.722 220.004 394.144 220.087 394.559C220.128 394.761 220.18 394.961 220.242 395.157C220.302 395.352 220.374 395.543 220.456 395.729C220.69 396.286 221.007 396.806 221.396 397.27C221.524 397.424 221.658 397.567 221.802 397.71C221.944 397.851 222.093 397.983 222.25 398.107C223.376 399.029 224.791 399.533 226.251 399.532H272.803C274.041 399.534 275.231 399.057 276.118 398.2C277.005 397.344 277.519 396.178 277.55 394.951C277.58 393.724 277.125 392.534 276.282 391.635C275.439 390.736 274.275 390.2 273.038 390.142L238.14 387.817L226.555 387.055C225.513 387.002 224.473 387.209 223.532 387.658C223.259 387.791 222.995 387.941 222.742 388.108C222.495 388.272 222.258 388.448 222.031 388.638C221.807 388.839 221.598 389.057 221.407 389.289C221.278 389.443 221.156 389.602 221.043 389.766C220.64 390.357 220.343 391.013 220.167 391.704C220.113 391.903 220.071 392.105 220.039 392.308C219.986 392.636 219.96 392.967 219.959 393.298Z" fill="#332D52"/>
<path d="M219.959 393.293C219.961 393.717 220.003 394.139 220.085 394.555C220.123 394.757 220.173 394.958 220.237 395.154C220.293 395.349 220.363 395.54 220.446 395.726C220.676 396.284 220.987 396.804 221.369 397.269C221.494 397.422 221.625 397.565 221.767 397.708C221.906 397.849 222.053 397.982 222.207 398.106C223.311 399.029 224.699 399.533 226.131 399.532H240.775C239.406 399.533 238.074 399.073 236.991 398.224C235.908 397.376 235.135 396.187 234.793 394.845C234.452 393.503 234.561 392.084 235.105 390.811C235.648 389.539 236.594 388.486 237.794 387.818L226.43 387.055C225.407 387.002 224.387 387.209 223.464 387.659C222.929 387.92 222.433 388.258 221.992 388.661C221.772 388.862 221.567 389.08 221.379 389.313C221.251 389.464 221.132 389.624 221.023 389.79C220.627 390.381 220.336 391.037 220.163 391.73C220.111 391.928 220.069 392.13 220.038 392.334C219.987 392.651 219.961 392.972 219.959 393.293V393.293Z" fill="#49466B"/>
<path d="M103.682 392.189L68.605 377.149L74.1642 363.659L103.54 376.255C105.052 376.903 106.25 378.138 106.87 379.687C107.489 381.236 107.48 382.972 106.845 384.515L103.682 392.189Z" fill="#49466B"/>
<path d="M42.3265 370.694L82.9325 387.74C85.1958 382.362 85.2273 376.306 83.0202 370.905C80.813 365.504 76.5479 361.199 71.1633 358.939C65.7786 356.678 59.7153 356.647 54.3074 358.851C48.8995 361.056 44.5898 365.315 42.3265 370.694V370.694Z" fill="#332D52"/>
<path d="M42.3265 371.038L53.4391 375.948C55.2354 371.452 58.369 367.689 62.3703 365.223C66.3715 362.758 71.0248 361.723 75.6327 362.273C73.0471 360.063 70.0078 358.517 66.7554 357.757C63.5031 356.997 60.1272 357.045 56.8952 357.895C53.6632 358.746 50.664 360.376 48.1353 362.658C45.6065 364.939 43.6177 367.808 42.3265 371.038Z" fill="#49466B"/>
<path d="M106.248 390.305L48.5464 362.012C47.7791 361.636 46.9453 361.424 46.0955 361.388C45.2457 361.352 44.3977 361.493 43.6027 361.802C42.8077 362.112 42.0823 362.584 41.4705 363.189C40.8587 363.794 40.3732 364.521 40.0435 365.324C39.7231 366.103 39.5558 366.94 39.5511 367.785C39.5464 368.631 39.7044 369.469 40.0159 370.252C40.3275 371.036 40.7867 371.748 41.3671 372.349C41.9475 372.951 42.6379 373.429 43.3988 373.757L102.37 399.154C103.527 399.651 104.83 399.658 105.993 399.172C107.155 398.687 108.081 397.748 108.569 396.563C109.04 395.414 109.062 394.124 108.63 392.959C108.198 391.794 107.345 390.844 106.248 390.305V390.305Z" fill="#332D52"/>
<path d="M40.0327 365.274C39.3991 366.825 39.3902 368.572 40.0081 370.13C40.6259 371.687 41.8199 372.929 43.3276 373.582L56.8214 379.417C55.5267 378.856 54.4565 377.859 53.7877 376.588C53.1189 375.318 52.8915 373.851 53.1431 372.43C53.3947 371.008 54.1102 369.718 55.1714 368.772C56.2326 367.825 57.576 367.28 58.9796 367.225L48.3878 362.004C47.6337 361.633 46.8142 361.423 45.9789 361.388C45.1436 361.352 44.3099 361.491 43.5286 361.797C42.7472 362.103 42.0345 362.569 41.4335 363.167C40.8326 363.764 40.356 364.481 40.0327 365.274V365.274Z" fill="#49466B"/>
<path d="M294.204 199.072L297.833 209.553L304.216 228.015L363.543 399.532H376.776L331.299 228.015L326.406 209.553L323.626 199.072H294.204Z" fill="#441242"/>
<path d="M297.673 209.477L304.158 228.205H331.673L326.702 209.477H297.673Z" fill="#2F073A"/>
<path d="M106.163 199.072L102.534 209.553L96.1517 228.015L36.8241 399.532H23.5919L69.0688 228.015L73.9617 209.553L76.7415 199.072H106.163Z" fill="#441242"/>
<path d="M102.694 209.477L96.2096 228.205H68.6938L73.6649 209.477H102.694Z" fill="#2F073A"/>
<path d="M360.61 217.107H47.3847C45.3071 217.107 43.3146 216.285 41.8455 214.821C40.3764 213.358 39.551 211.373 39.551 209.303V199.072H368.449V209.298C368.45 210.323 368.247 211.339 367.854 212.287C367.46 213.235 366.883 214.096 366.155 214.821C365.426 215.546 364.562 216.122 363.611 216.514C362.659 216.906 361.64 217.107 360.61 217.107V217.107Z" fill="#441242"/>
<path d="M7.18369 204.621H400.816C404.784 204.621 408 201.205 408 196.991C408 192.777 404.784 189.361 400.816 189.361H7.18369C3.21625 189.361 0 192.777 0 196.991C0 201.205 3.21625 204.621 7.18369 204.621Z" fill="#D8BA9F"/>
<path d="M2.77173e-07 196.891C0.00141596 198.941 0.758727 200.906 2.10562 202.356C3.45252 203.805 5.27889 204.62 7.18368 204.621H400.816C402.722 204.621 404.549 203.807 405.896 202.357C407.243 200.908 408 198.941 408 196.891C408.002 195.978 407.852 195.073 407.556 194.217C407.048 195.699 406.129 196.978 404.924 197.881C403.719 198.784 402.285 199.268 400.816 199.267H7.18368C6.24023 199.268 5.30586 199.069 4.43439 198.68C3.56291 198.291 2.77156 197.72 2.10593 197.001C1.36878 196.216 0.802826 195.265 0.448987 194.217C0.15184 195.072 -0.000236976 195.978 2.77173e-07 196.891V196.891Z" fill="#C89F87"/>
<path d="M356.653 213.639C357.803 213.639 358.735 212.396 358.735 210.864C358.735 209.332 357.803 208.09 356.653 208.09C355.503 208.09 354.571 209.332 354.571 210.864C354.571 212.396 355.503 213.639 356.653 213.639Z" fill="#D8BA9F"/>
<path d="M355.612 214.332C357.337 214.332 358.735 212.779 358.735 210.864C358.735 208.949 357.337 207.396 355.612 207.396C353.888 207.396 352.49 208.949 352.49 210.864C352.49 212.779 353.888 214.332 355.612 214.332Z" fill="#2F073A"/>
<path d="M356.653 213.639C357.803 213.639 358.735 212.396 358.735 210.864C358.735 209.332 357.803 208.09 356.653 208.09C355.503 208.09 354.571 209.332 354.571 210.864C354.571 212.396 355.503 213.639 356.653 213.639Z" fill="#D8BA9F"/>
<path d="M354.571 210.835C354.571 211.579 354.836 212.292 355.308 212.817C355.779 213.343 356.419 213.639 357.085 213.639H357.347C356.751 213.539 356.207 213.205 355.814 212.696C355.421 212.187 355.205 211.538 355.205 210.866C355.205 210.195 355.421 209.545 355.814 209.036C356.207 208.528 356.751 208.193 357.347 208.094C357.26 208.088 357.173 208.088 357.085 208.094C356.428 208.094 355.797 208.38 355.327 208.893C354.857 209.405 354.586 210.103 354.571 210.835Z" fill="#C89F87"/>
<path d="M356.653 212.178C356.75 212.227 356.851 212.252 356.952 212.251C357.241 212.251 357.518 212.069 357.722 211.743C357.926 211.418 358.041 210.977 358.041 210.517C358.041 210.057 357.926 209.616 357.722 209.291C357.518 208.966 357.241 208.783 356.952 208.783C356.851 208.783 356.75 208.807 356.653 208.856C356.882 208.956 357.083 209.173 357.227 209.473C357.371 209.773 357.449 210.14 357.449 210.517C357.449 210.895 357.371 211.262 357.227 211.562C357.083 211.862 356.882 212.078 356.653 212.178V212.178Z" fill="#F5EAE4"/>
<path d="M341.735 213.639C343.076 213.639 344.163 212.396 344.163 210.864C344.163 209.332 343.076 208.09 341.735 208.09C340.393 208.09 339.306 209.332 339.306 210.864C339.306 212.396 340.393 213.639 341.735 213.639Z" fill="#D8BA9F"/>
<path d="M341.041 214.332C342.765 214.332 344.163 212.779 344.163 210.864C344.163 208.949 342.765 207.396 341.041 207.396C339.316 207.396 337.918 208.949 337.918 210.864C337.918 212.779 339.316 214.332 341.041 214.332Z" fill="#2F073A"/>
<path d="M341.735 213.639C343.076 213.639 344.163 212.396 344.163 210.864C344.163 209.332 343.076 208.09 341.735 208.09C340.393 208.09 339.306 209.332 339.306 210.864C339.306 212.396 340.393 213.639 341.735 213.639Z" fill="#D8BA9F"/>
<path d="M339.306 210.835C339.306 211.579 339.571 212.292 340.043 212.818C340.514 213.343 341.153 213.639 341.82 213.639H342.082C341.486 213.539 340.942 213.205 340.549 212.696C340.156 212.187 339.939 211.538 339.939 210.866C339.939 210.195 340.156 209.545 340.549 209.036C340.942 208.528 341.486 208.193 342.082 208.094C341.995 208.088 341.907 208.088 341.82 208.094C341.163 208.094 340.532 208.38 340.062 208.893C339.592 209.405 339.321 210.103 339.306 210.835Z" fill="#C89F87"/>
<path d="M342.082 212.178C342.178 212.227 342.279 212.252 342.381 212.251C342.669 212.251 342.946 212.069 343.151 211.743C343.355 211.418 343.469 210.977 343.469 210.517C343.469 210.057 343.355 209.616 343.151 209.291C342.946 208.966 342.669 208.783 342.381 208.783C342.279 208.783 342.178 208.807 342.082 208.856C342.31 208.956 342.512 209.173 342.656 209.473C342.8 209.773 342.877 210.14 342.877 210.517C342.877 210.895 342.8 211.262 342.656 211.562C342.512 211.862 342.31 212.078 342.082 212.178V212.178Z" fill="#F5EAE4"/>
<path d="M53.0816 213.639C54.4229 213.639 55.5102 212.396 55.5102 210.864C55.5102 209.332 54.4229 208.09 53.0816 208.09C51.7404 208.09 50.6531 209.332 50.6531 210.864C50.6531 212.396 51.7404 213.639 53.0816 213.639Z" fill="#D8BA9F"/>
<path d="M53.7755 214.332C55.5 214.332 56.898 212.779 56.898 210.864C56.898 208.949 55.5 207.396 53.7755 207.396C52.051 207.396 50.6531 208.949 50.6531 210.864C50.6531 212.779 52.051 214.332 53.7755 214.332Z" fill="#2F073A"/>
<path d="M53.0816 213.639C54.4229 213.639 55.5102 212.396 55.5102 210.864C55.5102 209.332 54.4229 208.09 53.0816 208.09C51.7404 208.09 50.6531 209.332 50.6531 210.864C50.6531 212.396 51.7404 213.639 53.0816 213.639Z" fill="#D8BA9F"/>
<path d="M55.5102 210.835C55.5102 211.579 55.1791 212.292 54.5898 212.817C54.0004 213.343 53.2011 213.639 52.3677 213.639H52.0408C52.7855 213.539 53.4654 213.205 53.9568 212.696C54.4483 212.187 54.7186 211.538 54.7186 210.866C54.7186 210.195 54.4483 209.545 53.9568 209.036C53.4654 208.528 52.7855 208.193 52.0408 208.094C52.1497 208.088 52.2588 208.088 52.3677 208.094C53.1893 208.094 53.9783 208.38 54.5657 208.893C55.1531 209.405 55.4921 210.103 55.5102 210.835V210.835Z" fill="#C89F87"/>
<path d="M52.0408 212.178C51.9925 212.227 51.942 212.252 51.8913 212.251C51.7469 212.251 51.6085 212.069 51.5064 211.743C51.4043 211.418 51.3469 210.977 51.3469 210.517C51.3469 210.057 51.4043 209.616 51.5064 209.291C51.6085 208.966 51.7469 208.783 51.8913 208.783C51.942 208.783 51.9925 208.807 52.0408 208.856C51.9276 208.96 51.8281 209.178 51.7573 209.478C51.6864 209.777 51.6481 210.142 51.6481 210.517C51.6481 210.892 51.6864 211.257 51.7573 211.557C51.8281 211.856 51.9276 212.074 52.0408 212.178V212.178Z" fill="#F5EAE4"/>
<path d="M68 213.639C69.5329 213.639 70.7755 212.396 70.7755 210.864C70.7755 209.332 69.5329 208.09 68 208.09C66.4671 208.09 65.2245 209.332 65.2245 210.864C65.2245 212.396 66.4671 213.639 68 213.639Z" fill="#D8BA9F"/>
<path d="M68.3469 214.332C70.0714 214.332 71.4694 212.779 71.4694 210.864C71.4694 208.949 70.0714 207.396 68.3469 207.396C66.6225 207.396 65.2245 208.949 65.2245 210.864C65.2245 212.779 66.6225 214.332 68.3469 214.332Z" fill="#2F073A"/>
<path d="M68 213.639C69.5329 213.639 70.7755 212.396 70.7755 210.864C70.7755 209.332 69.5329 208.09 68 208.09C66.4671 208.09 65.2245 209.332 65.2245 210.864C65.2245 212.396 66.4671 213.639 68 213.639Z" fill="#D8BA9F"/>
<path d="M70.7755 210.835C70.7755 211.579 70.4444 212.292 69.8551 212.817C69.2658 213.343 68.4664 213.639 67.633 213.639H67.3062C68.0508 213.539 68.7307 213.205 69.2221 212.696C69.7136 212.187 69.9839 211.538 69.9839 210.866C69.9839 210.195 69.7136 209.545 69.2221 209.036C68.7307 208.528 68.0508 208.193 67.3062 208.094C67.415 208.088 67.5241 208.088 67.633 208.094C68.4546 208.094 69.2436 208.38 69.831 208.893C70.4184 209.405 70.7575 210.103 70.7755 210.835V210.835Z" fill="#C89F87"/>
<path d="M67.3061 212.178C67.2094 212.227 67.1085 212.252 67.0071 212.251C66.7183 212.251 66.4414 212.069 66.2372 211.743C66.033 211.418 65.9183 210.977 65.9183 210.517C65.9183 210.057 66.033 209.616 66.2372 209.291C66.4414 208.966 66.7183 208.783 67.0071 208.783C67.1085 208.783 67.2094 208.807 67.3061 208.856C67.0775 208.956 66.8758 209.173 66.732 209.473C66.5882 209.773 66.5104 210.14 66.5104 210.517C66.5104 210.895 66.5882 211.262 66.732 211.562C66.8758 211.862 67.0775 212.078 67.3061 212.178V212.178Z" fill="#F5EAE4"/>
<path d="M229.323 171.802C232.101 171.543 234.147 169.035 233.893 166.202C233.638 163.368 231.18 161.281 228.402 161.541L212.738 163.003C209.96 163.263 207.914 165.77 208.168 168.604C208.423 171.437 210.881 173.524 213.659 173.265L229.323 171.802Z" fill="#EA8681"/>
<path d="M230.367 181.731C235.732 181.731 240.082 177.073 240.082 171.327C240.082 165.581 235.732 160.923 230.367 160.923C225.002 160.923 220.653 165.581 220.653 171.327C220.653 177.073 225.002 181.731 230.367 181.731Z" fill="#EA8681"/>
<path d="M221.727 175.06L221.727 175.065C221.649 183.005 227.896 189.506 235.68 189.585L296.294 190.2C304.077 190.279 310.45 183.906 310.528 175.966L310.528 175.961C310.605 168.021 304.358 161.521 296.574 161.442L235.961 160.827C228.177 160.748 221.804 167.12 221.727 175.06Z" fill="#EF948C"/>
<path d="M242.389 186.492C248.452 181.629 249.503 172.674 244.736 166.49C239.969 160.306 231.189 159.236 225.126 164.1L215.526 171.8C209.463 176.664 208.412 185.619 213.179 191.803C217.946 197.986 226.725 199.057 232.789 194.193L242.389 186.492Z" fill="#EF948C"/>
<path d="M229.25 173.896C231.443 172.137 231.822 168.898 230.098 166.662C228.374 164.425 225.198 164.038 223.005 165.796L200.775 183.628C198.583 185.386 198.203 188.625 199.927 190.862C201.652 193.099 204.827 193.486 207.02 191.727L229.25 173.896Z" fill="#EF948C"/>
<path d="M229.323 171.802C232.101 171.543 234.147 169.035 233.893 166.202C233.638 163.368 231.18 161.281 228.402 161.541L212.738 163.003C209.96 163.263 207.914 165.77 208.168 168.603C208.423 171.437 210.881 173.524 213.659 173.265L229.323 171.802Z" fill="#EF948C"/>
<path d="M230.379 181.171C235.875 181.171 240.331 176.626 240.331 171.019C240.331 165.413 235.875 160.868 230.379 160.868C224.882 160.868 220.427 165.413 220.427 171.019C220.427 176.626 224.882 181.171 230.379 181.171Z" fill="#EF948C"/>
<path d="M221.727 175.06L221.727 175.065C221.649 183.005 227.896 189.506 235.68 189.585L296.294 190.2C304.077 190.279 310.45 183.906 310.528 175.966L310.528 175.961C310.605 168.021 304.358 161.521 296.574 161.442L235.961 160.827C228.177 160.748 221.804 167.12 221.727 175.06Z" fill="#EF948C"/>
<path d="M242.389 186.492C248.452 181.629 249.503 172.674 244.736 166.49C239.969 160.306 231.189 159.236 225.126 164.1L215.526 171.8C209.463 176.664 208.412 185.619 213.179 191.803C217.946 197.986 226.725 199.057 232.789 194.193L242.389 186.492Z" fill="#EF948C"/>
<path d="M212.115 188.658C214.406 191.622 217.76 193.538 221.44 193.986C225.12 194.434 228.824 193.377 231.738 191.046L233.342 189.757L237.449 186.493L243.236 186.547L295.209 187.091C298.949 187.129 302.552 185.654 305.224 182.99C307.895 180.326 309.418 176.691 309.456 172.886V172.695C309.457 171.533 309.317 170.374 309.039 169.246C310.235 171.393 310.861 173.819 310.857 176.286V176.433C310.84 178.317 310.459 180.179 309.735 181.914C309.01 183.648 307.957 185.22 306.636 186.54C305.314 187.86 303.75 188.902 302.033 189.607C300.315 190.312 298.478 190.667 296.626 190.649L238.867 190.073L233.144 194.648C231.308 196.115 229.139 197.091 226.837 197.487C224.534 197.882 222.171 197.684 219.963 196.912C217.755 196.139 215.772 194.816 214.196 193.064C212.619 191.311 211.5 189.185 210.939 186.879C211.287 187.501 211.68 188.096 212.115 188.658V188.658Z" fill="#F3A6A0"/>
<path d="M229.25 173.896C231.443 172.137 231.822 168.898 230.098 166.662C228.374 164.425 225.198 164.038 223.005 165.796L200.775 183.628C198.583 185.386 198.203 188.625 199.927 190.862C201.652 193.099 204.827 193.486 207.02 191.727L229.25 173.896Z" fill="#EF948C"/>
<path d="M235.319 182.117C237.234 180.581 237.565 177.753 236.06 175.801C234.555 173.848 231.782 173.51 229.868 175.045L223.415 180.222C221.5 181.757 221.169 184.585 222.674 186.538C224.179 188.49 226.952 188.829 228.866 187.293L235.319 182.117Z" fill="#F3A6A0"/>
<path d="M195.926 71.4925C204.07 71.4925 210.672 64.7579 210.672 56.4503C210.672 48.1428 204.07 41.4082 195.926 41.4082C187.781 41.4082 181.179 48.1428 181.179 56.4503C181.179 64.7579 187.781 71.4925 195.926 71.4925Z" stroke="white" stroke-width="2.85" stroke-miterlimit="10"/>
<path d="M230.721 71.4925C238.865 71.4925 245.467 64.7579 245.467 56.4503C245.467 48.1428 238.865 41.4082 230.721 41.4082C222.577 41.4082 215.974 48.1428 215.974 56.4503C215.974 64.7579 222.577 71.4925 230.721 71.4925Z" stroke="white" stroke-width="2.85" stroke-miterlimit="10"/>
<path d="M210.661 57.0392H215.985" stroke="white" stroke-width="2.85" stroke-miterlimit="10"/>
<path d="M74.2449 351.474L114.77 368.318L119.347 356.017L79.7288 331.556L74.2608 346.222L74.2449 351.474Z" fill="#141334"/>
<path d="M133.914 184.758H125.555V183.123C125.555 182.38 125.844 181.667 126.359 181.141C126.875 180.616 127.573 180.321 128.302 180.321H131.172C131.901 180.321 132.6 180.616 133.115 181.141C133.63 181.667 133.92 182.38 133.92 183.123V184.758H133.914Z" fill="#ABB2D8"/>
<path d="M142.274 184.758H133.914V183.123C133.918 182.383 134.209 181.676 134.723 181.154C135.236 180.632 135.931 180.338 136.656 180.337H139.526C140.255 180.337 140.954 180.632 141.469 181.158C141.984 181.683 142.274 182.396 142.274 183.139V184.775V184.758Z" fill="#ABB2D8"/>
<path d="M150.638 184.758H142.279V183.123C142.279 182.38 142.568 181.667 143.084 181.141C143.599 180.616 144.298 180.321 145.026 180.321H147.896C148.625 180.321 149.324 180.616 149.839 181.141C150.354 181.667 150.644 182.38 150.644 183.123V184.758H150.638Z" fill="#ABB2D8"/>
<path d="M158.998 184.758H150.638V183.123C150.638 182.38 150.928 181.667 151.443 181.141C151.958 180.616 152.657 180.321 153.386 180.321H156.256C156.984 180.321 157.683 180.616 158.198 181.141C158.714 181.667 159.003 182.38 159.003 183.123V184.758H158.998Z" fill="#ABB2D8"/>
<path d="M167.357 184.758H158.998V183.123C158.998 182.38 159.287 181.667 159.802 181.141C160.318 180.616 161.016 180.321 161.745 180.321H164.615C165.344 180.321 166.043 180.616 166.558 181.141C167.073 181.667 167.363 182.38 167.363 183.123V184.758H167.357Z" fill="#ABB2D8"/>
<path d="M175.722 184.758H167.362V183.123C167.362 182.38 167.652 181.667 168.167 181.141C168.682 180.616 169.381 180.321 170.11 180.321H172.975C173.703 180.321 174.402 180.616 174.917 181.141C175.432 181.667 175.722 182.38 175.722 183.123V184.758Z" fill="#ABB2D8"/>
<path d="M184.076 184.758H175.717V183.123C175.721 182.382 176.013 181.672 176.529 181.15C177.045 180.628 177.742 180.335 178.469 180.337H181.339C182.068 180.337 182.767 180.632 183.282 181.158C183.797 181.683 184.087 182.396 184.087 183.139V184.775L184.076 184.758Z" fill="#ABB2D8"/>
<path d="M103.31 189.361H191.588C193.461 189.361 194.98 187.81 194.98 185.896V185.891C194.98 183.977 193.461 182.425 191.588 182.425H103.31C101.437 182.425 99.9184 183.977 99.9184 185.891V185.896C99.9184 187.81 101.437 189.361 103.31 189.361Z" fill="#5D6295"/>
<path d="M125.592 189.361H46.2789C44.6635 189.362 43.0944 188.81 41.8205 187.793C40.5466 186.777 39.6409 185.354 39.2471 183.751L23.8104 120.908C23.5417 119.813 23.5205 118.67 23.7485 117.565C23.9765 116.46 24.4477 115.424 25.1262 114.533C25.8047 113.643 26.6726 112.923 27.664 112.427C28.6554 111.932 29.7442 111.675 30.8474 111.675H100.834C102.45 111.675 104.019 112.227 105.293 113.243C106.567 114.26 107.472 115.682 107.866 117.286L125.592 189.361Z" fill="#666DA2"/>
<path d="M23.8051 120.888L39.2418 183.744C39.6373 185.348 40.544 186.771 41.8185 187.789C43.0931 188.806 44.6626 189.36 46.2789 189.361H125.592L123.883 182.414H61.2312C59.6147 182.414 58.0447 181.86 56.77 180.843C55.4953 179.825 54.5888 178.401 54.1942 176.797L38.7415 113.969C38.5577 113.219 38.4877 112.446 38.5339 111.675H30.8421C29.7412 111.675 28.6548 111.933 27.6654 112.427C26.6759 112.921 25.8094 113.639 25.1313 114.527C24.4532 115.415 23.9814 116.449 23.7516 117.551C23.5219 118.653 23.5401 119.795 23.8051 120.888V120.888Z" fill="#5D6295"/>
<path d="M70.0816 156.761C72.3809 156.761 74.2449 154.897 74.2449 152.599C74.2449 150.3 72.3809 148.437 70.0816 148.437C67.7823 148.437 65.9183 150.3 65.9183 152.599C65.9183 154.897 67.7823 156.761 70.0816 156.761Z" fill="#ABB2D8"/>
<path d="M64.5306 158.664C65.168 159.66 66.0206 160.5 67.0259 161.123C68.0312 161.746 69.1635 162.136 70.3393 162.264C71.5152 162.391 72.7047 162.254 73.8203 161.861C74.936 161.468 75.9492 160.83 76.7856 159.994C77.622 159.158 78.2601 158.145 78.653 157.03C79.0459 155.915 79.1835 154.726 79.0558 153.55C78.9281 152.375 78.5383 151.243 77.9151 150.238C77.2919 149.233 76.4511 148.381 75.4548 147.744C76.4198 149.262 76.8383 151.064 76.6412 152.852C76.4442 154.64 75.6433 156.308 74.3708 157.58C73.0982 158.852 71.43 159.653 69.6411 159.85C67.8523 160.047 66.0497 159.628 64.5306 158.664V158.664Z" fill="#ABB2D8"/>
<path d="M226.139 370.399H271.535L276.163 358.349L217.878 348.897L226.139 370.399Z" fill="#332D52"/>
<path d="M267.49 369.012C269.214 369.012 270.612 367.615 270.612 365.891C270.612 364.167 269.214 362.769 267.49 362.769C265.765 362.769 264.367 364.167 264.367 365.891C264.367 367.615 265.765 369.012 267.49 369.012Z" fill="#141334"/>
<path d="M267.49 369.012C268.831 369.012 269.918 367.925 269.918 366.584C269.918 365.244 268.831 364.157 267.49 364.157C266.149 364.157 265.061 365.244 265.061 366.584C265.061 367.925 266.149 369.012 267.49 369.012Z" fill="#666DA2"/>
<path d="M267.837 368.311C267.918 368.321 267.999 368.321 268.08 368.311C268.39 368.284 268.681 368.089 268.893 367.768C269.106 367.446 269.224 367.022 269.224 366.581C269.224 366.139 269.106 365.715 268.893 365.393C268.681 365.072 268.39 364.878 268.08 364.85C267.998 364.85 267.916 364.863 267.837 364.89C268.109 364.974 268.352 365.188 268.527 365.497C268.702 365.805 268.797 366.188 268.797 366.584C268.797 366.979 268.702 367.363 268.527 367.671C268.352 367.979 268.109 368.193 267.837 368.278V368.311Z" fill="#332D52"/>
<path d="M268.531 364.201C268.411 364.17 268.288 364.155 268.165 364.157C267.702 364.186 267.265 364.418 266.946 364.805C266.627 365.192 266.449 365.705 266.449 366.238C266.449 366.77 266.627 367.283 266.946 367.67C267.265 368.057 267.702 368.289 268.165 368.318C268.288 368.32 268.411 368.305 268.531 368.274C268.125 368.174 267.762 367.917 267.501 367.546C267.24 367.176 267.098 366.714 267.098 366.238C267.098 365.761 267.24 365.299 267.501 364.929C267.762 364.558 268.125 364.301 268.531 364.201V364.201Z" fill="#9DA5D1"/>
<path d="M70.7755 353.798L113.387 371.093L122.122 361.77L70.8505 330.862L70.7755 353.798Z" fill="#262344"/>
<path d="M112.061 366.237C113.786 366.237 115.184 364.995 115.184 363.463C115.184 361.931 113.786 360.688 112.061 360.688C110.337 360.688 108.939 361.931 108.939 363.463C108.939 364.995 110.337 366.237 112.061 366.237Z" fill="#141334"/>
<path d="M112.408 366.237C113.558 366.237 114.49 365.306 114.49 364.157C114.49 363.007 113.558 362.076 112.408 362.076C111.259 362.076 110.327 363.007 110.327 364.157C110.327 365.306 111.259 366.237 112.408 366.237Z" fill="#666DA2"/>
<path d="M111.714 365.512C111.874 365.533 112.037 365.544 112.2 365.544C112.82 365.522 113.402 365.367 113.828 365.109C114.253 364.852 114.49 364.513 114.49 364.16C114.49 363.807 114.253 363.467 113.828 363.21C113.402 362.953 112.82 362.797 112.2 362.775C112.039 362.767 111.876 362.767 111.714 362.775C112.258 362.843 112.745 363.014 113.095 363.26C113.444 363.507 113.634 363.814 113.634 364.13C113.634 364.447 113.444 364.754 113.095 365C112.745 365.247 112.258 365.418 111.714 365.485V365.512Z" fill="#332D52"/>
<path d="M112.408 362.806C112.288 362.78 112.166 362.768 112.043 362.769C111.579 362.794 111.143 362.987 110.824 363.31C110.504 363.632 110.327 364.059 110.327 364.503C110.327 364.948 110.504 365.375 110.824 365.697C111.143 366.02 111.579 366.213 112.043 366.237C112.166 366.239 112.288 366.226 112.408 366.201C112.003 366.117 111.639 365.903 111.378 365.594C111.118 365.285 110.976 364.9 110.976 364.503C110.976 364.107 111.118 363.722 111.378 363.413C111.639 363.104 112.003 362.89 112.408 362.806V362.806Z" fill="#9DA5D1"/>
</svg>
