<svg width="456" height="456" viewBox="0 0 456 456" fill="none" xmlns="http://www.w3.org/2000/svg">
<path d="M12.7042 291.48V296.227C12.7048 304.155 14.267 312.005 17.3017 319.33C20.3365 326.654 24.7842 333.309 30.3909 338.915C35.9977 344.52 42.6537 348.967 49.9789 352C57.304 355.033 65.1549 356.593 73.0831 356.592H97.584C100.887 356.593 104.055 357.906 106.39 360.242C108.725 362.579 110.037 365.747 110.037 369.05V415.53H318.288V369.059C318.287 366.554 319.042 364.107 320.454 362.038C321.867 359.969 323.871 358.374 326.204 357.463C327.656 356.889 329.203 356.597 330.764 356.601H371.959C372.607 356.601 373.254 356.592 373.902 356.574C388.01 356.15 401.56 350.969 412.352 341.872C413.729 340.714 415.053 339.498 416.323 338.224C425.1 329.45 431.078 318.269 433.5 306.097C435.922 293.925 434.68 281.308 429.932 269.842C425.183 258.376 417.14 248.575 406.821 241.68C396.502 234.785 384.37 231.105 371.959 231.105H323.6C321.436 231.142 319.287 230.747 317.277 229.943C315.267 229.14 313.437 227.945 311.894 226.428C310.351 224.91 309.125 223.1 308.289 221.104C307.452 219.108 307.021 216.965 307.021 214.801C307.021 212.637 307.452 210.494 308.289 208.498C309.125 206.502 310.351 204.692 311.894 203.175C313.437 201.657 315.267 200.462 317.277 199.659C319.287 198.856 321.436 198.461 323.6 198.497H405.17C415.281 198.497 424.979 194.48 432.129 187.33C439.279 180.18 443.296 170.482 443.296 160.371C443.296 150.259 439.279 140.561 432.129 133.411C424.979 126.261 415.281 122.244 405.17 122.244C396.789 122.244 388.752 118.916 382.826 112.99C376.9 107.065 373.57 99.0284 373.569 90.6482V58.4546C373.569 56.8188 373.248 55.1989 372.622 53.6875C371.997 52.1761 371.079 50.8027 369.923 49.6458C368.767 48.4889 367.393 47.5712 365.882 46.9451C364.371 46.3189 362.751 45.9967 361.116 45.9967H70.8305C65.7889 45.9415 60.7865 46.8869 56.1127 48.7781C51.4389 50.6693 47.1867 53.4687 43.6021 57.0143C40.0175 60.5599 37.1718 64.7812 35.2296 69.434C33.2874 74.0868 32.2874 79.0787 32.2874 84.1205C32.2874 89.1624 33.2874 94.1542 35.2296 98.807C37.1718 103.46 40.0175 107.681 43.6021 111.227C47.1867 114.772 51.4389 117.572 56.1127 119.463C60.7865 121.354 65.7889 122.3 70.8305 122.244H101.839C107.715 122.244 113.352 124.579 117.508 128.734C121.663 132.889 123.999 138.525 124 144.401C123.999 150.278 121.663 155.914 117.508 160.069C113.352 164.224 107.715 166.559 101.839 166.559C101.433 166.559 101.031 166.559 100.63 166.586C93.2215 166.897 86.2201 170.06 81.0902 175.414C75.9603 180.768 73.0994 187.899 73.1059 195.314V214.922C73.1066 219.231 71.7172 223.426 69.1443 226.882C66.5714 230.339 62.9521 232.874 58.824 234.11C47.1687 237.599 31.0627 244.954 21.2907 260.102C18.7042 264.117 16.6891 268.473 15.3034 273.044C13.5242 279.025 12.6482 285.239 12.7042 291.48Z" fill="#F3F4FE"/>
<path d="M410.637 32.4399H36.4846C32.027 32.4399 28.4134 36.0535 28.4134 40.5111V247.667C28.4134 252.125 32.027 255.739 36.4846 255.739H410.637C415.095 255.739 418.708 252.125 418.708 247.667V40.5111C418.708 36.0535 415.095 32.4399 410.637 32.4399Z" fill="#D2D6FA"/>
<path d="M381.517 70.9856H221.976C214.824 70.9856 209.026 76.7837 209.026 83.936V221.539C209.026 228.691 214.824 234.489 221.976 234.489H381.517C388.669 234.489 394.467 228.691 394.467 221.539V83.936C394.467 76.7837 388.669 70.9856 381.517 70.9856Z" fill="#F3F4FE"/>
<path d="M256.331 133.795L289.364 126.882C289.839 129.156 290.079 131.472 290.08 133.795C290.08 152.309 274.845 167.539 256.336 167.539C237.827 167.539 222.592 152.304 222.592 133.795C222.592 115.286 237.827 100.051 256.336 100.051L256.331 133.795Z" fill="#BCBFF6"/>
<path d="M256.331 133.795L249.432 100.776C251.707 100.301 254.025 100.061 256.35 100.06C274.863 100.06 290.094 115.295 290.094 133.804C290.094 152.313 274.859 167.548 256.35 167.548C237.841 167.548 222.606 152.313 222.606 133.804L256.331 133.795Z" fill="#D2D6FA"/>
<path d="M313.181 115.332H304.913C301.922 115.332 299.496 117.756 299.496 120.747C299.496 123.737 301.922 126.162 304.913 126.162H313.181C316.173 126.162 318.598 123.737 318.598 120.747C318.598 117.756 316.173 115.332 313.181 115.332Z" fill="#D2D6FA"/>
<path d="M377.522 115.332H328.657C325.666 115.332 323.24 117.756 323.24 120.747C323.24 123.737 325.666 126.162 328.657 126.162H377.522C380.514 126.162 382.94 123.737 382.94 120.747C382.94 117.756 380.514 115.332 377.522 115.332Z" fill="#D2D6FA"/>
<path d="M353.272 130.439H329.474C326.482 130.439 324.056 132.863 324.056 135.854C324.056 138.844 326.482 141.269 329.474 141.269H353.272C356.264 141.269 358.69 138.844 358.69 135.854C358.69 132.863 356.264 130.439 353.272 130.439Z" fill="#D2D6FA"/>
<path d="M377.522 144.803H328.657C325.666 144.803 323.24 147.227 323.24 150.218C323.24 153.208 325.666 155.633 328.657 155.633H377.522C380.514 155.633 382.94 153.208 382.94 150.218C382.94 147.227 380.514 144.803 377.522 144.803Z" fill="#D2D6FA"/>
<path d="M377.522 185.619H228C225.008 185.619 222.583 188.044 222.583 191.034C222.583 194.025 225.008 196.449 228 196.449H377.522C380.514 196.449 382.94 194.025 382.94 191.034C382.94 188.044 380.514 185.619 377.522 185.619Z" fill="#D2D6FA"/>
<path d="M374.33 201H231.192C226.437 201 222.583 204.855 222.583 209.61C222.583 214.364 226.437 218.219 231.192 218.219H374.33C379.085 218.219 382.94 214.364 382.94 209.61C382.94 204.855 379.085 201 374.33 201Z" fill="#D2D6FA"/>
<path d="M313.181 144.803H304.913C301.922 144.803 299.496 147.227 299.496 150.218C299.496 153.208 301.922 155.633 304.913 155.633H313.181C316.173 155.633 318.598 153.208 318.598 150.218C318.598 147.227 316.173 144.803 313.181 144.803Z" fill="#D2D6FA"/>
<path d="M164.42 68.2859H61.8108C58.9448 68.2859 56.6215 70.6092 56.6215 73.4752V106.221C56.6215 109.086 58.9448 111.41 61.8108 111.41H164.42C167.286 111.41 169.609 109.086 169.609 106.221V73.4752C169.609 70.6092 167.286 68.2859 164.42 68.2859Z" fill="#BCBFF6"/>
<path d="M97.4427 74.1365H63.726C62.2905 74.1365 61.1268 75.3002 61.1268 76.7357V102.956C61.1268 104.391 62.2905 105.555 63.726 105.555H97.4427C98.8782 105.555 100.042 104.391 100.042 102.956V76.7357C100.042 75.3002 98.8782 74.1365 97.4427 74.1365Z" fill="#F3F4FE"/>
<path d="M69.9002 91.3733H69.8957C68.8656 91.3733 68.0306 92.2083 68.0306 93.2383V101.898C68.0306 102.928 68.8656 103.763 69.8957 103.763H69.9002C70.9303 103.763 71.7653 102.928 71.7653 101.898V93.2383C71.7653 92.2083 70.9303 91.3733 69.9002 91.3733Z" fill="#D2D6FA"/>
<path d="M76.2295 86.6082H76.225C75.1949 86.6082 74.3599 87.4432 74.3599 88.4732V101.893C74.3599 102.923 75.1949 103.758 76.225 103.758H76.2295C77.2596 103.758 78.0946 102.923 78.0946 101.893V88.4732C78.0946 87.4432 77.2596 86.6082 76.2295 86.6082Z" fill="#D2D6FA"/>
<path d="M82.6181 81.3049H82.6135C81.5835 81.3049 80.7485 82.1399 80.7485 83.17V101.893C80.7485 102.923 81.5835 103.758 82.6135 103.758H82.6181C83.6481 103.758 84.4831 102.923 84.4831 101.893V83.17C84.4831 82.1399 83.6481 81.3049 82.6181 81.3049Z" fill="#D2D6FA"/>
<path d="M90.7896 77.2693H90.785C89.755 77.2693 88.92 78.1043 88.92 79.1343V101.893C88.92 102.923 89.755 103.758 90.785 103.758H90.7896C91.8196 103.758 92.6546 102.923 92.6546 101.893V79.1343C92.6546 78.1043 91.8196 77.2693 90.7896 77.2693Z" fill="#D2D6FA"/>
<path d="M161.834 79.5173H108.742C107.576 79.5173 106.631 80.4616 106.631 81.6263C106.631 82.7911 107.576 83.7353 108.742 83.7353H161.834C163 83.7353 163.946 82.7911 163.946 81.6263C163.946 80.4616 163 79.5173 161.834 79.5173Z" fill="#F3F4FE"/>
<path d="M143.426 88.5325H108.359C107.405 88.5325 106.631 89.3062 106.631 90.2607V91.0222C106.631 91.9767 107.405 92.7505 108.359 92.7505H143.426C144.38 92.7505 145.154 91.9767 145.154 91.0222V90.2607C145.154 89.3062 144.38 88.5325 143.426 88.5325Z" fill="#F3F4FE"/>
<path d="M36.48 32.4399H410.637C412.778 32.4399 414.831 33.2903 416.344 34.8039C417.858 36.3176 418.708 38.3705 418.708 40.5111V51.5281H28.4134V40.5111C28.4134 38.3713 29.2631 36.3191 30.7758 34.8056C32.2884 33.292 34.3402 32.4412 36.48 32.4399Z" fill="#BCBFF6"/>
<path d="M80.0736 46.5987C82.6172 46.5987 84.6792 44.5367 84.6792 41.9931C84.6792 39.4494 82.6172 37.3875 80.0736 37.3875C77.53 37.3875 75.468 39.4494 75.468 41.9931C75.468 44.5367 77.53 46.5987 80.0736 46.5987Z" fill="white"/>
<path d="M62.8733 46.5987C65.4169 46.5987 67.4789 44.5367 67.4789 41.9931C67.4789 39.4494 65.4169 37.3875 62.8733 37.3875C60.3297 37.3875 58.2677 39.4494 58.2677 41.9931C58.2677 44.5367 60.3297 46.5987 62.8733 46.5987Z" fill="white"/>
<path d="M97.2694 46.5987C99.813 46.5987 101.875 44.5367 101.875 41.9931C101.875 39.4494 99.813 37.3875 97.2694 37.3875C94.7258 37.3875 92.6638 39.4494 92.6638 41.9931C92.6638 44.5367 94.7258 46.5987 97.2694 46.5987Z" fill="white"/>
<path d="M91.6378 151.98H69.2482C62.2747 151.98 56.6215 157.633 56.6215 164.607V222.013C56.6215 228.986 62.2747 234.639 69.2482 234.639H91.6378C98.6113 234.639 104.264 228.986 104.264 222.013V164.607C104.264 157.633 98.6113 151.98 91.6378 151.98Z" fill="#BCBFF6"/>
<path d="M150.64 187.311H122.103C116.827 187.311 112.55 191.588 112.55 196.864V225.086C112.55 230.362 116.827 234.639 122.103 234.639H150.64C155.916 234.639 160.193 230.362 160.193 225.086V196.864C160.193 191.588 155.916 187.311 150.64 187.311Z" fill="#BCBFF6"/>
<path d="M194.256 204.958H174.871C171.461 204.958 168.697 207.723 168.697 211.132V228.465C168.697 231.875 171.461 234.639 174.871 234.639H194.256C197.666 234.639 200.43 231.875 200.43 228.465V211.132C200.43 207.723 197.666 204.958 194.256 204.958Z" fill="#BCBFF6"/>
<path d="M33.06 423.56H58.8057C61.022 423.56 62.8185 421.763 62.8185 419.547V419.543C62.8185 417.326 61.022 415.53 58.8057 415.53H33.06C30.8438 415.53 29.0472 417.326 29.0472 419.543V419.547C29.0472 421.763 30.8438 423.56 33.06 423.56Z" fill="#D2D6FA"/>
<path d="M70.1008 423.56H431.408C433.624 423.56 435.421 421.763 435.421 419.547V419.543C435.421 417.326 433.624 415.53 431.408 415.53H70.1008C67.8846 415.53 66.088 417.326 66.088 419.543V419.547C66.088 421.763 67.8846 423.56 70.1008 423.56Z" fill="#D2D6FA"/>
<path d="M113.158 111.918L113.162 111.916C115.396 111.172 116.604 108.758 115.86 106.524L111.663 93.921C110.919 91.6869 108.505 90.479 106.271 91.223L106.266 91.2245C104.032 91.9685 102.824 94.3828 103.568 96.6168L107.766 109.22C108.51 111.454 110.924 112.662 113.158 111.918Z" fill="#F9A0B4"/>
<path d="M108.605 118.309C113.247 118.309 117.01 114.547 117.01 109.905C117.01 105.264 113.247 101.501 108.605 101.501C103.964 101.501 100.201 105.264 100.201 109.905C100.201 114.547 103.964 118.309 108.605 118.309Z" fill="#F9A0B4"/>
<path d="M246.318 415.521H210.266C210.266 410.74 212.165 406.155 215.546 402.775C218.926 399.394 223.511 397.495 228.292 397.495C233.073 397.495 237.657 399.394 241.038 402.775C244.418 406.155 246.318 410.74 246.318 415.521Z" fill="#33557A"/>
<path d="M194.634 415.521H158.583C158.583 410.74 160.482 406.155 163.863 402.775C167.243 399.394 171.828 397.495 176.609 397.495C181.39 397.495 185.974 399.394 189.355 402.775C192.735 406.155 194.634 410.74 194.634 415.521Z" fill="#33557A"/>
<path d="M189.445 244.763V415.516H163.768V257.284C163.768 250.362 167.452 244.744 171.976 244.744L189.445 244.763Z" fill="#FFB2BF"/>
<path d="M163.768 375.11H189.445V415.521H163.768V375.11Z" fill="#D5E6BC"/>
<path d="M163.768 375.11H170.188V415.521H163.768V375.11Z" fill="#C3D3A7"/>
<path d="M176.609 375.11H183.029V415.521H176.609V375.11Z" fill="#C3D3A7"/>
<path d="M163.768 369.506H189.445V375.106H163.768V369.506Z" fill="#F9A0B4"/>
<path d="M242.255 408.996H216.144L209.122 371.722L193.8 290.281L189.436 267.052L188.287 260.928C187.566 257.102 188.068 253.468 189.436 250.868C190.503 248.848 192.095 247.453 194.046 247.088L211.201 243.864L219.929 290.281L234.347 366.98L242.255 408.996Z" fill="#FFB2BF"/>
<path d="M242.255 408.996H216.135L209.122 371.722L234.357 366.98L242.255 408.996Z" fill="#D5E6BC"/>
<path d="M209.122 371.721L215.43 370.525L222.954 410.229L216.646 411.425L209.122 371.721Z" fill="#C3D3A7"/>
<path d="M221.736 369.332L228.044 368.137L235.567 407.841L229.259 409.036L221.736 369.332Z" fill="#C3D3A7"/>
<path d="M233.486 362.538L208.305 367.436L209.122 371.722L234.357 366.98L233.486 362.538Z" fill="#F9A0B4"/>
<path d="M219.938 290.281H193.8L189.436 267.052V290.281H163.768V257.303C163.768 250.381 167.452 244.763 171.976 244.763H189.436V250.868C190.503 248.848 192.095 247.453 194.046 247.088L211.201 243.864L219.938 290.281Z" fill="#F9A0B4"/>
<path d="M158.314 408.307L194.283 404.326C195.068 404.239 195.861 404.318 196.613 404.559C197.365 404.799 198.057 405.195 198.645 405.722C199.233 406.248 199.703 406.893 200.025 407.613C200.347 408.334 200.513 409.114 200.512 409.903C200.512 411.392 199.921 412.82 198.868 413.872C197.815 414.925 196.388 415.516 194.899 415.516H158.711C157.752 415.516 156.832 415.135 156.154 414.457C155.476 413.779 155.095 412.859 155.095 411.9C155.095 411.01 155.424 410.151 156.018 409.488C156.612 408.825 157.429 408.405 158.314 408.307Z" fill="#55A4AB"/>
<path d="M200.508 409.908C200.508 410.644 200.364 411.374 200.082 412.055C199.8 412.735 199.387 413.354 198.866 413.875C198.345 414.396 197.727 414.809 197.046 415.091C196.365 415.372 195.636 415.517 194.899 415.516H185.939C187.19 415.519 188.407 415.103 189.395 414.334C190.382 413.566 191.085 412.489 191.39 411.275C191.695 410.061 191.586 408.78 191.079 407.636C190.572 406.491 189.697 405.55 188.592 404.96L194.283 404.326C195.068 404.24 195.861 404.319 196.613 404.56C197.364 404.802 198.056 405.198 198.643 405.725C199.231 406.252 199.701 406.897 200.022 407.617C200.343 408.338 200.509 409.119 200.508 409.908Z" fill="#33557A"/>
<path d="M209.997 408.307L245.966 404.326C246.751 404.239 247.545 404.318 248.296 404.559C249.048 404.799 249.74 405.195 250.328 405.722C250.916 406.248 251.386 406.893 251.708 407.613C252.03 408.334 252.196 409.114 252.195 409.903C252.195 411.392 251.604 412.82 250.551 413.872C249.499 414.925 248.071 415.516 246.582 415.516H210.394C209.435 415.516 208.515 415.135 207.837 414.457C207.159 413.779 206.778 412.859 206.778 411.9C206.778 411.01 207.107 410.151 207.701 409.488C208.295 408.825 209.112 408.405 209.997 408.307Z" fill="#55A4AB"/>
<path d="M252.195 409.908C252.194 411.395 251.602 412.822 250.55 413.874C249.497 414.926 248.07 415.516 246.582 415.516H237.626C238.877 415.518 240.093 415.101 241.08 414.332C242.067 413.563 242.769 412.486 243.074 411.273C243.378 410.059 243.268 408.779 242.761 407.635C242.254 406.491 241.379 405.549 240.276 404.96L245.966 404.326C246.751 404.24 247.545 404.319 248.296 404.56C249.048 404.801 249.74 405.198 250.328 405.725C250.916 406.252 251.386 406.896 251.708 407.617C252.029 408.338 252.196 409.118 252.195 409.908Z" fill="#33557A"/>
<path d="M173.088 192.591C170.863 194.573 167.973 195.644 164.993 195.59C162.014 195.537 159.163 194.364 157.01 192.304C156.777 192.085 156.554 191.848 156.335 191.611L149.404 183.823L98.6875 126.823C96.5959 124.472 95.5236 121.387 95.7066 118.246C95.8896 115.105 97.3129 112.165 99.6634 110.074C102.014 107.982 105.099 106.91 108.24 107.093C111.381 107.276 114.321 108.699 116.412 111.05L155.2 154.643L165.282 165.984L174.06 175.852C175.095 177.015 175.891 178.37 176.403 179.841C176.915 181.311 177.132 182.868 177.041 184.423C176.951 185.977 176.556 187.499 175.877 188.9C175.199 190.302 174.251 191.556 173.088 192.591Z" fill="#FFB2BF"/>
<path d="M174.06 175.843L165.282 165.984L155.2 154.657C155.2 154.766 155.172 154.871 155.159 154.981C155.159 154.981 157.625 163.923 149.404 183.832L156.335 191.62C156.549 191.862 156.791 192.076 157.01 192.313C159.218 194.459 162.174 195.661 165.253 195.665C168.331 195.67 171.291 194.477 173.506 192.339C175.721 190.2 177.017 187.284 177.12 184.207C177.224 181.13 176.126 178.134 174.06 175.852V175.843Z" fill="#F9A0B4"/>
<path d="M231.584 221.01C230.22 221.764 228.721 222.242 227.172 222.417C225.622 222.591 224.054 222.458 222.557 222.026C221.059 221.593 219.661 220.87 218.443 219.896C217.226 218.923 216.212 217.719 215.46 216.354L209.806 206.112L206.418 199.974L196.358 181.734C194.854 179.012 194.479 175.808 195.315 172.812C196.151 169.817 198.13 167.269 200.827 165.72L201.014 165.615C202.378 164.862 203.876 164.385 205.424 164.211C206.973 164.037 208.54 164.171 210.036 164.603C211.533 165.035 212.93 165.758 214.147 166.731C215.364 167.703 216.377 168.906 217.129 170.27L218.602 172.934L236.235 204.895C236.989 206.258 237.466 207.756 237.64 209.304C237.814 210.852 237.681 212.419 237.249 213.916C236.817 215.412 236.094 216.809 235.122 218.026C234.15 219.244 232.948 220.257 231.584 221.01Z" fill="#FFB2BF"/>
<path d="M265.623 222.399C272.176 222.368 277.463 217.032 277.432 210.48C277.402 203.929 272.064 198.642 265.512 198.673L225.968 198.86C219.415 198.891 214.128 204.227 214.159 210.778C214.189 217.33 219.527 222.616 226.08 222.585L265.623 222.399Z" fill="#FFB2BF"/>
<path d="M279.981 215.783C285.601 209.021 285.834 199.948 280.502 195.516C275.17 191.085 266.292 192.973 260.672 199.735C255.053 206.496 254.82 215.57 260.152 220.001C265.484 224.433 274.362 222.544 279.981 215.783Z" fill="#FFB2BF"/>
<path opacity="0.38" d="M280.495 195.487C275.442 191.287 267.193 192.751 261.562 198.707L232.897 198.843L217.129 170.266C215.93 168.082 214.074 166.332 211.824 165.263C209.574 164.195 207.044 163.862 204.594 164.312C202.144 164.762 199.898 165.973 198.175 167.772C196.452 169.57 195.339 171.866 194.995 174.333C195.935 172.366 197.4 170.697 199.228 169.508C201.056 168.32 203.176 167.658 205.355 167.597C207.534 167.535 209.689 168.075 211.581 169.158C213.473 170.242 215.03 171.825 216.08 173.736L229.952 198.866L231.849 202.314H234.799L258.912 202.204H260.513C261.803 200.837 263.286 199.665 264.913 198.725C269.897 195.884 275.597 195.788 279.441 198.985C282.72 201.721 283.897 206.194 282.998 210.818C285.401 205.05 284.594 198.898 280.495 195.487Z" fill="#F9E0E5"/>
<path d="M256.885 224.553L256.754 196.615C256.749 195.632 255.949 194.84 254.967 194.845C253.985 194.849 253.192 195.649 253.197 196.631L253.329 224.57C253.333 225.552 254.133 226.345 255.115 226.34C256.098 226.336 256.89 225.536 256.885 224.553Z" fill="#55A4AB"/>
<path d="M252.469 222.794L252.355 198.704C252.351 197.722 251.551 196.929 250.569 196.934C249.586 196.938 248.794 197.738 248.799 198.72L248.912 222.811C248.917 223.793 249.717 224.585 250.699 224.581C251.681 224.576 252.473 223.776 252.469 222.794Z" fill="#55A4AB"/>
<path d="M169.381 196.828V224.156C169.381 229.065 171.331 233.773 174.802 237.244C178.274 240.715 182.981 242.665 187.89 242.665C192.799 242.665 197.507 240.715 200.978 237.244C204.449 233.773 206.399 229.065 206.399 224.156V196.828H169.381Z" fill="#FDA541"/>
<path d="M180.904 142.4V170.672C180.906 172.406 181.595 174.068 182.821 175.294C184.047 176.52 185.709 177.21 187.443 177.211H188.328C190.063 177.211 191.726 176.522 192.953 175.296C194.18 174.07 194.87 172.406 194.872 170.672V142.4C194.872 141.54 194.703 140.689 194.375 139.894C194.046 139.1 193.564 138.378 192.957 137.77C192.349 137.162 191.627 136.679 190.833 136.35C190.039 136.021 189.188 135.852 188.328 135.852H187.439C185.704 135.854 184.041 136.545 182.816 137.773C181.591 139.001 180.903 140.665 180.904 142.4Z" fill="#FFB2BF"/>
<path d="M215.364 192.127V193.139C215.363 196.721 213.94 200.156 211.407 202.688C208.874 205.221 205.439 206.644 201.858 206.646H172.87C169.288 206.644 165.854 205.221 163.322 202.688C160.79 200.155 159.367 196.72 159.367 193.139V192.127C159.367 188.45 160.092 184.809 161.499 181.412C162.906 178.015 164.968 174.929 167.568 172.329C170.168 169.729 173.254 167.666 176.651 166.259C180.048 164.852 183.689 164.128 187.366 164.128C191.043 164.128 194.683 164.852 198.08 166.259C201.477 167.666 204.564 169.729 207.164 172.329C209.764 174.929 211.826 178.015 213.233 181.412C214.64 184.809 215.364 188.45 215.364 192.127Z" fill="#FDA541"/>
<path d="M210.772 176.759C207.079 171.16 201.508 167.062 195.063 165.204C197.143 166.152 199.1 167.349 200.891 168.77C204.203 171.387 206.88 174.721 208.719 178.52C210.559 182.32 211.513 186.487 211.511 190.708V191.721C211.512 193.754 211.053 195.762 210.169 197.593C209.284 199.424 207.997 201.032 206.404 202.295C205.247 203.222 203.943 203.948 202.546 204.443V222.738C202.544 225.545 201.904 228.314 200.675 230.838C199.445 233.361 197.658 235.572 195.449 237.303C193.24 239.035 190.666 240.241 187.922 240.832C185.178 241.423 182.335 241.382 179.609 240.713C182.432 242.125 185.568 242.792 188.721 242.65C191.874 242.508 194.938 241.563 197.622 239.904C200.307 238.245 202.523 235.928 204.06 233.171C205.597 230.415 206.404 227.312 206.404 224.156V205.861C209.026 204.922 211.295 203.196 212.899 200.919C214.503 198.642 215.364 195.924 215.364 193.139V192.127C215.376 186.664 213.779 181.32 210.772 176.759Z" fill="#FFBA76"/>
<path d="M204.744 170.188C200.024 173.09 194.631 174.717 189.094 174.908C188.693 174.931 188.292 174.935 187.886 174.935C187.22 174.935 186.554 174.912 185.902 174.871C180.402 174.546 175.078 172.806 170.448 169.819C175.396 166.067 181.45 164.067 187.659 164.134C193.868 164.201 199.878 166.331 204.744 170.188Z" fill="#FFB2BF"/>
<path d="M207.512 135.851C211.335 135.851 214.434 132.752 214.434 128.929C214.434 125.106 211.335 122.007 207.512 122.007C203.689 122.007 200.59 125.106 200.59 128.929C200.59 132.752 203.689 135.851 207.512 135.851Z" fill="#F9A0B4"/>
<path d="M170.453 135.851C174.276 135.851 177.375 132.752 177.375 128.929C177.375 125.106 174.276 122.007 170.453 122.007C166.63 122.007 163.531 125.106 163.531 128.929C163.531 132.752 166.63 135.851 170.453 135.851Z" fill="#F9A0B4"/>
<path d="M220.544 281.151H158.528C157.53 281.152 156.543 280.938 155.635 280.523C154.727 280.108 153.919 279.503 153.266 278.748C152.612 277.993 152.129 277.106 151.849 276.148C151.569 275.189 151.499 274.182 151.643 273.194C154.415 254.599 155.628 221.976 189.441 221.976C222.856 221.976 225.273 255.387 227.444 273.363C227.562 274.339 227.471 275.329 227.179 276.268C226.886 277.207 226.397 278.073 225.745 278.809C225.093 279.545 224.293 280.134 223.396 280.538C222.5 280.942 221.528 281.151 220.544 281.151Z" fill="#55A4AB"/>
<path d="M220.549 281.147H208.812C209.795 281.147 210.767 280.939 211.664 280.536C212.561 280.133 213.363 279.544 214.015 278.809C214.668 278.073 215.157 277.207 215.45 276.268C215.743 275.33 215.833 274.339 215.715 273.363C213.672 256.491 211.424 226.016 183.513 222.346C185.479 222.099 187.459 221.977 189.441 221.981C222.861 221.981 225.273 255.387 227.444 273.363C227.562 274.338 227.471 275.328 227.179 276.266C226.886 277.204 226.398 278.07 225.747 278.805C225.095 279.541 224.295 280.13 223.399 280.534C222.503 280.937 221.532 281.146 220.549 281.147Z" fill="#6FBFC1"/>
<path d="M210.709 121.706C210.709 109.401 200.733 99.4263 188.428 99.4263C176.123 99.4263 166.148 109.401 166.148 121.706V180.822C166.148 193.127 176.123 203.102 188.428 203.102C200.733 203.102 210.709 193.127 210.709 180.822V121.706Z" fill="#652138"/>
<path d="M190.362 133.795H186.486C173.191 133.795 162.414 144.572 162.414 157.867V179.03C162.414 192.325 173.191 203.102 186.486 203.102H190.362C203.656 203.102 214.434 192.325 214.434 179.03V157.867C214.434 144.572 203.656 133.795 190.362 133.795Z" fill="#652138"/>
<path d="M210.708 145.008V121.706C210.71 118.779 210.135 115.88 209.016 113.175C207.898 110.47 206.257 108.012 204.188 105.941C202.119 103.871 199.662 102.228 196.958 101.107C194.254 99.9859 191.356 99.4086 188.428 99.408C187.607 99.4073 186.787 99.453 185.97 99.5448C191.423 100.151 196.46 102.747 200.118 106.836C203.775 110.926 205.796 116.22 205.793 121.706V145.008C208.233 148.858 209.525 153.323 209.518 157.881V179.044C209.516 185.164 207.183 191.054 202.992 195.515C198.801 199.976 193.069 202.673 186.96 203.057C186.632 203.034 186.303 203.002 185.98 202.966C185.656 203.002 185.327 203.034 184.995 203.057C184.507 203.089 184.019 203.102 183.522 203.102H190.362C193.523 203.103 196.654 202.481 199.575 201.271C202.496 200.062 205.151 198.289 207.386 196.053C209.622 193.818 211.396 191.164 212.606 188.243C213.816 185.322 214.439 182.192 214.439 179.03V157.867C214.443 153.313 213.149 148.853 210.708 145.008Z" fill="#7A314D"/>
<path d="M194.881 153.553H194.876C190.592 153.553 187.12 157.026 187.12 161.31V175.587C187.12 179.871 190.592 183.344 194.876 183.344H194.881C199.165 183.344 202.637 179.871 202.637 175.587V161.31C202.637 157.026 199.165 153.553 194.881 153.553Z" fill="#7A314D"/>
<path d="M189.445 120.22C196.111 120.22 201.516 114.816 201.516 108.149C201.516 101.483 196.111 96.0791 189.445 96.0791C182.779 96.0791 177.375 101.483 177.375 108.149C177.375 114.816 182.779 120.22 189.445 120.22Z" fill="#FDA541"/>
<path d="M189.445 116.896C197.894 116.896 204.744 110.046 204.744 101.597C204.744 93.1476 197.894 86.2981 189.445 86.2981C180.996 86.2981 174.146 93.1476 174.146 101.597C174.146 110.046 180.996 116.896 189.445 116.896Z" fill="#7A314D"/>
<path d="M204.744 101.597C204.743 105.655 203.13 109.546 200.26 112.415C197.39 115.284 193.499 116.896 189.441 116.896C188.823 116.898 188.206 116.858 187.594 116.777C191.303 116.326 194.719 114.533 197.197 111.736C199.675 108.939 201.043 105.331 201.043 101.595C201.043 97.8579 199.675 94.2504 197.197 91.4533C194.719 88.6562 191.303 86.8629 187.594 86.4121C188.206 86.3312 188.823 86.2916 189.441 86.2935C193.499 86.2947 197.391 87.9074 200.26 90.7771C203.13 93.6468 204.743 97.5386 204.744 101.597Z" fill="#8E4463"/>
<path d="M113.677 125.332C119.652 120.951 120.282 111.651 115.083 104.561C109.884 97.4711 100.826 95.275 94.8512 99.6561C88.8761 104.037 88.2467 113.337 93.4454 120.427C98.6441 127.517 107.702 129.713 113.677 125.332Z" fill="#FFB2BF"/>
<path d="M114.319 113.743L114.323 113.74C116.178 112.291 116.508 109.611 115.059 107.756L96.5505 84.0579C95.1012 82.2021 92.4218 81.8726 90.566 83.322L90.5624 83.3248C88.7066 84.7742 88.3771 87.4536 89.8265 89.3094L108.334 113.007C109.784 114.863 112.463 115.192 114.319 113.743Z" fill="#FFB2BF"/>
<path opacity="0.38" d="M273.944 213.558C276.367 210.643 276.711 206.934 274.712 205.272C272.713 203.611 269.129 204.627 266.706 207.542C264.284 210.457 263.94 214.167 265.939 215.828C267.938 217.489 271.522 216.473 273.944 213.558Z" fill="#F9E0E5"/>
<path d="M325.037 373.29L315.669 369.429C311.114 367.551 307.491 363.941 305.597 359.392C303.704 354.844 303.695 349.729 305.573 345.174L314.94 349.035C319.496 350.912 323.119 354.523 325.012 359.071C326.905 363.62 326.914 368.735 325.037 373.29Z" fill="#969ECC"/>
<path d="M357.504 382.073C357.402 390.827 353.852 399.187 347.626 405.34C341.4 411.494 333 414.945 324.246 414.945C315.492 414.945 307.091 411.494 300.865 405.34C294.639 399.187 291.09 390.827 290.987 382.073C290.986 380.792 291.06 379.511 291.211 378.238C291.377 376.772 291.643 375.319 292.004 373.888H356.487C356.851 375.318 357.116 376.772 357.281 378.238C357.433 379.511 357.508 380.792 357.504 382.073Z" fill="#969ECC"/>
<path d="M358.785 365.183H291.252C288.849 365.183 286.901 367.131 286.901 369.533V369.538C286.901 371.94 288.849 373.888 291.252 373.888H358.785C361.188 373.888 363.136 371.94 363.136 369.538V369.533C363.136 367.131 361.188 365.183 358.785 365.183Z" fill="#7986BF"/>
<path d="M357.281 378.238H291.211C291.377 376.772 291.642 375.319 292.004 373.888H356.487C356.851 375.318 357.116 376.772 357.281 378.238Z" fill="#7986BF"/>
</svg>
