<svg width="456" height="456" viewBox="0 0 456 456" fill="none" xmlns="http://www.w3.org/2000/svg">
<path d="M443.296 297.649V302.396C443.292 314.012 439.941 325.381 433.642 335.141C427.344 344.901 418.366 352.638 407.783 357.426C405.559 358.436 403.275 359.306 400.943 360.03C395.104 361.85 389.023 362.772 382.908 362.766H358.416C355.113 362.767 351.945 364.08 349.61 366.417C347.275 368.753 345.963 371.921 345.963 375.224V421.7H137.712V375.229C137.715 372.723 136.961 370.275 135.548 368.206C134.135 366.137 132.13 364.543 129.796 363.633C129.445 363.496 129.089 363.373 128.724 363.263C128.274 363.134 127.818 363.031 127.356 362.953C126.662 362.83 125.959 362.769 125.254 362.771H84.0408C83.3887 362.771 82.7458 362.771 82.0982 362.743C67.9903 362.32 54.4401 357.139 43.6483 348.042C42.2712 346.884 40.9473 345.668 39.6766 344.394C30.8908 335.623 24.9054 324.442 22.4781 312.267C20.0508 300.092 21.2908 287.47 26.0411 276C30.7915 264.531 38.8385 254.728 49.1632 247.835C59.488 240.941 71.6262 237.266 84.0408 237.275H132.4C134.564 237.311 136.713 236.916 138.723 236.113C140.733 235.31 142.563 234.115 144.106 232.597C145.649 231.08 146.875 229.27 147.711 227.274C148.548 225.278 148.979 223.135 148.979 220.971C148.979 218.806 148.548 216.664 147.711 214.668C146.875 212.671 145.649 210.862 144.106 209.344C142.563 207.827 140.733 206.631 138.723 205.828C136.713 205.025 134.564 204.63 132.4 204.666H50.8303C43.2893 204.668 35.9173 202.432 29.6469 198.243C23.3766 194.053 18.4897 188.098 15.6043 181.131C12.7189 174.164 11.9647 166.497 13.4371 159.102C14.9095 151.706 18.5424 144.912 23.8762 139.582C24.0084 139.449 24.1406 139.317 24.2774 139.189C31.3797 132.265 40.9112 128.397 50.8303 128.414C58.6733 128.421 66.2375 125.506 72.048 120.238C72.5359 119.782 73.0056 119.326 73.4662 118.87C78.7292 113.489 81.8889 106.4 82.3718 98.8881C82.4174 98.2041 82.4402 97.5201 82.4402 96.8179V64.6243C82.4396 62.9885 82.7613 61.3686 83.3869 59.8572C84.0125 58.3458 84.9297 56.9724 86.0861 55.8155C87.2426 54.6586 88.6156 53.7409 90.1269 53.1148C91.6381 52.4886 93.2578 52.1664 94.8936 52.1664H385.17C393.37 52.167 401.352 54.8113 407.931 59.707C414.51 64.6028 419.335 71.489 421.691 79.344C422.749 82.8959 423.289 86.5818 423.296 90.288C423.296 91.6104 423.227 92.9145 423.1 94.2005C422.938 95.7759 422.679 97.3399 422.324 98.8836C420.378 107.279 415.646 114.768 408.899 120.129C402.152 125.491 393.788 128.41 385.17 128.41H354.162C351.251 128.409 348.37 128.982 345.681 130.095C342.992 131.208 340.549 132.84 338.491 134.898C336.433 136.955 334.801 139.398 333.687 142.086C332.573 144.775 332 147.657 332 150.567C332.001 156.443 334.337 162.079 338.493 166.234C342.649 170.389 348.285 172.724 354.162 172.724C354.567 172.724 354.969 172.724 355.37 172.751C362.778 173.062 369.78 176.225 374.91 181.579C380.04 186.934 382.901 194.064 382.894 201.479V221.087C382.892 225.397 384.281 229.593 386.854 233.05C389.427 236.508 393.047 239.044 397.176 240.28C400.797 241.357 404.343 242.67 407.792 244.211C417.368 248.506 427.678 255.374 434.696 266.29C437.282 270.305 439.297 274.661 440.683 279.232C442.465 285.207 443.346 291.414 443.296 297.649Z" fill="#F3F4FE"/>
<path d="M37.6838 429.73H63.4296C65.6458 429.73 67.4424 427.933 67.4424 425.717V425.712C67.4424 423.496 65.6458 421.7 63.4296 421.7H37.6838C35.4676 421.7 33.671 423.496 33.671 425.712V425.717C33.671 427.933 35.4676 429.73 37.6838 429.73Z" fill="#D2D6FA"/>
<path d="M74.7247 429.73H436.032C438.248 429.73 440.045 427.933 440.045 425.717V425.712C440.045 423.496 438.248 421.7 436.032 421.7H74.7247C72.5085 421.7 70.7119 423.496 70.7119 425.712V425.717C70.7119 427.933 72.5085 429.73 74.7247 429.73Z" fill="#D2D6FA"/>
<path d="M237.799 114.511V421.7H137.712V375.229C137.715 372.723 136.961 370.275 135.548 368.206C134.135 366.137 132.13 364.543 129.796 363.633C129.445 363.496 129.089 363.373 128.724 363.263C128.274 363.134 127.818 363.031 127.356 362.953C126.662 362.83 125.959 362.769 125.254 362.771H120.84V237.275H132.404C134.568 237.311 136.718 236.916 138.728 236.113C140.737 235.31 142.567 234.115 144.11 232.597C145.654 231.08 146.879 229.27 147.716 227.274C148.553 225.278 148.983 223.135 148.983 220.971C148.983 218.806 148.553 216.664 147.716 214.668C146.879 212.671 145.654 210.862 144.11 209.344C142.567 207.827 140.737 206.632 138.728 205.828C136.718 205.025 134.568 204.63 132.404 204.666H120.84V114.511C120.841 113.011 121.438 111.572 122.499 110.512C123.56 109.452 124.999 108.856 126.499 108.856H232.14C233.641 108.856 235.079 109.452 236.14 110.512C237.201 111.572 237.798 113.011 237.799 114.511Z" fill="#D2D6FA"/>
<path d="M127.343 237.275V362.976C127.804 363.053 128.261 363.157 128.711 363.286V237.275H127.343ZM127.343 121.232V204.68H128.711V122.6C128.711 122.29 128.772 121.982 128.891 121.695C129.01 121.408 129.184 121.148 129.404 120.928C129.624 120.709 129.885 120.535 130.172 120.417C130.459 120.298 130.767 120.237 131.077 120.238H227.544C227.855 120.237 228.162 120.298 228.449 120.417C228.736 120.535 228.997 120.709 229.217 120.928C229.437 121.148 229.611 121.408 229.73 121.695C229.849 121.982 229.911 122.29 229.911 122.6V421.016H137.712V421.7H231.297V121.232C231.297 120.922 231.236 120.614 231.117 120.327C230.998 120.04 230.823 119.78 230.603 119.56C230.384 119.341 230.123 119.167 229.836 119.049C229.548 118.93 229.241 118.869 228.93 118.87H129.709C129.399 118.869 129.091 118.93 128.804 119.049C128.517 119.167 128.256 119.341 128.036 119.56C127.816 119.78 127.642 120.04 127.523 120.327C127.404 120.614 127.343 120.922 127.343 121.232Z" fill="#B7BFED"/>
<path d="M147.972 139.189H211.032V144.342H147.972V139.189Z" fill="#B7BFED"/>
<path d="M147.972 155.51H211.032V160.662H147.972V155.51Z" fill="#B7BFED"/>
<path d="M147.972 171.83H211.032V176.983H147.972V171.83Z" fill="#B7BFED"/>
<path d="M144.921 258.52V291.11H139.769V258.52H144.921Z" fill="#B7BFED"/>
<path d="M109.043 237.275V362.771H84.0408C83.3887 362.771 82.7458 362.771 82.0982 362.743C67.9903 362.32 54.4401 357.139 43.6483 348.042C42.2712 346.884 40.9473 345.668 39.6766 344.394C30.8908 335.623 24.9054 324.442 22.4781 312.267C20.0508 300.092 21.2908 287.47 26.0411 276C30.7915 264.531 38.8385 254.728 49.1632 247.835C59.488 240.941 71.6262 237.266 84.0408 237.275H109.043Z" fill="#D2D6FA"/>
<path d="M109.043 114.511V204.666H50.8303C43.2893 204.668 35.9173 202.432 29.6469 198.243C23.3766 194.053 18.4897 188.098 15.6043 181.131C12.7189 174.164 11.9647 166.497 13.4371 159.102C14.9095 151.706 18.5424 144.913 23.8762 139.582C24.0084 139.449 24.1406 139.317 24.2774 139.189C31.3797 132.265 40.9112 128.397 50.8303 128.414C58.6733 128.421 66.2375 125.506 72.048 120.238C72.5359 119.782 73.0056 119.326 73.4662 118.87C76.2867 115.979 78.5266 112.573 80.0645 108.838H103.393C104.137 108.839 104.873 108.987 105.559 109.273C106.246 109.559 106.869 109.977 107.394 110.504C107.919 111.03 108.334 111.655 108.617 112.343C108.9 113.031 109.045 113.767 109.043 114.511Z" fill="#D2D6FA"/>
<path d="M73.457 118.87C73.001 119.326 72.545 119.782 72.0389 120.238H98.8015C99.1121 120.237 99.4197 120.298 99.7068 120.417C99.994 120.535 100.255 120.709 100.475 120.928C100.695 121.148 100.869 121.408 100.988 121.695C101.107 121.982 101.168 122.29 101.168 122.6V204.68H102.536V121.232C102.536 120.922 102.475 120.614 102.356 120.327C102.237 120.04 102.063 119.78 101.843 119.56C101.623 119.341 101.362 119.167 101.075 119.049C100.788 118.93 100.48 118.869 100.17 118.87H73.457ZM101.168 237.275V362.771H102.536V237.275H101.168Z" fill="#B7BFED"/>
<path d="M82.2715 139.189V144.342H19.836C21.0498 142.647 22.4011 141.055 23.8762 139.582C24.0084 139.449 24.1406 139.317 24.2774 139.189H82.2715Z" fill="#B7BFED"/>
<path d="M19.2113 155.51H82.2715V160.662H19.2113V155.51Z" fill="#B7BFED"/>
<path d="M19.2113 171.83H82.2715V176.983H19.2113V171.83Z" fill="#B7BFED"/>
<path d="M423.1 94.205C422.938 95.7805 422.679 97.3445 422.324 98.8881H82.3627C82.4083 98.2041 82.4311 97.5201 82.4311 96.8179V94.205H423.1Z" fill="#B7BFED"/>
<path d="M422.945 85.1443H82.4311V71.8428H418.54C419.854 74.2239 420.91 76.7385 421.691 79.344C422.262 81.241 422.681 83.1806 422.945 85.1443Z" fill="#B7BFED"/>
<path d="M221.616 204.192H227.777V240.818H221.616V204.192Z" fill="#604970"/>
<path d="M224.694 245.419C228.018 245.419 230.713 242.724 230.713 239.4C230.713 236.076 228.018 233.381 224.694 233.381C221.37 233.381 218.675 236.076 218.675 239.4C218.675 242.724 221.37 245.419 224.694 245.419Z" fill="#836B96"/>
<path d="M168.518 381.601L182.328 365.855L201.51 382.677L187.7 398.423L168.518 381.601Z" fill="#F29495"/>
<path d="M174.208 375.111L182.329 365.851L201.51 382.673L193.389 391.933L174.208 375.111Z" fill="#E5888C"/>
<path d="M171.023 379.748L183.13 388.808C186.496 387.858 190.079 388.02 193.344 389.273C196.61 390.525 199.383 392.8 201.25 395.758C203.117 398.716 203.978 402.198 203.703 405.685C203.429 409.172 202.034 412.476 199.728 415.106L175.341 393.719L163.189 383.04L165.587 380.304C166.257 379.544 167.188 379.064 168.196 378.961C169.204 378.858 170.213 379.139 171.023 379.748Z" fill="#604970"/>
<path d="M196.928 391.18C199.654 394.123 201.192 397.971 201.247 401.982C201.302 405.993 199.869 409.882 197.225 412.899L199.746 415.106C201.151 413.504 202.226 411.641 202.91 409.624C203.595 407.607 203.875 405.474 203.735 403.349C203.596 401.223 203.039 399.146 202.096 397.235C201.153 395.325 199.843 393.619 198.241 392.215C197.823 391.845 197.385 391.5 196.928 391.18Z" fill="#836B96"/>
<path d="M159.34 382.835C158.936 383.291 158.714 383.879 158.714 384.488C158.714 385.097 158.936 385.685 159.34 386.141C159.41 386.225 159.486 386.305 159.568 386.378L195.934 418.271C196.035 418.359 196.142 418.442 196.253 418.517C197.022 419.056 197.962 419.293 198.894 419.181C199.826 419.07 200.684 418.618 201.304 417.912C201.923 417.206 202.259 416.297 202.249 415.358C202.238 414.419 201.881 413.518 201.246 412.826C201.107 412.676 200.954 412.539 200.79 412.415L199.327 411.262L195.168 407.983L193.221 406.451L189.048 403.172L187.106 401.645L182.929 398.362L180.986 396.834L176.814 393.551L174.867 392.023L170.694 388.74L168.752 387.212L164.57 383.952L162.792 382.52C162.741 382.481 162.688 382.444 162.632 382.411C162.128 382.069 161.517 381.923 160.913 382.002C160.309 382.08 159.754 382.376 159.354 382.835H159.34Z" fill="#3C1C39"/>
<path d="M199.34 411.262L194.388 416.907L196.244 418.535L201.26 412.826C201.121 412.676 200.968 412.539 200.804 412.416L199.34 411.262Z" fill="#604970"/>
<path d="M193.216 406.451L188.542 411.782L190.403 413.414L195.163 407.983L193.216 406.451Z" fill="#604970"/>
<path d="M187.101 401.645L182.701 406.661L184.561 408.289L189.044 403.172L187.101 401.645Z" fill="#604970"/>
<path d="M180.982 396.834L176.86 401.535L178.716 403.163L182.924 398.362L180.982 396.834Z" fill="#604970"/>
<path d="M174.862 392.023L171.014 396.41L172.874 398.038L176.809 393.551L174.862 392.023Z" fill="#604970"/>
<path d="M168.747 387.212L165.172 391.289L167.028 392.917L170.69 388.74L168.747 387.212Z" fill="#604970"/>
<path d="M162.619 382.411L159.326 386.164L161.187 387.791L164.57 383.952L162.792 382.52C162.737 382.48 162.679 382.444 162.619 382.411Z" fill="#604970"/>
<path d="M277.216 275.609C278.843 277.04 280.171 278.778 281.126 280.723C282.081 282.668 282.643 284.782 282.781 286.944C282.919 289.106 282.629 291.274 281.929 293.325C281.228 295.375 280.131 297.267 278.699 298.894L200.233 388.06C199.921 388.414 199.481 388.631 199.009 388.661C198.538 388.691 198.074 388.532 197.719 388.22L175.622 368.775C175.268 368.463 175.052 368.023 175.021 367.551C174.991 367.08 175.15 366.616 175.462 366.261L253.928 277.095C256.818 273.811 260.895 271.809 265.261 271.53C269.627 271.252 273.925 272.719 277.21 275.609L277.216 275.609Z" fill="#3C1C39"/>
<path d="M267.327 187.453L299.926 192.757L283.783 291.991C283.08 296.313 280.688 300.179 277.135 302.738C273.581 305.298 269.156 306.34 264.834 305.637C260.512 304.934 256.646 302.543 254.086 298.989C251.527 295.435 250.485 291.011 251.188 286.688L267.331 187.454L267.327 187.453Z" fill="#3C1C39"/>
<path d="M271.776 188.178L257.863 273.637L256.983 279.022C256.624 281.221 255.654 283.276 254.184 284.95L250.85 288.753L178.483 371.289L176.285 369.36C176.108 369.206 175.964 369.018 175.86 368.808C175.756 368.598 175.695 368.37 175.679 368.136C175.664 367.902 175.695 367.667 175.771 367.445C175.847 367.223 175.966 367.019 176.121 366.843L252.273 280.007L267.321 187.439L271.776 188.178Z" fill="#EFCBD1"/>
<path d="M209.518 165.268H230.736V202.92H209.518C206.457 202.92 203.522 201.704 201.357 199.54C199.193 197.375 197.977 194.44 197.977 191.379V176.787C197.983 173.73 199.202 170.8 201.365 168.64C203.529 166.481 206.461 165.268 209.518 165.268Z" fill="#836B96"/>
<path d="M212.802 202.92H209.518C206.457 202.92 203.522 201.704 201.357 199.54C199.193 197.375 197.977 194.44 197.977 191.379V176.787C197.977 173.726 199.193 170.79 201.357 168.626C203.522 166.461 206.457 165.245 209.518 165.245H212.802C209.741 165.245 206.805 166.461 204.641 168.626C202.476 170.79 201.26 173.726 201.26 176.787V191.379C201.26 194.44 202.476 197.375 204.641 199.54C206.805 201.704 209.741 202.92 212.802 202.92Z" fill="#C8B3DD"/>
<path d="M231.248 114.671L237.701 116.112L229.491 152.872L208.805 148.252C205.818 147.585 203.218 145.759 201.577 143.174C199.937 140.59 199.39 137.46 200.057 134.473C201.569 127.712 205.703 121.827 211.552 118.114C217.401 114.401 224.486 113.162 231.248 114.671Z" fill="#836B96"/>
<path d="M204.206 135.222C203.538 138.209 204.085 141.339 205.725 143.924C207.365 146.508 209.965 148.335 212.952 149.003L229.532 152.705L229.5 152.865L208.812 148.246C207.332 147.916 205.933 147.298 204.692 146.427C203.452 145.557 202.396 144.45 201.583 143.17C200.771 141.891 200.219 140.464 199.958 138.971C199.698 137.478 199.734 135.949 200.065 134.47C200.812 131.121 202.212 127.952 204.184 125.144C206.156 122.336 208.661 119.944 211.558 118.105C214.454 116.265 217.684 115.015 221.064 114.424C224.444 113.833 227.907 113.914 231.256 114.661L232.528 114.944C226.14 114.249 219.719 115.933 214.494 119.674C209.269 123.415 205.606 128.95 204.206 135.222Z" fill="#C8B3DD"/>
<path d="M252.168 101.647H262.537C265.815 101.647 268.958 102.949 271.276 105.266C273.593 107.584 274.895 110.727 274.895 114.005V200.143C274.895 203.42 273.593 206.564 271.276 208.881C268.958 211.199 265.815 212.501 262.537 212.501H217.32C214.043 212.501 210.9 211.199 208.582 208.881C206.265 206.564 204.963 203.42 204.963 200.143V148.857C204.962 142.657 206.183 136.518 208.555 130.791C210.927 125.063 214.404 119.859 218.787 115.475C223.171 111.091 228.375 107.613 234.102 105.241C239.83 102.868 245.969 101.647 252.168 101.647Z" fill="#604970"/>
<path d="M257.289 101.647H263.249C266.338 101.647 269.3 102.874 271.484 105.058C273.668 107.242 274.895 110.204 274.895 113.293V200.845C274.896 202.375 274.595 203.89 274.01 205.303C273.425 206.717 272.567 208.001 271.486 209.083C270.404 210.165 269.12 211.023 267.707 211.609C266.293 212.195 264.779 212.496 263.249 212.496H224.457C221.368 212.496 218.406 211.269 216.222 209.085C214.038 206.901 212.811 203.939 212.811 200.85V146.13C212.81 140.288 213.96 134.504 216.195 129.107C218.43 123.71 221.706 118.807 225.836 114.676C229.967 110.545 234.87 107.269 240.267 105.033C245.663 102.798 251.448 101.647 257.289 101.647Z" fill="#503B60"/>
<path d="M168.264 377.24L163.759 382.379L185.241 401.221L192.637 392.789L173.358 375.881C172.14 374.832 169.86 375.42 168.264 377.24Z" fill="#604970"/>
<path d="M243.483 196.278L275.909 189.998L295.023 288.703C295.856 293.003 294.947 297.457 292.495 301.086C290.044 304.714 286.251 307.221 281.952 308.053C277.653 308.886 273.199 307.977 269.57 305.525C265.941 303.074 263.435 299.281 262.602 294.982L243.487 196.277L243.483 196.278Z" fill="#915E8C"/>
<path d="M384.083 139.57L374.603 139.949C369.662 140.146 365.817 144.312 366.014 149.253L366.014 149.258C366.212 154.199 370.378 158.044 375.319 157.847L384.799 157.468C389.74 157.27 393.586 153.104 393.388 148.163L393.388 148.158C393.19 143.217 389.024 139.372 384.083 139.57Z" fill="#F29495"/>
<path d="M359.548 114.514L352.728 125.828C350.709 129.178 351.788 133.53 355.137 135.549L355.141 135.552C358.491 137.571 362.843 136.492 364.862 133.142L371.682 121.828C373.701 118.479 372.622 114.127 369.273 112.108L369.269 112.105C365.919 110.086 361.567 111.165 359.548 114.514Z" fill="#F29495"/>
<path d="M383.205 122.616L373.308 123.003C366.397 123.274 361.015 129.095 361.285 136.005C361.555 142.915 367.376 148.298 374.287 148.028L384.183 147.641C391.094 147.37 396.476 141.549 396.206 134.639C395.936 127.729 390.115 122.346 383.205 122.616Z" fill="#F29495"/>
<path d="M302.98 112.791C297.429 106.633 287.938 106.14 281.78 111.69C275.623 117.24 275.131 126.731 280.682 132.889L304.7 159.536C310.251 165.694 319.742 166.187 325.899 160.638C332.057 155.088 332.548 145.596 326.998 139.438L302.98 112.791Z" fill="#F29495"/>
<path d="M316.846 131.512C306.756 133.681 300.335 143.618 302.503 153.708C304.672 163.798 314.61 170.22 324.7 168.051L369.826 158.352C379.916 156.184 386.337 146.246 384.168 136.156C382 126.066 372.062 119.644 361.972 121.813L316.846 131.512Z" fill="#F29495"/>
<path d="M392.972 148.738C392.971 151.05 392.076 153.271 390.473 154.938C388.871 156.604 386.686 157.585 384.376 157.676L374.9 158.045C373.966 158.081 373.032 157.97 372.132 157.717C371.387 157.979 370.625 158.193 369.852 158.36L324.731 168.05C321.029 168.847 317.171 168.501 313.67 167.057C310.168 165.613 307.188 163.14 305.123 159.965C304.973 159.819 304.831 159.668 304.695 159.509L280.673 132.865C278.979 130.987 277.788 128.713 277.209 126.252C276.631 123.791 276.683 121.223 277.362 118.788C277.981 121.058 279.126 123.15 280.704 124.894L302.136 148.674L304.722 151.538C304.868 151.698 305.014 151.853 305.178 151.994C307.242 155.162 310.219 157.63 313.714 159.072C317.21 160.514 321.061 160.862 324.759 160.07L326.902 159.614L365.872 151.242L369.884 150.375C370.657 150.209 371.419 149.994 372.164 149.732C373.064 149.992 374.001 150.103 374.937 150.06L381.891 149.791L384.408 149.691C386.007 149.631 387.56 149.142 388.906 148.277C390.252 147.411 391.341 146.201 392.06 144.771C392.614 145.894 392.924 147.122 392.972 148.373V148.738Z" fill="#E58389"/>
<path d="M293.732 142.14C304.421 142.14 313.085 133.475 313.085 122.787C313.085 112.099 304.421 103.434 293.732 103.434C283.044 103.434 274.38 112.099 274.38 122.787C274.38 133.475 283.044 142.14 293.732 142.14Z" fill="#FFB41F"/>
<path d="M261.881 80.101H281.493V102.978H261.881V80.101Z" fill="#F5B5A9"/>
<path d="M271.689 226.358C268.11 226.358 264.566 225.653 261.26 224.284C257.953 222.914 254.949 220.906 252.419 218.375C249.888 215.844 247.881 212.84 246.512 209.533C245.143 206.226 244.438 202.682 244.439 199.103V189.345H298.935V199.103C298.936 202.682 298.232 206.226 296.863 209.532C295.494 212.838 293.487 215.843 290.957 218.374C288.427 220.905 285.423 222.912 282.117 224.282C278.811 225.652 275.268 226.358 271.689 226.358Z" fill="#915E8C"/>
<path d="M285.702 393.191L310.75 388.34L314.732 408.902L289.684 413.753L285.702 393.191Z" fill="#F29495"/>
<path d="M285.967 410.596L287.526 418.644L315.584 413.209L313.345 401.654L288.794 406.41C288.333 406.499 287.895 406.678 287.503 406.937C287.112 407.195 286.775 407.528 286.513 407.917C286.25 408.306 286.067 408.743 285.973 409.202C285.879 409.662 285.877 410.136 285.967 410.596Z" fill="#604970"/>
<path d="M285.705 393.189L310.752 388.339L313.094 400.43L288.046 405.281L285.705 393.189Z" fill="#E5888C"/>
<path d="M289.765 410.623L304.357 406.606C305.665 403.359 307.988 400.623 310.98 398.806C313.972 396.989 317.471 396.189 320.955 396.525C324.439 396.861 327.721 398.315 330.31 400.671C332.899 403.026 334.656 406.156 335.32 409.593L303.473 415.763L287.586 418.841L286.892 415.27C286.699 414.276 286.888 413.246 287.42 412.385C287.953 411.524 288.79 410.895 289.765 410.623Z" fill="#604970"/>
<path d="M314.676 397.176C318.67 396.828 322.651 397.971 325.851 400.386C329.051 402.8 331.243 406.314 332.004 410.25L335.292 409.611C334.887 407.52 334.074 405.528 332.9 403.751C331.725 401.974 330.212 400.445 328.447 399.253C326.681 398.06 324.698 397.227 322.611 396.801C320.524 396.375 318.373 396.365 316.282 396.77C315.74 396.878 315.204 397.013 314.676 397.176Z" fill="#836B96"/>
<path d="M285.05 421.75C285.165 422.348 285.495 422.884 285.977 423.256C286.458 423.629 287.06 423.813 287.668 423.774C287.776 423.77 287.885 423.756 287.991 423.733L335.479 414.536C335.612 414.51 335.743 414.477 335.871 414.436C336.769 414.159 337.532 413.56 338.015 412.755C338.498 411.95 338.666 410.994 338.488 410.072C338.309 409.15 337.796 408.327 337.047 407.761C336.298 407.194 335.366 406.924 334.43 407.003C334.229 407.023 334.03 407.056 333.833 407.103L332.009 407.559L326.856 408.85L324.453 409.452L319.305 410.737L316.92 411.335L311.767 412.621L309.369 413.223L304.22 414.504L301.822 415.106L296.674 416.392L294.275 416.994L289.104 418.284L286.888 418.841C286.826 418.854 286.765 418.872 286.705 418.895C286.159 419.078 285.691 419.441 285.379 419.926C285.039 420.469 284.922 421.122 285.05 421.75Z" fill="#3C1C39"/>
<path d="M332.027 407.555L333.455 414.928L335.876 414.472L334.43 407.016C334.229 407.037 334.03 407.07 333.833 407.117L332.027 407.555Z" fill="#604970"/>
<path d="M324.471 409.447L325.821 416.406L328.247 415.936L326.874 408.845L324.471 409.447Z" fill="#604970"/>
<path d="M316.925 411.335L318.192 417.883L320.618 417.413L319.323 410.733L316.925 411.335Z" fill="#604970"/>
<path d="M309.373 413.223L310.563 419.36L312.985 418.895L311.772 412.621L309.373 413.223Z" fill="#604970"/>
<path d="M301.822 415.11L302.934 420.842L305.356 420.373L304.22 414.509L301.822 415.11Z" fill="#604970"/>
<path d="M294.275 416.998L295.306 422.32L297.727 421.85L296.674 416.396L294.275 416.998Z" fill="#604970"/>
<path d="M286.724 418.895L287.672 423.797L290.098 423.341L289.104 418.284L286.888 418.841C286.832 418.855 286.777 418.873 286.724 418.895Z" fill="#604970"/>
<path d="M275.216 273.302C277.345 272.889 279.535 272.899 281.66 273.333C283.785 273.766 285.804 274.614 287.601 275.828C289.398 277.041 290.939 278.597 292.135 280.407C293.331 282.216 294.158 284.243 294.571 286.372L315.108 392.424C315.198 392.888 315.1 393.369 314.835 393.761C314.57 394.152 314.161 394.423 313.697 394.513L284.767 400.115C284.303 400.205 283.822 400.107 283.43 399.842C283.039 399.578 282.768 399.168 282.678 398.704L262.141 292.652C261.308 288.353 262.217 283.899 264.669 280.27C267.12 276.641 270.913 274.135 275.212 273.302L275.216 273.302Z" fill="#915E8C"/>
<path d="M298.935 189.345H244.439V141.191H298.935V189.345Z" fill="#FFD41D"/>
<path d="M242.771 192.624L247.096 191.786L287.343 399.614L284.764 400.113C284.3 400.203 283.819 400.105 283.427 399.84C283.035 399.576 282.765 399.166 282.675 398.702L242.767 192.625L242.771 192.624Z" fill="#F4DBDE"/>
<path d="M229.569 131.15C229.569 138.359 232.238 145.313 237.061 150.672C241.694 155.724 248.087 158.852 255.15 158.852H284.836C299.022 158.852 311.006 146.18 310.892 130.69C310.892 123.479 308.223 116.523 303.4 111.164C298.771 106.111 292.374 102.983 285.31 102.983H255.624C241.438 102.983 229.455 115.655 229.569 131.15Z" fill="#FFD41D"/>
<path d="M261.881 80.101V86.941C265.67 91.793 270.963 95.2494 276.929 96.7678C278.424 97.152 279.95 97.4067 281.489 97.5293V80.101H261.881Z" fill="#F29495"/>
<path d="M274.006 159.103H283.459C290.625 159.118 297.524 156.378 302.727 151.45C307.93 146.521 311.04 139.782 311.414 132.625C311.787 125.468 309.396 118.441 304.734 112.998C300.073 107.555 293.497 104.111 286.368 103.38C285.575 103.298 284.777 103.252 283.965 103.234H274.024C277.421 103.231 280.79 103.849 283.965 105.058C284.786 105.372 285.584 105.719 286.368 106.102C289.112 107.461 291.617 109.259 293.783 111.424C297.69 115.331 300.351 120.309 301.429 125.728C302.507 131.148 301.953 136.765 299.838 141.87C297.723 146.975 294.142 151.338 289.547 154.407C284.952 157.476 279.55 159.113 274.024 159.112L274.006 159.103Z" fill="#F9E27D"/>
<path d="M257.034 101.724V110.685H286.368V101.724C286.367 100.429 285.859 99.1847 284.952 98.2591C284.045 97.3334 282.812 96.7998 281.516 96.7723H261.908C260.608 96.7927 259.368 97.3234 258.456 98.2499C257.544 99.1764 257.033 100.424 257.034 101.724Z" fill="#FFD41D"/>
<path d="M279.099 96.7723C280.394 96.7998 281.627 97.3336 282.533 98.2594C283.44 99.1851 283.947 100.429 283.947 101.724V105.049C284.767 105.363 285.565 105.71 286.35 106.093V101.724C286.349 100.429 285.841 99.1847 284.934 98.2591C284.027 97.3334 282.793 96.7998 281.498 96.7723H279.099Z" fill="#F9E27D"/>
<path d="M281.58 92.8872C277.933 93.1032 274.28 92.5988 270.828 91.4028C267.377 90.2068 264.194 88.3426 261.463 85.9167C258.732 83.4908 256.506 80.5508 254.911 77.2643C253.316 73.9779 252.384 70.4095 252.168 66.763L251.461 54.6242C251.278 51.6882 251.965 48.7633 253.436 46.2156V46.1837C255.152 43.2192 257.822 40.9238 261.01 39.672C262.504 39.08 264.084 38.732 265.688 38.6414L278.114 37.9164L281.129 37.734C282.955 37.626 284.784 37.8789 286.513 38.4783C288.241 39.0776 289.835 40.0117 291.202 41.227C292.569 42.4423 293.684 43.9152 294.482 45.5614C295.28 47.2076 295.746 48.9949 295.853 50.8212L296.04 54.0132L296.104 55.0848L296.277 57.9986L296.391 59.9731L297.303 75.24C297.429 77.4311 297.123 79.6257 296.401 81.6984C295.679 83.7711 294.556 85.6813 293.096 87.32C291.636 88.9587 289.868 90.2938 287.892 91.249C285.916 92.2042 283.771 92.7609 281.58 92.8872Z" fill="#F5B5A9"/>
<path d="M296.4 59.9412C295.981 59.928 295.564 59.8853 295.151 59.8135L262.702 54.6014C260.508 54.2512 258.465 53.268 256.823 51.7726C255.181 50.2771 254.012 48.3346 253.458 46.1837C255.169 43.2231 257.83 40.9282 261.01 39.672C262.504 39.08 264.084 38.732 265.688 38.6414L278.114 37.9164L281.129 37.734C282.955 37.626 284.784 37.8789 286.513 38.4783C288.241 39.0776 289.835 40.0117 291.202 41.227C292.569 42.4423 293.684 43.9152 294.482 45.5614C295.28 47.2076 295.746 48.9949 295.853 50.8212L296.04 54.0132L296.104 55.0848L296.277 57.9986L296.4 59.9412Z" fill="#F29495"/>
<path d="M274.38 69.1615C275.443 69.1615 276.304 68.3 276.304 67.2372C276.304 66.1744 275.443 65.3129 274.38 65.3129C273.317 65.3129 272.455 66.1744 272.455 67.2372C272.455 68.3 273.317 69.1615 274.38 69.1615Z" fill="#3C1C39"/>
<path d="M287.987 69.1615C289.05 69.1615 289.911 68.3 289.911 67.2372C289.911 66.1744 289.05 65.3129 287.987 65.3129C286.924 65.3129 286.062 66.1744 286.062 67.2372C286.062 68.3 286.924 69.1615 287.987 69.1615Z" fill="#3C1C39"/>
<path d="M286.55 75.1306C286.497 75.8794 286.296 76.6102 285.958 77.2809C285.621 77.9516 285.154 78.5489 284.585 79.0385C284.444 79.157 284.302 79.271 284.129 79.3805C283.047 80.1482 281.731 80.5128 280.408 80.411H280.176C278.746 80.3036 277.409 79.6634 276.43 78.617C275.45 77.5706 274.899 76.1945 274.886 74.7612C274.886 74.6062 274.886 74.4466 274.886 74.3052C274.909 74.0122 275.046 73.7401 275.269 73.5482C275.378 73.4527 275.506 73.3801 275.643 73.3347C275.781 73.2892 275.927 73.2719 276.072 73.2838L285.492 73.9769C285.638 73.9827 285.781 74.0173 285.913 74.0785C286.045 74.1397 286.163 74.2265 286.261 74.3337C286.36 74.4409 286.436 74.5665 286.485 74.7033C286.535 74.84 286.557 74.9852 286.55 75.1306Z" fill="#962F4A"/>
<path d="M280.381 79.5264C280.359 79.821 280.309 80.1127 280.23 80.3974H280.198C278.769 80.29 277.432 79.6497 276.452 78.6033C275.473 77.557 274.922 76.1809 274.909 74.7475C275.598 74.6052 276.31 74.6242 276.991 74.803C277.671 74.9819 278.301 75.3158 278.831 75.7786C279.361 76.2414 279.777 76.8206 280.045 77.4708C280.314 78.1209 280.429 78.8245 280.381 79.5264Z" fill="#E1617F"/>
<path d="M285.319 73.9313C285.192 75.0485 283.404 75.8146 281.284 75.6595C279.163 75.5045 277.503 74.4785 277.544 73.3795L285.319 73.9313Z" fill="white"/>
<path d="M247.134 142.14C257.822 142.14 266.486 133.475 266.486 122.787C266.486 112.099 257.822 103.434 247.134 103.434C236.446 103.434 227.781 112.099 227.781 122.787C227.781 133.475 236.446 142.14 247.134 142.14Z" fill="#FFB41F"/>
<path d="M291.411 31.9063H258.552C252.246 31.9063 247.134 37.0184 247.134 43.3246C247.134 49.6307 252.246 54.7428 258.552 54.7428H291.411C297.717 54.7428 302.83 49.6307 302.83 43.3246C302.83 37.0184 297.717 31.9063 291.411 31.9063Z" fill="#50274C"/>
<path d="M285.306 26.2747H261.498C255.192 26.2747 250.08 31.3868 250.08 37.693C250.08 43.9991 255.192 49.1112 261.498 49.1112H285.306C291.612 49.1112 296.724 43.9991 296.724 37.693C296.724 31.3868 291.612 26.2747 285.306 26.2747Z" fill="#50274C"/>
<path d="M302.825 43.32C302.818 46.3452 301.611 49.2441 299.47 51.3811C297.329 53.5181 294.427 54.7188 291.402 54.72H284.973C287.647 54.7454 290.246 53.8295 292.313 52.1326C294.381 50.4357 295.786 48.0659 296.283 45.4376C296.779 42.8094 296.336 40.0902 295.03 37.7558C293.725 35.4214 291.64 33.6204 289.14 32.6679C289.011 32.3978 288.868 32.1345 288.712 31.879C287.705 30.1634 286.268 28.741 284.541 27.7531C282.815 26.7651 280.86 26.2461 278.871 26.2474H285.301C287.444 26.247 289.543 26.8492 291.36 27.9854C293.177 29.1215 294.637 30.7457 295.575 32.6724C297.716 33.5092 299.554 34.9738 300.848 36.874C302.142 38.7742 302.831 41.0211 302.825 43.32Z" fill="#684568"/>
<path d="M248.885 51.8381H258.461V62.5085C258.461 63.6762 258.231 64.8325 257.784 65.9113C257.337 66.9901 256.682 67.9704 255.856 68.7961C255.031 69.6218 254.05 70.2767 252.972 70.7236C251.893 71.1705 250.737 71.4005 249.569 71.4005H248.885V51.8381Z" fill="#50274C"/>
<path d="M254.27 59.2891C261.105 59.2891 266.646 53.7482 266.646 46.9133C266.646 40.0783 261.105 34.5374 254.27 34.5374C247.435 34.5374 241.894 40.0783 241.894 46.9133C241.894 53.7482 247.435 59.2891 254.27 59.2891Z" fill="#50274C"/>
<path d="M248.885 55.4131C249.917 56.5114 251.141 57.4123 252.496 58.0716V70.9126C251.557 71.2398 250.568 71.4063 249.573 71.405H248.885V58.0625C246.363 56.8423 244.329 54.8026 243.116 52.2769C241.903 49.7511 241.583 46.8887 242.208 44.1574C242.833 41.4261 244.365 38.9875 246.555 37.2401C248.746 35.4927 251.464 34.5399 254.266 34.5374C254.876 34.536 255.486 34.5817 256.09 34.6742C253.85 35.0034 251.743 35.9408 249.999 37.3843C248.256 38.8279 246.941 40.7222 246.2 42.8611C245.458 45 245.317 47.3014 245.793 49.5146C246.269 51.7279 247.343 53.7681 248.898 55.4131H248.885Z" fill="#3F1B3D"/>
<path d="M254.206 76.1292C258.112 76.1292 261.279 72.9627 261.279 69.0566C261.279 65.1506 258.112 61.9841 254.206 61.9841C250.3 61.9841 247.134 65.1506 247.134 69.0566C247.134 72.9627 250.3 76.1292 254.206 76.1292Z" fill="#F5B5A9"/>
<path d="M252.072 68.2541C251.993 68.85 252.091 69.4562 252.354 69.9965C252.618 70.5368 253.035 70.9872 253.554 71.291C253.68 71.358 253.82 71.3934 253.962 71.3942C254.104 71.395 254.244 71.3612 254.37 71.2956C254.496 71.2301 254.605 71.1348 254.686 71.018C254.767 70.9012 254.818 70.7664 254.836 70.6253L255.36 66.6854C255.379 66.5377 255.36 66.3877 255.305 66.2493C255.25 66.1108 255.162 65.9884 255.047 65.8934C254.933 65.7984 254.796 65.7338 254.65 65.7057C254.503 65.6775 254.353 65.6867 254.211 65.7324C253.65 65.9027 253.15 66.2311 252.77 66.6784C252.391 67.1256 252.149 67.6727 252.072 68.2541Z" fill="#F29495"/>
<path d="M281.466 39.6902H258.785C256.291 39.6902 254.27 41.7114 254.27 44.2046V44.5968C254.27 47.09 256.291 49.1112 258.785 49.1112H281.466C283.959 49.1112 285.98 47.09 285.98 44.5968V44.2046C285.98 41.7114 283.959 39.6902 281.466 39.6902Z" fill="#684568"/>
<path d="M247.152 101.911C247.152 101.911 285.771 103.881 259.528 160.079L266.505 163.782C266.505 163.782 297.918 109.974 256.368 101.911H247.152Z" fill="#604970"/>
<path d="M295.61 183.974L287.379 179.271C283.088 176.82 277.623 178.311 275.172 182.601L275.17 182.605C272.719 186.895 274.21 192.36 278.5 194.811L286.732 199.514C291.022 201.965 296.487 200.474 298.938 196.184L298.94 196.18C301.391 191.89 299.901 186.425 295.61 183.974Z" fill="#F5B5A9"/>
<path d="M287.51 166.442L274.336 167.414C270.435 167.702 267.506 171.098 267.794 174.998L267.794 175.003C268.082 178.903 271.478 181.832 275.378 181.544L288.553 180.572C292.453 180.284 295.382 176.889 295.094 172.988L295.094 172.984C294.806 169.083 291.411 166.155 287.51 166.442Z" fill="#F5B5A9"/>
<path d="M298.31 186.578L290.489 180.501C285.029 176.257 277.162 177.244 272.919 182.705C268.675 188.165 269.662 196.032 275.123 200.276L282.943 206.353C288.404 210.596 296.271 209.609 300.514 204.149C304.758 198.688 303.771 190.821 298.31 186.578Z" fill="#F5B5A9"/>
<path d="M257.989 127.366C260.145 119.407 255.441 111.207 247.483 109.052C239.525 106.897 231.327 111.602 229.171 119.561L221.465 148.015C219.309 155.974 224.013 164.173 231.971 166.329C239.929 168.484 248.127 163.779 250.283 155.82L257.989 127.366Z" fill="#F5B5A9"/>
<path d="M287.583 200.032L280.097 194.215C276.196 191.183 270.575 191.888 267.543 195.789L267.54 195.793C264.508 199.695 265.213 205.315 269.115 208.347L276.601 214.164C280.502 217.196 286.123 216.491 289.155 212.589L289.158 212.586C292.19 208.684 291.485 203.064 287.583 200.032Z" fill="#F5B5A9"/>
<path d="M258.903 128.659C261.081 120.659 256.363 112.409 248.365 110.231C240.366 108.054 232.117 112.773 229.939 120.773L220.938 153.833C218.76 161.833 223.478 170.083 231.477 172.26C239.475 174.438 247.724 169.718 249.902 161.719L258.903 128.659Z" fill="#F5B5A9"/>
<path d="M248.36 110.233C252.337 111.316 255.721 113.934 257.767 117.511C259.814 121.089 260.355 125.333 259.272 129.31L253.267 151.366L223.278 143.202L229.283 121.145C230.366 117.168 232.984 113.785 236.562 111.738C240.139 109.692 244.383 109.15 248.36 110.233Z" fill="#FFD41D"/>
<path d="M290.308 197.594C288.119 201.711 284.47 204.861 280.079 206.427C275.687 207.993 270.868 207.861 266.568 206.057C266.395 205.984 266.226 205.911 266.053 205.829C265.88 205.747 265.775 205.702 265.638 205.633C265.501 205.565 265.237 205.437 265.041 205.332L224.274 183.686C222.118 182.549 220.206 181 218.647 179.126C218.497 178.939 218.346 178.757 218.191 178.565C217.9 178.191 217.626 177.808 217.371 177.407C217.243 177.215 217.115 177.015 216.997 176.814C216.755 176.408 216.541 175.998 216.322 175.578C215.901 174.744 215.546 173.878 215.259 172.988C215.109 172.532 214.986 172.076 214.872 171.62C214.758 171.164 214.662 170.708 214.589 170.252C214.548 170.015 214.516 169.796 214.484 169.55C214.429 169.094 214.388 168.638 214.356 168.15C214.181 164.771 214.93 161.408 216.522 158.424C216.705 158.077 216.896 157.749 217.097 157.425C219.579 153.367 223.518 150.41 228.107 149.158C232.696 147.906 237.59 148.454 241.789 150.69L282.556 172.336C286.931 174.66 290.204 178.625 291.657 183.361C293.111 188.097 292.626 193.216 290.308 197.594Z" fill="#F5B5A9"/>
<path d="M285.672 196.332C286.791 192.822 283.823 188.74 279.041 187.214C274.259 185.689 269.475 187.298 268.355 190.809C267.236 194.319 270.204 198.401 274.986 199.926C279.768 201.451 284.552 199.842 285.672 196.332Z" fill="#F8CDC5"/>
</svg>
