<svg width="458" height="458" viewBox="0 0 458 458" fill="none" xmlns="http://www.w3.org/2000/svg">
<path d="M445.24 285.952V290.72C445.248 300.858 442.706 310.836 437.848 319.734C437.619 320.151 437.39 320.563 437.152 320.971C434.032 326.378 430.099 331.273 425.491 335.485C425.28 335.682 425.065 335.874 424.85 336.067L424.786 336.122L424.048 336.763C420.624 339.706 416.88 342.254 412.887 344.361C411.797 344.938 410.684 345.483 409.557 345.991C407.324 347.006 405.03 347.879 402.687 348.607C402.133 348.781 401.574 348.946 401.016 349.101C395.664 350.603 390.132 351.363 384.573 351.359H359.988C356.67 351.36 353.489 352.679 351.143 355.026C348.798 357.372 347.48 360.554 347.48 363.872V410.547H138.316V363.872C138.319 361.355 137.561 358.897 136.142 356.818C134.724 354.74 132.71 353.139 130.365 352.225C128.907 351.649 127.353 351.355 125.785 351.359H84.4094C83.7544 351.359 83.1087 351.359 82.4583 351.332C73.5675 351.066 64.8345 348.915 56.8378 345.021C56.3798 344.805 55.963 344.59 55.5279 344.361C51.4446 342.255 47.6049 339.707 44.0779 336.763L43.8397 336.566C43.6657 336.419 43.4917 336.273 43.3222 336.108L42.594 335.485C41.6505 334.656 40.7345 333.79 39.846 332.902C36.2583 329.315 33.1152 325.309 30.4845 320.971C26.8038 314.909 24.1818 308.265 22.7305 301.323C20.9412 292.754 20.9412 283.909 22.7305 275.34C22.8359 274.814 22.9549 274.292 23.0786 273.769C23.4053 272.395 23.7763 271.037 24.1915 269.693C24.4266 268.942 24.674 268.196 24.9335 267.454C26.5329 262.89 28.657 258.529 31.2631 254.456C35.1845 248.321 40.133 242.908 45.8916 238.453C47.2411 237.406 48.6396 236.413 50.0869 235.476C55.5243 231.934 61.4791 229.258 67.7382 227.544C69.5427 227.049 71.3747 226.635 73.2342 226.302C74.6173 226.049 76.0158 225.846 77.4295 225.693C79.7478 225.446 82.0779 225.327 84.4094 225.336H132.98C137.252 225.337 141.354 223.67 144.413 220.689C147.472 217.707 149.245 213.649 149.354 209.379C149.354 209.242 149.354 209.1 149.354 208.958C149.354 208.894 149.354 208.83 149.354 208.77C149.311 204.924 147.915 201.216 145.411 198.296C142.906 195.377 139.454 193.432 135.66 192.804C134.774 192.657 133.878 192.583 132.98 192.584H51.0532H50.0914C40.2706 192.355 30.9179 188.342 23.9854 181.382C23.5595 180.956 23.1427 180.521 22.7397 180.076C16.3188 173.029 12.7598 163.839 12.7598 154.305C12.7598 144.771 16.3188 135.58 22.7397 128.533C23.1427 128.075 23.5595 127.654 23.9854 127.228C30.9179 120.268 40.2706 116.254 50.0914 116.025C50.3968 116.025 50.7174 116.025 51.0532 116.025C56.9497 116.033 62.7308 114.391 67.7428 111.285C69.7266 110.051 71.5696 108.605 73.2388 106.97C76.2605 104.017 78.6615 100.489 80.3006 96.5939C81.9397 92.699 82.7839 88.5159 82.7835 84.2903V51.9555C82.7756 50.3071 83.0937 48.6735 83.7193 47.1485C84.345 45.6234 85.2659 44.2371 86.4291 43.0692C87.5923 41.9013 88.9749 40.9748 90.4974 40.3431C92.0199 39.7113 93.6523 39.3867 95.3006 39.3879H386.859C395.647 39.3871 404.168 42.409 410.992 47.9465C417.816 53.484 422.527 61.2001 424.336 69.8C426.145 78.4 424.941 87.3603 420.925 95.1775C416.91 102.995 410.328 109.193 402.284 112.732C400.918 113.336 399.517 113.858 398.089 114.294C394.45 115.409 390.665 115.974 386.859 115.97H355.715C351.988 115.968 348.32 116.901 345.048 118.686C344.471 119.002 343.908 119.346 343.363 119.712C340.315 121.744 337.816 124.496 336.088 127.726C334.36 130.955 333.456 134.562 333.456 138.224C333.454 141.887 334.358 145.494 336.086 148.724C337.814 151.953 340.314 154.706 343.363 156.737C344.677 157.619 346.084 158.356 347.558 158.935C350.155 159.959 352.923 160.483 355.715 160.479C356.122 160.479 356.526 160.479 356.929 160.506C361.805 160.699 366.551 162.137 370.714 164.683C371.209 164.981 371.69 165.292 372.162 165.622C373.121 166.287 374.039 167.01 374.91 167.788C377.954 170.493 380.39 173.812 382.057 177.528C383.723 181.243 384.583 185.27 384.578 189.342V209.036C384.569 213.222 385.865 217.306 388.287 220.721C390.709 224.135 394.135 226.709 398.089 228.084C398.359 228.18 398.634 228.267 398.909 228.35C399.999 228.675 401.126 229.032 402.284 229.435C404.616 230.227 407.066 231.175 409.571 232.298C415.272 234.811 420.609 238.078 425.441 242.012C426.902 243.214 428.303 244.489 429.636 245.831C432.257 248.459 434.594 251.356 436.607 254.474C439.205 258.507 441.229 262.881 442.62 267.472C442.846 268.205 443.057 268.951 443.252 269.712C443.596 271.031 443.903 272.391 444.168 273.788C444.896 277.801 445.255 281.873 445.24 285.952Z" fill="#F3F4FE"/>
<path d="M401.039 349.101C395.687 350.603 390.155 351.363 384.596 351.359H359.988C356.67 351.36 353.489 352.679 351.143 355.026C348.798 357.372 347.48 360.554 347.48 363.872V410.547H138.316C138.316 410.547 164.422 289.593 209.306 288.16C254.19 286.726 265.205 335.485 265.205 335.485C265.205 335.485 273.064 248.978 335.577 242.832C367.843 239.658 388.553 294.902 401.039 349.101Z" fill="#EBECFD"/>
<path d="M37.8491 418.607H63.7078C65.9337 418.607 67.7382 416.803 67.7382 414.577V414.572C67.7382 412.347 65.9337 410.542 63.7078 410.542H37.8491C35.6232 410.542 33.8187 412.347 33.8187 414.572V414.577C33.8187 416.803 35.6232 418.607 37.8491 418.607Z" fill="#D2D6FA"/>
<path d="M75.0525 418.607H437.944C440.17 418.607 441.975 416.803 441.975 414.577V414.572C441.975 412.347 440.17 410.542 437.944 410.542H75.0525C72.8266 410.542 71.0221 412.347 71.0221 414.572V414.577C71.0221 416.803 72.8266 418.607 75.0525 418.607Z" fill="#D2D6FA"/>
<path d="M445.24 285.952V290.72C445.248 300.858 442.706 310.836 437.848 319.734C437.619 320.151 437.39 320.563 437.152 320.971C434.032 326.378 430.099 331.273 425.491 335.485C425.281 335.682 425.065 335.874 424.85 336.067L424.786 336.122L424.048 336.763C420.624 339.706 416.88 342.254 412.887 344.361C411.797 344.938 410.684 345.483 409.557 345.991C407.324 347.006 405.03 347.879 402.687 348.607C396.823 350.434 390.716 351.361 384.573 351.355H359.988C356.67 351.356 353.489 352.675 351.143 355.021C348.798 357.368 347.48 360.549 347.48 363.867V410.547H312.722V39.3879H386.859C395.647 39.3871 404.168 42.4089 410.992 47.9465C417.816 53.484 422.528 61.2001 424.336 69.8C426.145 78.4 424.941 87.3603 420.925 95.1775C416.91 102.995 410.328 109.193 402.284 112.732C400.918 113.336 399.517 113.858 398.089 114.294C394.45 115.409 390.665 115.974 386.859 115.97H355.715C351.988 115.968 348.32 116.901 345.048 118.686C344.471 119.002 343.908 119.346 343.363 119.712C340.315 121.744 337.816 124.496 336.088 127.726C334.36 130.955 333.456 134.562 333.456 138.224C333.454 141.887 334.358 145.494 336.086 148.724C337.814 151.953 340.314 154.706 343.363 156.737C344.677 157.619 346.084 158.356 347.558 158.935C350.155 159.959 352.923 160.483 355.715 160.479C356.122 160.479 356.526 160.479 356.929 160.506C361.805 160.699 366.551 162.137 370.714 164.683C371.209 164.981 371.69 165.292 372.162 165.622C373.121 166.287 374.039 167.01 374.91 167.788C377.954 170.493 380.39 173.812 382.057 177.528C383.723 181.243 384.583 185.27 384.578 189.342V209.036C384.569 213.222 385.865 217.306 388.287 220.721C390.709 224.135 394.135 226.709 398.089 228.084C398.359 228.18 398.634 228.267 398.909 228.35C399.999 228.675 401.126 229.032 402.284 229.435C404.616 230.227 407.066 231.175 409.571 232.298C415.272 234.811 420.609 238.078 425.441 242.012C426.902 243.214 428.303 244.489 429.636 245.831C432.257 248.459 434.594 251.356 436.607 254.474C439.205 258.507 441.229 262.881 442.62 267.472C442.846 268.205 443.057 268.951 443.252 269.712C443.596 271.031 443.903 272.391 444.168 273.788C444.896 277.801 445.255 281.873 445.24 285.952Z" fill="#D2D6FA"/>
<path d="M445.24 285.952V290.72C445.248 300.858 442.706 310.836 437.848 319.734C437.619 320.151 437.39 320.563 437.152 320.971H326.178V56.8241H418.969C421.993 61.478 423.969 66.7335 424.761 72.2267C425.552 77.7199 425.14 83.3196 423.553 88.6378C421.966 93.956 419.242 98.8657 415.57 103.027C411.897 107.188 407.364 110.501 402.284 112.737C400.918 113.341 399.517 113.862 398.089 114.299C394.45 115.413 390.665 115.978 386.859 115.975H355.715C351.988 115.972 348.32 116.906 345.048 118.691C344.471 119.007 343.908 119.35 343.363 119.717C340.315 121.748 337.816 124.501 336.088 127.73C334.36 130.96 333.456 134.566 333.456 138.229C333.454 141.892 334.358 145.499 336.086 148.728C337.814 151.958 340.314 154.711 343.363 156.741C344.677 157.624 346.084 158.361 347.558 158.94C350.155 159.964 352.923 160.488 355.715 160.483C356.123 160.483 356.526 160.483 356.929 160.511C361.805 160.704 366.551 162.142 370.714 164.688C371.209 164.985 371.69 165.297 372.162 165.627C373.121 166.291 374.039 167.015 374.91 167.793C377.954 170.497 380.39 173.817 382.057 177.532C383.723 181.248 384.583 185.274 384.578 189.346V209.04C384.57 213.226 385.867 217.309 388.288 220.723C390.71 224.136 394.136 226.709 398.089 228.084C398.359 228.18 398.634 228.267 398.909 228.35C399.999 228.675 401.126 229.032 402.284 229.435C404.616 230.227 407.066 231.176 409.571 232.298C415.272 234.811 420.609 238.078 425.441 242.012C426.902 243.214 428.303 244.489 429.636 245.832C432.257 248.459 434.594 251.356 436.607 254.474C439.205 258.507 441.229 262.881 442.62 267.472C442.846 268.205 443.057 268.951 443.252 269.712C443.596 271.031 443.903 272.391 444.168 273.788C444.896 277.801 445.255 281.873 445.24 285.952Z" fill="#F1F2FD"/>
<path d="M443.252 269.693C443.596 271.012 443.903 272.373 444.168 273.769H326.178V269.693H443.252Z" fill="#D2D6FA"/>
<path d="M347.576 56.824V117.518C346.716 117.856 345.877 118.247 345.066 118.691C344.489 119.007 343.926 119.35 343.381 119.717V56.824H347.576Z" fill="#D2D6FA"/>
<path d="M343.381 156.746C344.696 157.628 346.102 158.365 347.576 158.944V320.971H343.381V156.746Z" fill="#D2D6FA"/>
<path d="M370.737 56.824H374.928V115.975H370.737V56.824Z" fill="#D2D6FA"/>
<path d="M372.185 165.631C373.144 166.296 374.062 167.019 374.933 167.797V320.971H370.742V164.692C371.232 164.99 371.713 165.301 372.185 165.631Z" fill="#D2D6FA"/>
<path d="M402.284 56.824V112.737C400.918 113.341 399.517 113.862 398.089 114.298V56.824H402.284Z" fill="#D2D6FA"/>
<path d="M398.918 228.331C400.008 228.656 401.135 229.014 402.293 229.417V320.971H398.098V228.084C398.359 228.162 398.634 228.249 398.918 228.331Z" fill="#D2D6FA"/>
<path d="M429.636 245.813V320.971H425.441V241.993C426.902 243.195 428.303 244.47 429.636 245.813Z" fill="#D2D6FA"/>
<path d="M162.805 39.3879V410.547H138.316V363.872C138.319 361.355 137.561 358.897 136.142 356.818C134.724 354.74 132.71 353.139 130.365 352.225C128.907 351.649 127.353 351.355 125.785 351.359H84.4094C83.7544 351.359 83.1087 351.359 82.4583 351.332C73.5675 351.066 64.8345 348.915 56.8378 345.021C56.3798 344.805 55.963 344.59 55.5279 344.361C51.4446 342.255 47.6049 339.707 44.0779 336.763L43.8397 336.566C43.6657 336.419 43.4917 336.273 43.3222 336.108L42.594 335.485C41.6505 334.656 40.7345 333.79 39.846 332.902C36.2583 329.315 33.1152 325.309 30.4845 320.971C26.8038 314.909 24.1818 308.265 22.7305 301.323C20.9412 292.754 20.9412 283.909 22.7305 275.34C22.8359 274.814 22.9549 274.292 23.0786 273.769C23.4053 272.395 23.7763 271.037 24.1915 269.693C24.4266 268.942 24.674 268.196 24.9335 267.454C26.5329 262.89 28.657 258.529 31.2631 254.456C35.1845 248.321 40.133 242.908 45.8916 238.453C47.2411 237.406 48.6396 236.413 50.0869 235.476C55.5243 231.934 61.4791 229.258 67.7382 227.544C69.5427 227.049 71.3747 226.635 73.2342 226.302C74.6173 226.049 76.0158 225.846 77.4295 225.693C79.7478 225.446 82.0779 225.327 84.4094 225.336H132.98C137.252 225.337 141.354 223.67 144.413 220.689C147.472 217.707 149.245 213.649 149.354 209.379V208.77C149.311 204.924 147.915 201.216 145.411 198.296C142.906 195.377 139.454 193.432 135.66 192.804C134.774 192.657 133.878 192.583 132.98 192.584H51.0532H50.0914C40.2706 192.355 30.9179 188.342 23.9854 181.382C23.5595 180.956 23.1427 180.521 22.7397 180.076C16.3188 173.029 12.7598 163.839 12.7598 154.305C12.7598 144.771 16.3188 135.58 22.7397 128.533C23.1427 128.075 23.5595 127.654 23.9854 127.228C30.9179 120.268 40.2706 116.254 50.0914 116.025C50.3968 116.025 50.7174 116.025 51.0532 116.025C56.9497 116.033 62.7308 114.391 67.7428 111.285C69.7266 110.051 71.5695 108.605 73.2388 106.97C76.2605 104.017 78.6615 100.489 80.3006 96.5939C81.9397 92.699 82.7839 88.5159 82.7835 84.2903V51.9555C82.7756 50.3071 83.0937 48.6735 83.7193 47.1485C84.345 45.6234 85.2659 44.2371 86.4291 43.0692C87.5923 41.9013 88.9749 40.9748 90.4974 40.3431C92.0199 39.7113 93.6522 39.3867 95.3006 39.3879H162.805Z" fill="#D2D6FA"/>
<path d="M149.354 56.8241V208.747C149.311 204.901 147.915 201.193 145.411 198.274C142.906 195.354 139.454 193.41 135.66 192.781C134.774 192.634 133.878 192.56 132.98 192.562H51.0532H50.0914C40.2707 192.332 30.9179 188.319 23.9854 181.359C23.5595 180.933 23.1427 180.498 22.7397 180.054C16.3188 173.006 12.7598 163.816 12.7598 154.282C12.7598 144.748 16.3188 135.558 22.7397 128.51C23.1427 128.052 23.5595 127.631 23.9854 127.205C30.9179 120.245 40.2707 116.231 50.0914 116.002C50.3968 116.002 50.7174 116.002 51.0532 116.002C56.9497 116.01 62.7308 114.368 67.7428 111.262C69.7266 110.029 71.5696 108.582 73.2388 106.948C76.2605 103.994 78.6615 100.466 80.3006 96.571C81.9397 92.6762 82.7839 88.4931 82.7835 84.2675V56.8241H149.354Z" fill="#F1F2FD"/>
<path d="M149.354 209.356V320.971H30.489C26.8084 314.909 24.1863 308.265 22.7351 301.323C20.9458 292.754 20.9458 283.909 22.7351 275.34C22.8404 274.814 22.9595 274.292 23.0832 273.769C23.4099 272.395 23.7809 271.037 24.1961 269.693C24.4312 268.942 24.6786 268.196 24.9381 267.454C26.5375 262.89 28.6615 258.529 31.2676 254.456C35.1891 248.321 40.1376 242.908 45.8962 238.453C47.2457 237.406 48.6442 236.413 50.0915 235.476C55.5289 231.934 61.4837 229.258 67.7428 227.544C69.5473 227.049 71.3793 226.635 73.2388 226.302C74.6219 226.049 76.0204 225.846 77.4341 225.693C79.7509 225.446 82.0795 225.327 84.4094 225.336H132.98C137.252 225.337 141.354 223.67 144.413 220.689C147.472 217.707 149.245 213.649 149.354 209.379V209.356Z" fill="#F1F2FD"/>
<path d="M149.354 269.693V273.77H23.0832C23.4099 272.396 23.7809 271.037 24.1961 269.693H149.354Z" fill="#D2D6FA"/>
<path d="M127.951 56.8241H132.147V192.562H127.951V56.8241Z" fill="#D2D6FA"/>
<path d="M127.951 225.313H132.147V320.971H127.951V225.313Z" fill="#D2D6FA"/>
<path d="M100.6 56.8241H104.795V192.562H100.6V56.8241Z" fill="#D2D6FA"/>
<path d="M100.6 225.313H104.795V320.971H100.6V225.313Z" fill="#D2D6FA"/>
<path d="M77.4432 101.868V192.552H73.2479V106.906C74.8179 105.378 76.224 103.689 77.4432 101.868Z" fill="#D2D6FA"/>
<path d="M73.2479 226.302C74.6311 226.049 76.0295 225.846 77.4432 225.693V320.957H73.2479V226.302Z" fill="#D2D6FA"/>
<path d="M50.0915 115.989V192.548C48.688 192.515 47.2875 192.405 45.8962 192.218V116.332C47.2873 116.141 48.6878 116.026 50.0915 115.989Z" fill="#D2D6FA"/>
<path d="M45.8962 238.453C47.2458 237.406 48.6442 236.414 50.0915 235.476V320.971H45.8962V238.453Z" fill="#D2D6FA"/>
<path d="M22.7351 128.496V180.04C21.1705 178.324 19.7663 176.469 18.5399 174.498V134.038C19.7663 132.067 21.1705 130.212 22.7351 128.496Z" fill="#D2D6FA"/>
<path d="M22.7351 275.34V301.323C20.9458 292.754 20.9458 283.909 22.7351 275.34Z" fill="#D2D6FA"/>
<path d="M294.618 157.208H277.672C277.672 154.961 278.564 152.806 280.153 151.217C281.742 149.628 283.898 148.735 286.145 148.735C288.392 148.735 290.547 149.628 292.136 151.217C293.725 152.806 294.618 154.961 294.618 157.208Z" fill="#EBECFD"/>
<path d="M285.096 157.208H260.785C260.785 153.985 262.066 150.893 264.345 148.613C266.625 146.334 269.717 145.053 272.941 145.053C276.164 145.053 279.256 146.334 281.536 148.613C283.815 150.893 285.096 153.985 285.096 157.208Z" fill="#EBECFD"/>
<path d="M274.402 157.208H244.723C244.723 153.273 246.287 149.498 249.069 146.716C251.852 143.933 255.627 142.369 259.562 142.369C263.498 142.369 267.272 143.933 270.055 146.716C272.838 149.498 274.402 153.273 274.402 157.208Z" fill="#EBECFD"/>
<path d="M166.543 131.771H304.684V134.954H166.543V131.771Z" fill="#D2D6FA"/>
<path d="M166.543 131.771H304.684V134.954H166.543V131.771Z" fill="#D2D6FA"/>
<path d="M289.232 39.3927V134.272H286.048V39.3927H289.232Z" fill="#D2D6FA"/>
<path d="M237.203 39.3881V134.267H234.02V39.3881H237.203Z" fill="#D2D6FA"/>
<path d="M185.169 39.3926V134.272H181.986V39.3926H185.169Z" fill="#D2D6FA"/>
<path d="M166.543 118.141H304.684V121.324H166.543V118.141Z" fill="#D2D6FA"/>
<path d="M166.543 125.066H304.684V128.249H166.543V125.066Z" fill="#D2D6FA"/>
<path d="M166.543 104.506H304.684V107.69H166.543V104.506Z" fill="#D2D6FA"/>
<path d="M166.543 90.8765H304.684V94.0596H166.543V90.8765Z" fill="#D2D6FA"/>
<path d="M166.543 77.2417H304.684V80.4248H166.543V77.2417Z" fill="#D2D6FA"/>
<path d="M166.543 63.6117H304.684V66.7948H166.543V63.6117Z" fill="#D2D6FA"/>
<path d="M166.543 49.9771H304.684V53.1601H166.543V49.9771Z" fill="#D2D6FA"/>
<path d="M166.543 111.326H304.684V114.509H166.543V111.326Z" fill="#D2D6FA"/>
<path d="M166.543 97.6914H304.684V100.875H166.543V97.6914Z" fill="#D2D6FA"/>
<path d="M166.543 84.0614H304.684V87.2445H166.543V84.0614Z" fill="#D2D6FA"/>
<path d="M166.543 70.4268H304.684V73.6099H166.543V70.4268Z" fill="#D2D6FA"/>
<path d="M166.543 56.7966H304.684V59.9797H166.543V56.7966Z" fill="#D2D6FA"/>
<path d="M166.543 43.162H304.684V46.3451H166.543V43.162Z" fill="#D2D6FA"/>
<path d="M178.62 392.359C178.609 398.457 179.068 404.547 179.994 410.574H387.605C388.531 404.547 388.99 398.457 388.979 392.359C388.979 349.944 366.936 313.025 334.409 293.935C319.073 284.882 301.59 280.107 283.781 280.108C249.944 280.108 219.831 297.155 200.59 323.646C186.823 342.63 178.62 366.473 178.62 392.359Z" fill="#7986BF"/>
<path d="M130.883 410.579H265.283C265.283 371.369 238.572 337.757 200.618 323.646C197.05 322.312 193.414 321.166 189.727 320.211C158.01 342.163 136.168 374.186 130.883 410.579Z" fill="#7986BF"/>
<path d="M214.729 410.579H387.615C388.464 405.064 388.923 399.496 388.989 393.917C388.989 393.399 388.989 392.882 388.989 392.359C388.989 364.421 379.421 338.861 363.597 319.221C357.153 311.2 349.596 304.141 341.155 298.259C338.96 296.732 336.709 295.291 334.404 293.935C271.159 307.973 222.954 353.965 214.729 410.579Z" fill="#D2D6FA"/>
<path d="M270.893 410.579H388.059C388.631 405.151 388.947 399.587 388.998 393.917C388.998 393.399 388.998 392.882 388.998 392.359C388.998 364.421 379.43 338.86 363.606 319.221C302.619 338.819 274.672 372.207 270.893 410.579Z" fill="#7986BF"/>
<path d="M354.408 249.452L362.022 250.621C362.771 250.736 363.489 250.998 364.137 251.391C364.784 251.784 365.348 252.301 365.795 252.913C366.242 253.524 366.564 254.218 366.743 254.954C366.922 255.691 366.953 256.455 366.836 257.203L359.221 256.034C358.473 255.919 357.754 255.657 357.106 255.264C356.459 254.871 355.895 254.354 355.448 253.742C355.001 253.131 354.679 252.437 354.5 251.701C354.322 250.964 354.29 250.2 354.408 249.452Z" fill="#153E63"/>
<path d="M366.812 257.13C366.629 255.917 366.063 254.795 365.196 253.927C364.329 253.059 363.207 252.492 361.994 252.308L354.378 251.14C354.29 250.572 354.29 249.994 354.378 249.427L361.994 250.595C363.498 250.826 364.849 251.644 365.752 252.868C366.654 254.093 367.036 255.625 366.812 257.13Z" fill="#0C314C"/>
<path d="M272.565 206.274C285.351 206.274 295.717 195.909 295.717 183.122C295.717 170.336 285.351 159.97 272.565 159.97C259.779 159.97 249.413 170.336 249.413 183.122C249.413 195.909 259.779 206.274 272.565 206.274Z" fill="#153E63"/>
<path d="M252.431 184.116C252.327 188.15 253.28 192.14 255.195 195.692C257.111 199.243 259.922 202.231 263.35 204.36C260.428 203.093 257.8 201.238 255.627 198.909C253.455 196.581 251.787 193.829 250.726 190.827C249.666 187.824 249.236 184.635 249.463 181.459C249.691 178.283 250.571 175.188 252.049 172.368C253.526 169.547 255.57 167.061 258.052 165.066C260.533 163.071 263.4 161.609 266.472 160.772C269.544 159.935 272.756 159.74 275.907 160.2C279.058 160.661 282.08 161.766 284.784 163.447C281.306 161.942 277.512 161.314 273.734 161.618C269.956 161.921 266.311 163.147 263.117 165.187C259.924 167.228 257.279 170.02 255.416 173.321C253.553 176.621 252.528 180.328 252.431 184.116Z" fill="#396E96"/>
<path d="M309.843 178.73L305.489 178.62C294.471 178.343 285.315 187.05 285.039 198.068L285.038 198.072C284.761 209.09 293.468 218.246 304.486 218.522L308.84 218.632C319.857 218.909 329.013 210.202 329.29 199.185L329.29 199.18C329.567 188.163 320.86 179.007 309.843 178.73Z" fill="#153E63"/>
<path d="M325.705 174.449L321.351 174.34C310.334 174.063 301.178 182.77 300.901 193.787L300.901 193.792C300.624 204.809 309.331 213.965 320.348 214.242L324.702 214.351C335.72 214.628 344.876 205.921 345.152 194.904L345.153 194.899C345.43 183.882 336.723 174.726 325.705 174.449Z" fill="#153E63"/>
<path d="M270.499 190.853L270.101 206.631C270.043 208.928 270.9 211.153 272.483 212.817C274.066 214.482 276.245 215.45 278.542 215.507C280.838 215.565 283.063 214.708 284.728 213.125C286.393 211.542 287.36 209.363 287.418 207.066L287.816 191.288C287.846 190.151 287.652 189.019 287.245 187.957C286.838 186.895 286.225 185.924 285.442 185.099C284.659 184.273 283.722 183.61 282.683 183.147C281.644 182.685 280.524 182.431 279.387 182.401C278.25 182.371 277.118 182.565 276.056 182.972C274.994 183.38 274.023 183.992 273.197 184.775C272.372 185.558 271.709 186.495 271.246 187.534C270.783 188.573 270.529 189.693 270.499 190.83V190.853Z" fill="#F5A491"/>
<path d="M270.499 190.853L270.193 202.99C275.877 204.329 281.783 204.44 287.514 203.315L287.816 191.288C287.877 188.992 287.023 186.765 285.442 185.099C283.861 183.432 281.683 182.461 279.387 182.401C277.09 182.34 274.864 183.194 273.197 184.775C271.531 186.356 270.56 188.534 270.499 190.83V190.853Z" fill="#EF927F"/>
<path d="M258.926 155.349L258.884 159.929L258.857 163.076L258.683 181.716C258.64 186.499 260.497 191.102 263.846 194.517C267.195 197.931 271.763 199.877 276.545 199.926C280.487 199.967 284.397 199.23 288.054 197.759C291.711 196.288 295.042 194.11 297.857 191.351C300.673 188.592 302.917 185.306 304.461 181.679C306.006 178.053 306.821 174.157 306.86 170.216L306.979 157.099C307.019 152.767 305.337 148.596 302.303 145.504C299.268 142.412 295.13 140.652 290.798 140.611L277.369 140.492L274.113 140.459C272.138 140.438 270.178 140.807 268.345 141.544C266.512 142.281 264.843 143.372 263.432 144.755C262.022 146.138 260.897 147.786 260.124 149.604C259.351 151.421 258.944 153.374 258.926 155.349Z" fill="#F5A491"/>
<path d="M278.208 199.903C277.663 199.935 277.113 199.945 276.563 199.94C271.78 199.89 267.212 197.944 263.863 194.529C260.514 191.114 258.657 186.509 258.701 181.725L258.871 163.094L258.898 159.943L258.935 155.363C258.953 153.389 259.361 151.438 260.133 149.621C260.906 147.805 262.029 146.158 263.438 144.775C264.847 143.393 266.514 142.301 268.345 141.563C270.176 140.825 272.134 140.454 274.108 140.473H275.821C271.997 140.668 268.391 142.316 265.74 145.08C263.089 147.843 261.594 151.515 261.559 155.344L261.518 159.924L261.486 163.076L261.317 181.707C261.27 186.325 262.995 190.786 266.137 194.171C269.279 197.555 273.599 199.607 278.208 199.903Z" fill="#FFC4AF"/>
<path d="M258.926 155.349L258.885 159.929L258.857 163.075C261.896 164.772 265.435 165.345 268.855 164.695C272.274 164.045 275.356 162.213 277.56 159.52C279.765 156.826 280.952 153.443 280.914 149.963C280.876 146.483 279.614 143.127 277.351 140.482L274.095 140.45C272.12 140.432 270.161 140.802 268.33 141.541C266.499 142.28 264.831 143.372 263.422 144.756C262.014 146.139 260.891 147.787 260.12 149.605C259.348 151.423 258.943 153.374 258.926 155.349Z" fill="#EF927F"/>
<path d="M267.9 174.446C267.928 173.341 267.183 172.426 266.238 172.402C265.292 172.379 264.503 173.255 264.475 174.36C264.447 175.465 265.191 176.38 266.137 176.404C267.083 176.428 267.872 175.551 267.9 174.446Z" fill="#230D30"/>
<path d="M281.557 174.789C281.585 173.684 280.841 172.769 279.895 172.745C278.949 172.721 278.16 173.598 278.132 174.703C278.104 175.808 278.849 176.723 279.794 176.747C280.74 176.771 281.529 175.894 281.557 174.789Z" fill="#230D30"/>
<path d="M312.2 185.953C320.889 185.953 327.933 178.909 327.933 170.22C327.933 161.532 320.889 154.488 312.2 154.488C303.512 154.488 296.468 161.532 296.468 170.22C296.468 178.909 303.512 185.953 312.2 185.953Z" fill="#153E63"/>
<path d="M345.153 194.393V194.906C345.071 198.284 344.132 201.584 342.424 204.499C340.716 207.414 338.295 209.846 335.389 211.568C337.679 209.753 339.542 207.455 340.845 204.84C342.149 202.224 342.861 199.353 342.932 196.432C342.932 196.258 342.932 196.088 342.932 195.919C342.929 191.275 341.307 186.779 338.345 183.203C335.383 179.627 331.267 177.197 326.705 176.33C326.178 176.229 325.643 176.151 325.102 176.096C325.258 175.556 325.383 175.007 325.478 174.452C325.612 173.696 325.688 172.93 325.707 172.162C325.776 169.379 325.106 166.626 323.764 164.187C322.422 161.747 320.456 159.707 318.068 158.276C315.68 156.844 312.955 156.072 310.17 156.038C307.386 156.004 304.643 156.71 302.22 158.083C304.812 155.954 308.017 154.708 311.367 154.53C314.717 154.351 318.036 155.248 320.84 157.089C323.643 158.931 325.785 161.621 326.951 164.766C328.118 167.911 328.248 171.347 327.323 174.571C332.216 175.096 336.743 177.41 340.033 181.069C343.324 184.727 345.148 189.473 345.153 194.393Z" fill="#0C314C"/>
<path d="M329 224.8C336.849 224.8 343.211 218.437 343.211 210.588C343.211 202.74 336.849 196.377 329 196.377C321.151 196.377 314.788 202.74 314.788 210.588C314.788 218.437 321.151 224.8 329 224.8Z" fill="#153E63"/>
<path d="M336.47 236.429C342.786 236.429 347.906 231.309 347.906 224.993C347.906 218.676 342.786 213.556 336.47 213.556C330.154 213.556 325.033 218.676 325.033 224.993C325.033 231.309 330.154 236.429 336.47 236.429Z" fill="#153E63"/>
<path d="M341.013 244.196C346.138 244.196 350.292 240.042 350.292 234.917C350.292 229.793 346.138 225.638 341.013 225.638C335.888 225.638 331.734 229.793 331.734 234.917C331.734 240.042 335.888 244.196 341.013 244.196Z" fill="#153E63"/>
<path d="M350.072 251.905C354.529 251.905 358.142 248.292 358.142 243.835C358.142 239.378 354.529 235.765 350.072 235.765C345.615 235.765 342.002 239.378 342.002 243.835C342.002 248.292 345.615 251.905 350.072 251.905Z" fill="#153E63"/>
<path d="M355.5 249.798C356.072 248.715 356.385 247.514 356.416 246.289C356.462 244.354 355.813 242.466 354.586 240.968C353.359 239.471 351.636 238.463 349.729 238.128C349.338 238.066 348.943 238.029 348.547 238.018H348.538C348.563 237.814 348.577 237.609 348.579 237.404C348.654 235.043 347.811 232.744 346.225 230.992C346.068 230.811 345.902 230.638 345.726 230.475C346.01 229.518 346.164 228.528 346.184 227.53C346.184 227.424 346.184 227.31 346.184 227.205C346.175 225.356 345.718 223.537 344.852 221.904C343.986 220.271 342.736 218.873 341.21 217.829C341.036 217.71 340.862 217.596 340.679 217.486C341 216.567 341.221 215.617 341.338 214.651C341.402 214.169 341.44 213.685 341.453 213.199C341.525 210.327 340.724 207.5 339.155 205.093C337.587 202.686 335.325 200.811 332.669 199.716C330.013 198.621 327.087 198.358 324.278 198.962C321.468 199.565 318.909 201.006 316.936 203.095C318.764 200.091 321.642 197.872 325.012 196.868C328.382 195.864 332.005 196.147 335.179 197.661C338.353 199.175 340.852 201.814 342.192 205.065C343.532 208.316 343.618 211.949 342.433 215.26C344.578 216.573 346.232 218.557 347.137 220.903C348.043 223.25 348.151 225.83 347.443 228.244C348.375 229.137 349.109 230.215 349.601 231.408C350.092 232.601 350.329 233.884 350.297 235.174C350.297 235.38 350.297 235.591 350.26 235.788C351.871 235.828 353.432 236.349 354.744 237.285C356.055 238.221 357.056 239.528 357.618 241.038C358.179 242.548 358.276 244.191 357.895 245.757C357.515 247.322 356.674 248.738 355.481 249.821L355.5 249.798Z" fill="#0C314C"/>
<path d="M305.472 183.067C309.686 183.067 313.103 179.651 313.103 175.437C313.103 171.223 309.686 167.807 305.472 167.807C301.258 167.807 297.842 171.223 297.842 175.437C297.842 179.651 301.258 183.067 305.472 183.067Z" fill="#F5A491"/>
<path d="M307.776 175.574C307.759 176.223 307.551 176.851 307.179 177.382C306.807 177.914 306.287 178.323 305.683 178.56C305.539 178.612 305.384 178.628 305.232 178.606C305.081 178.584 304.937 178.525 304.813 178.435C304.689 178.345 304.589 178.225 304.522 178.087C304.455 177.95 304.423 177.798 304.428 177.644L304.533 173.362C304.539 173.203 304.584 173.047 304.665 172.91C304.745 172.772 304.859 172.657 304.996 172.575C305.132 172.493 305.287 172.446 305.446 172.438C305.605 172.431 305.764 172.464 305.907 172.533C306.477 172.808 306.957 173.24 307.288 173.779C307.619 174.319 307.789 174.942 307.776 175.574Z" fill="#EF927F"/>
<path d="M359.555 247.513L359.553 247.509C359 246.76 357.945 246.601 357.196 247.153L352.507 250.611C351.758 251.164 351.599 252.219 352.151 252.968L352.154 252.972C352.706 253.721 353.762 253.88 354.511 253.328L359.199 249.87C359.948 249.317 360.108 248.262 359.555 247.513Z" fill="#E1160C"/>
<path d="M302.019 165.878C311.173 165.878 318.594 158.458 318.594 149.303C318.594 140.149 311.173 132.728 302.019 132.728C292.865 132.728 285.444 140.149 285.444 149.303C285.444 158.458 292.865 165.878 302.019 165.878Z" fill="#153E63"/>
<path d="M316.936 156.576C317.21 155.449 317.364 154.296 317.394 153.137C317.488 149.355 316.286 145.655 313.988 142.651C311.689 139.647 308.432 137.519 304.757 136.622C301.082 135.724 297.211 136.111 293.786 137.717C290.361 139.323 287.589 142.052 285.929 145.452C286.467 143.181 287.477 141.05 288.895 139.197C290.313 137.344 292.106 135.811 294.157 134.699C296.207 133.586 298.47 132.919 300.796 132.742C303.123 132.564 305.46 132.879 307.656 133.667C309.853 134.455 311.857 135.698 313.54 137.314C315.223 138.93 316.546 140.883 317.421 143.046C318.297 145.208 318.707 147.531 318.623 149.863C318.54 152.195 317.965 154.482 316.936 156.576Z" fill="#0C314C"/>
<path d="M276.879 156.838C286.033 156.838 293.454 149.417 293.454 140.263C293.454 131.108 286.033 123.688 276.879 123.688C267.725 123.688 260.304 131.108 260.304 140.263C260.304 149.417 267.725 156.838 276.879 156.838Z" fill="#153E63"/>
<path d="M258.994 168.993C268.149 168.993 275.569 161.572 275.569 152.418C275.569 143.264 268.149 135.843 258.994 135.843C249.84 135.843 242.419 143.264 242.419 152.418C242.419 161.572 249.84 168.993 258.994 168.993Z" fill="#153E63"/>
<path d="M291.421 132.312C289.519 130.695 287.276 129.529 284.86 128.9C282.444 128.271 279.917 128.196 277.468 128.681C275.019 129.165 272.71 130.196 270.716 131.697C268.721 133.198 267.091 135.13 265.947 137.35C265.409 138.389 264.987 139.484 264.687 140.615C264.229 140.56 263.721 140.524 263.222 140.51C262.251 140.486 261.279 140.546 260.318 140.688C257.683 141.091 255.185 142.122 253.033 143.694C250.881 145.267 249.14 147.335 247.957 149.723C246.774 152.111 246.184 154.749 246.236 157.414C246.289 160.079 246.983 162.691 248.259 165.031C245.647 162.811 243.789 159.835 242.938 156.515C242.088 153.194 242.288 149.691 243.511 146.489C244.735 143.287 246.92 140.543 249.768 138.634C252.615 136.726 255.985 135.748 259.411 135.834C259.901 135.843 260.39 135.878 260.877 135.939C261.733 132.742 263.528 129.874 266.029 127.706C268.53 125.538 271.623 124.168 274.909 123.774C278.196 123.38 281.525 123.979 284.468 125.494C287.411 127.009 289.832 129.371 291.421 132.275V132.312Z" fill="#396E96"/>
<path d="M279.375 151.378C284.267 151.378 288.233 147.412 288.233 142.52C288.233 137.628 284.267 133.663 279.375 133.663C274.483 133.663 270.518 137.628 270.518 142.52C270.518 147.412 274.483 151.378 279.375 151.378Z" fill="#396E96"/>
<path d="M275.75 215.649L275.747 215.645C271.056 209.208 262.035 207.792 255.598 212.483L218.268 239.684C211.83 244.375 210.414 253.397 215.105 259.834L215.108 259.838C219.799 266.275 228.82 267.691 235.258 263L272.587 235.799C279.025 231.108 280.441 222.087 275.75 215.649Z" fill="#F5A491"/>
<path d="M196.98 217.267C202.89 220.01 209.905 217.443 212.649 211.533C215.392 205.622 212.825 198.607 206.915 195.864L197.551 191.517C191.641 188.774 184.626 191.341 181.882 197.251C179.139 203.162 181.706 210.177 187.616 212.92L196.98 217.267Z" fill="#EF948C"/>
<path d="M213.461 202.719C210.541 196.824 203.395 194.411 197.501 197.331C191.606 200.25 189.195 207.396 192.115 213.292L214.844 259.18C217.765 265.076 224.91 267.488 230.805 264.569C236.699 261.649 239.11 254.503 236.19 248.608L213.461 202.719Z" fill="#F5A491"/>
<path d="M196.98 217.267C202.89 220.01 209.905 217.443 212.649 211.533C215.392 205.622 212.825 198.607 206.915 195.864L197.551 191.517C191.641 188.774 184.626 191.341 181.882 197.251C179.139 203.162 181.706 210.177 187.616 212.92L196.98 217.267Z" fill="#F5A491"/>
<path d="M276.998 230.585C275.975 232.655 274.463 234.446 272.592 235.801L235.27 262.997C232.808 264.791 229.839 265.753 226.792 265.745C224.567 265.984 222.319 265.591 220.307 264.611C218.295 263.631 216.6 262.103 215.416 260.204C210.891 253.64 193.221 215.503 193.221 215.503L187.643 212.906C185.991 212.14 184.539 211.001 183.4 209.58C182.262 208.158 181.468 206.492 181.081 204.713C180.695 202.934 180.725 201.089 181.17 199.323C181.616 197.557 182.464 195.919 183.649 194.536C183.649 194.536 183.649 194.563 183.626 194.581C182.312 197.412 182.175 200.647 183.243 203.579C184.311 206.511 186.497 208.9 189.323 210.222L191.293 211.138L194.907 212.814L197.128 217.307C197.128 217.307 216.9 257.185 217.097 257.506C218.445 259.243 220.172 260.648 222.148 261.613C224.123 262.579 226.293 263.079 228.492 263.075C230.531 263.075 232.546 262.641 234.404 261.802C235.307 261.392 236.167 260.891 236.969 260.309L274.31 233.122C275.311 232.395 276.215 231.542 276.998 230.585Z" fill="#EF927F"/>
<path d="M201.254 202.644C203.392 203.637 205.93 202.708 206.923 200.57C207.915 198.431 206.986 195.893 204.848 194.901L183.175 184.84C181.037 183.848 178.499 184.777 177.506 186.915C176.514 189.053 177.442 191.591 179.581 192.584L201.254 202.644Z" fill="#F5A491"/>
<path d="M202.809 201.867C204.063 203.864 206.698 204.465 208.694 203.211C210.69 201.957 211.292 199.322 210.037 197.326L202.969 186.075C201.715 184.079 199.08 183.478 197.084 184.732C195.088 185.986 194.486 188.621 195.74 190.617L202.809 201.867Z" fill="#F5A491"/>
<path d="M203.792 210.785C208.436 210.785 212.201 207.02 212.201 202.376C212.201 197.732 208.436 193.968 203.792 193.968C199.148 193.968 195.383 197.732 195.383 202.376C195.383 207.02 199.148 210.785 203.792 210.785Z" fill="#F5A491"/>
<path d="M236.939 290.147L180.205 286.14C169.79 285.404 160.75 293.25 160.014 303.665C159.279 314.079 167.126 323.118 177.542 323.854L234.275 327.861C244.691 328.596 253.73 320.75 254.466 310.336C255.202 299.921 247.354 290.882 236.939 290.147Z" fill="#EF927F"/>
<path d="M92.255 395.973C90.8299 393.897 90.1554 391.397 90.3428 388.885C90.5301 386.374 91.5681 384.002 93.2855 382.16L122.405 350.947C123.33 349.955 124.466 349.183 125.73 348.688C126.993 348.194 128.351 347.989 129.704 348.091C131.057 348.192 132.37 348.596 133.546 349.272C134.722 349.949 135.731 350.881 136.498 352.001L143.414 362.077C144.862 364.193 145.811 366.611 146.187 369.148C146.564 371.685 146.359 374.274 145.588 376.72C144.816 379.166 143.499 381.404 141.736 383.266C139.972 385.129 137.808 386.565 135.408 387.468L105.638 399.903C103.295 400.882 100.686 401.026 98.2496 400.311C95.813 399.595 93.6965 398.064 92.255 395.973Z" fill="#EF927F"/>
<path d="M137.46 373.623L189.081 318.686C196.097 311.216 196.409 298.804 189.241 291.325C182 283.749 170.596 284.835 164.253 293.312L117.821 355.298C114.381 359.878 115.989 367.408 121.242 372.244C126.445 377.035 133.617 377.713 137.46 373.623Z" fill="#EF927F"/>
<path d="M246.878 318.874L195.53 315.68C185.109 315.031 176.135 322.953 175.486 333.373C174.838 343.794 182.761 352.766 193.182 353.415L244.53 356.609C254.952 357.258 263.926 349.336 264.574 338.916C265.222 328.496 257.299 319.523 246.878 318.874Z" fill="#F5A491"/>
<path d="M142.195 387.495L203.274 348.597C211.518 343.413 213.698 332.109 207.703 323.568C201.712 315.044 190.299 313.263 182.65 319.272L125.4 363.606C120.559 367.403 120.399 375.514 124.86 381.839C129.312 388.182 136.988 390.77 142.195 387.495Z" fill="#F5A491"/>
<path d="M91.2199 405.33C89.9977 403.128 89.5626 400.576 89.9864 398.094C90.4103 395.612 91.6676 393.348 93.5511 391.677L127.704 361.82C128.719 360.92 129.923 360.259 131.227 359.886C132.532 359.513 133.903 359.438 135.241 359.666C136.578 359.894 137.847 360.42 138.954 361.204C140.061 361.988 140.978 363.011 141.637 364.197L147.568 374.878C148.815 377.122 149.535 379.62 149.674 382.184C149.812 384.748 149.365 387.31 148.366 389.675C147.367 392.04 145.843 394.147 143.909 395.836C141.975 397.525 139.681 398.751 137.203 399.422L104.181 410.556C101.749 411.309 99.1323 411.2 96.7712 410.248C94.4101 409.296 92.4495 407.559 91.2199 405.33Z" fill="#F5A491"/>
<path d="M264.619 337.734C264.619 338.118 264.619 338.521 264.582 338.915C264.267 343.919 261.979 348.593 258.22 351.911C254.462 355.228 249.539 356.918 244.535 356.608L195.493 353.576L149.693 382.732C149.775 386.512 148.588 390.21 146.323 393.237C144.057 396.264 140.843 398.444 137.194 399.431L104.177 410.565C102.294 411.149 100.289 411.22 98.3688 410.77C96.449 410.321 94.6841 409.366 93.2565 408.007C91.8288 406.647 90.7901 404.93 90.2477 403.034C89.7053 401.139 89.6788 399.133 90.171 397.223C90.4047 398.137 90.7557 399.016 91.2153 399.839C92.4505 402.061 94.4134 403.791 96.7738 404.737C99.1343 405.683 101.748 405.787 104.177 405.032L137.203 393.88C142.791 392.364 145.827 388.26 147.43 383.277C147.888 381.835 146.757 378.642 146.757 378.642L188.458 352.509L195.493 348.03L203.407 348.52L244.535 351.084C249.267 351.376 253.936 349.881 257.618 346.894C261.3 343.908 263.726 339.648 264.417 334.958C264.551 335.877 264.619 336.805 264.619 337.734Z" fill="#EF927F"/>
<path d="M302.561 212.648C295.355 209.166 286.69 212.185 283.208 219.391C279.726 226.597 282.745 235.261 289.951 238.743L331.726 258.929C338.932 262.411 347.596 259.392 351.078 252.186C354.56 244.98 351.541 236.315 344.335 232.833L302.561 212.648Z" fill="#F5A491"/>
<path d="M350.828 239.076C351.717 240.754 352.266 242.592 352.444 244.482C352.622 246.373 352.427 248.28 351.868 250.095C352.569 247.223 352.245 244.195 350.952 241.535C350.819 241.256 350.677 240.986 350.53 240.725C349.161 238.352 347.059 236.488 344.54 235.412C343.353 234.181 341.957 233.17 340.418 232.426L298.616 212.219C297.71 211.778 296.76 211.434 295.781 211.193C298.117 211.117 300.436 211.612 302.537 212.636L344.311 232.811C347.097 234.148 349.382 236.344 350.828 239.076Z" fill="#FFC4AF"/>
<path d="M174.253 344.049C176.485 342.479 177.022 339.397 175.452 337.164C173.882 334.932 170.799 334.395 168.567 335.965L153.454 346.594C151.222 348.164 150.685 351.247 152.255 353.479C153.825 355.711 156.908 356.248 159.14 354.678L174.253 344.049Z" fill="#FFC4AF"/>
<path d="M299.185 309.882L254.343 307.155L258.515 238.559L303.357 241.286L299.185 309.882Z" fill="white"/>
<path d="M303.338 241.297L258.5 238.572L257.446 255.93L302.559 254.131L303.338 241.297Z" fill="#EFD6D8"/>
<path d="M307.263 235.72L247.783 232.103L247.817 231.531C248.265 224.163 251.622 217.275 257.149 212.382C262.676 207.489 269.92 204.991 277.288 205.439L281.201 205.677C284.85 205.899 288.419 206.837 291.706 208.437C294.992 210.038 297.931 212.271 300.354 215.008C302.777 217.744 304.638 220.932 305.829 224.387C307.021 227.843 307.52 231.5 307.298 235.149L307.262 235.743L307.263 235.72Z" fill="#F5A491"/>
<path d="M257.344 247.707L294.955 249.994C303.274 250.5 310.428 244.166 310.934 235.847L310.934 235.842C311.44 227.523 305.106 220.369 296.787 219.863L259.177 217.576C250.858 217.07 243.703 223.404 243.197 231.723L243.197 231.728C242.691 240.047 249.025 247.201 257.344 247.707Z" fill="white"/>
<path d="M310.918 235.87C310.682 239.702 308.995 243.301 306.198 245.932C303.402 248.563 299.708 250.029 295.868 250.031C295.557 250.031 295.245 250.031 294.952 250.031L291.114 249.793C293.97 248.338 296.345 246.09 297.955 243.319C299.565 240.547 300.341 237.37 300.19 234.168C300.038 230.967 298.966 227.877 297.102 225.269C295.238 222.662 292.661 220.648 289.68 219.469L296.784 219.9C300.773 220.152 304.499 221.974 307.148 224.967C309.797 227.96 311.152 231.88 310.918 235.87Z" fill="#EFD6D8"/>
<path d="M219.309 283.849L274.332 287.272C277.717 287.482 281.026 288.357 284.073 289.847C287.119 291.336 289.842 293.411 292.086 295.953C294.33 298.496 296.051 301.455 297.151 304.663C298.251 307.87 298.708 311.263 298.496 314.648L297.882 324.521C297.294 333.978 292.973 342.813 285.87 349.084C278.768 355.354 269.465 358.546 260.009 357.958L208.254 354.738C208.161 354.732 208.074 354.69 208.012 354.62C207.95 354.55 207.918 354.458 207.924 354.364L211.904 290.391C212.019 288.542 212.864 286.814 214.252 285.587C215.641 284.36 217.46 283.735 219.309 283.849Z" fill="#58A0EB"/>
<path d="M256.401 273.024L300.911 275.793L298.289 317.935L253.779 315.166L256.401 273.024Z" fill="#58A0EB"/>
<path d="M301.428 275.789L299.001 314.646L298.795 317.93L298.378 324.516C297.15 344.21 280.113 359.159 260.318 357.95L208.257 354.744C208.21 354.742 208.165 354.73 208.122 354.71C208.08 354.69 208.042 354.661 208.011 354.626C207.98 354.591 207.956 354.55 207.941 354.506C207.926 354.462 207.92 354.415 207.923 354.368L208.225 349.504L251.277 352.161C271.067 353.388 288.109 338.421 289.341 318.727L289.429 317.353L289.754 312.132L289.955 308.843L290.871 294.247L292.067 275.217L301.428 275.789Z" fill="#2D639E"/>
<path d="M288.055 269.774C290.072 268.533 290.701 265.893 289.46 263.876C288.22 261.86 285.579 261.231 283.563 262.471L272.191 269.467C270.175 270.708 269.546 273.348 270.786 275.365C272.027 277.381 274.667 278.01 276.684 276.77L288.055 269.774Z" fill="#E1617F"/>
<path d="M288.549 277.241C293.213 277.241 296.995 273.46 296.995 268.796C296.995 264.131 293.213 260.35 288.549 260.35C283.885 260.35 280.104 264.131 280.104 268.796C280.104 273.46 283.885 277.241 288.549 277.241Z" fill="#E1617F"/>
<path d="M303.417 275.789C306.23 269.878 303.718 262.806 297.807 259.993C291.896 257.18 284.824 259.691 282.011 265.602L277.555 274.965C274.742 280.876 277.253 287.948 283.164 290.761C289.075 293.574 296.148 291.063 298.961 285.152L303.417 275.789Z" fill="#EF948C"/>
<path d="M288.764 271.358C289.782 269.22 288.873 266.663 286.736 265.645C284.598 264.628 282.04 265.536 281.023 267.674L270.708 289.348C269.69 291.486 270.598 294.044 272.736 295.061C274.874 296.079 277.432 295.171 278.449 293.033L288.764 271.358Z" fill="#EF948C"/>
<path d="M288.055 269.774C290.072 268.533 290.701 265.893 289.46 263.876C288.219 261.86 285.579 261.231 283.563 262.471L272.191 269.467C270.175 270.708 269.546 273.348 270.786 275.365C272.027 277.381 274.667 278.01 276.684 276.77L288.055 269.774Z" fill="#F5A491"/>
<path d="M288.549 277.241C293.213 277.241 296.995 273.46 296.995 268.796C296.995 264.131 293.213 260.35 288.549 260.35C283.885 260.35 280.104 264.131 280.104 268.796C280.104 273.46 283.885 277.241 288.549 277.241Z" fill="#F5A491"/>
<path d="M350.539 240.739C350.686 241 350.828 241.27 350.961 241.549C352.254 244.209 352.578 247.236 351.877 250.109C351.877 250.109 351.877 250.109 351.877 250.137C351.831 250.343 351.776 250.544 351.712 250.75C351.648 250.957 351.607 251.08 351.552 251.245C351.272 252.05 350.916 252.826 350.489 253.563C350.402 253.705 350.32 253.847 350.233 253.984C350.233 254.021 350.187 254.053 350.164 254.089C350.063 254.245 349.958 254.396 349.843 254.547C349.729 254.698 349.642 254.831 349.532 254.969C349.532 255.001 349.486 255.028 349.463 255.06C349.353 255.198 349.243 255.326 349.129 255.459L349.101 255.495C348.973 255.633 348.845 255.779 348.712 255.917C348.579 256.054 348.437 256.196 348.295 256.329C348.295 256.329 348.295 256.352 348.272 256.356C348.13 256.489 347.988 256.617 347.842 256.741C347.695 256.865 347.535 257.007 347.384 257.13C347.233 257.254 347.063 257.373 346.898 257.492C346.319 257.905 345.706 258.27 345.066 258.582L300.182 280.282C297.137 281.755 293.63 281.958 290.435 280.845C287.24 279.733 284.618 277.397 283.145 274.351C281.672 271.305 281.469 267.799 282.582 264.604C283.694 261.409 286.03 258.786 289.076 257.314L333.96 235.609C335.608 234.809 337.409 234.375 339.241 234.335C341.072 234.295 342.891 234.652 344.572 235.38C347.09 236.472 349.184 238.352 350.539 240.739Z" fill="#F5A491"/>
<path d="M303.417 275.789C306.23 269.878 303.718 262.806 297.807 259.993C291.896 257.18 284.824 259.691 282.011 265.602L277.555 274.965C274.742 280.876 277.253 287.948 283.164 290.761C289.075 293.574 296.148 291.063 298.961 285.152L303.417 275.789Z" fill="#F5A491"/>
<path d="M350.539 240.739C350.686 241 350.828 241.27 350.961 241.549C352.254 244.209 352.578 247.236 351.877 250.109C351.877 250.109 351.877 250.109 351.877 250.137C351.831 250.343 351.776 250.544 351.712 250.75C351.648 250.957 351.607 251.08 351.552 251.245C351.272 252.05 350.916 252.826 350.489 253.563C350.402 253.705 350.32 253.846 350.233 253.984C350.233 254.021 350.187 254.053 350.164 254.089C350.063 254.245 349.958 254.396 349.843 254.547C349.729 254.698 349.642 254.831 349.532 254.969C349.532 255.001 349.486 255.028 349.463 255.06C349.353 255.198 349.243 255.326 349.129 255.459L349.101 255.495C348.973 255.633 348.845 255.779 348.712 255.917C348.579 256.054 348.437 256.196 348.295 256.329C348.295 256.329 348.295 256.352 348.272 256.356C348.13 256.489 347.988 256.617 347.842 256.741C347.695 256.865 347.535 257.007 347.384 257.13C347.233 257.254 347.063 257.373 346.898 257.492C346.321 257.909 345.708 258.276 345.066 258.587L301.666 279.568L299.01 285.146C297.808 287.664 295.758 289.677 293.219 290.832C290.68 291.987 287.815 292.21 285.128 291.462C287.238 291.327 289.273 290.632 291.024 289.448C292.776 288.263 294.179 286.633 295.089 284.725L296.67 281.4L297.741 279.156L303.095 276.568L336.74 260.304L341.146 258.175C342.842 257.356 344.335 256.172 345.517 254.706C346.7 253.241 347.542 251.532 347.984 249.702C348.746 247.232 348.831 244.604 348.231 242.09C347.631 239.577 346.367 237.271 344.572 235.412C347.085 236.495 349.179 238.364 350.539 240.739Z" fill="#FFC4AF"/>
<path d="M288.764 271.358C289.782 269.22 288.873 266.663 286.736 265.645C284.598 264.628 282.04 265.536 281.023 267.674L270.708 289.348C269.69 291.486 270.598 294.044 272.736 295.061C274.874 296.079 277.432 295.171 278.449 293.033L288.764 271.358Z" fill="#F5A491"/>
<path d="M294.654 270.215L294.649 270.213C292.783 269.325 290.551 270.118 289.663 271.984L286.667 278.279C285.779 280.145 286.572 282.377 288.438 283.265L288.442 283.267C290.308 284.155 292.541 283.362 293.429 281.496L296.424 275.202C297.312 273.336 296.52 271.103 294.654 270.215Z" fill="#FFC4AF"/>
<path d="M310.142 280.865C310.555 281.699 311.566 282.041 312.398 281.628C313.231 281.215 313.571 280.204 313.158 279.37L299.636 252.095C299.222 251.261 298.212 250.919 297.379 251.332C296.546 251.745 296.206 252.756 296.62 253.59L310.142 280.865Z" fill="#6F7D96"/>
<path d="M315.38 276.935C315.794 277.769 316.804 278.11 317.637 277.697C318.47 277.284 318.81 276.274 318.396 275.44L305.934 250.302C305.521 249.468 304.511 249.127 303.678 249.539C302.845 249.952 302.505 250.963 302.918 251.797L315.38 276.935Z" fill="#4E4A65"/>
<path d="M242.937 286.094H236.525V284.871C236.525 284.314 236.746 283.779 237.141 283.385C237.535 282.991 238.07 282.769 238.627 282.769H240.858C241.415 282.769 241.95 282.991 242.344 283.385C242.738 283.779 242.96 284.314 242.96 284.871V286.094H242.937Z" fill="#A7BBD8"/>
<path d="M249.335 286.094H242.923V284.871C242.923 284.595 242.978 284.322 243.083 284.067C243.189 283.812 243.344 283.58 243.539 283.385C243.734 283.19 243.966 283.035 244.221 282.929C244.476 282.824 244.749 282.769 245.025 282.769H247.242C247.8 282.769 248.334 282.991 248.729 283.385C249.123 283.779 249.344 284.314 249.344 284.871V286.094H249.335Z" fill="#A7BBD8"/>
<path d="M255.729 286.094H249.317V284.871C249.317 284.595 249.371 284.322 249.477 284.067C249.583 283.812 249.737 283.58 249.933 283.385C250.128 283.19 250.36 283.035 250.615 282.929C250.87 282.824 251.143 282.769 251.419 282.769H253.622C254.18 282.769 254.714 282.991 255.109 283.385C255.503 283.779 255.724 284.314 255.724 284.871V286.094H255.729Z" fill="#A7BBD8"/>
<path d="M192.076 289.506H259.878C261.318 289.506 262.484 288.34 262.484 286.9C262.484 285.461 261.318 284.294 259.878 284.294H192.076C190.637 284.294 189.47 285.461 189.47 286.9C189.47 288.34 190.637 289.506 192.076 289.506Z" fill="#6F7D96"/>
<path d="M236.923 289.506H176.009C174.768 289.505 173.563 289.09 172.584 288.327C171.605 287.564 170.909 286.496 170.605 285.293L158.734 238.119C158.528 237.297 158.512 236.439 158.687 235.61C158.862 234.781 159.224 234.002 159.745 233.334C160.266 232.665 160.932 232.125 161.693 231.752C162.455 231.38 163.291 231.186 164.138 231.185H217.907C219.149 231.184 220.355 231.598 221.334 232.362C222.313 233.125 223.009 234.194 223.312 235.398L236.923 289.506Z" fill="#8797B1"/>
<path d="M158.724 238.123L170.596 285.297C170.9 286.501 171.596 287.569 172.575 288.332C173.554 289.095 174.759 289.51 176 289.511H237.867L236.552 284.299H187.478C186.236 284.299 185.029 283.884 184.049 283.121C183.07 282.358 182.373 281.29 182.069 280.085L170.202 232.911C170.059 232.349 170.005 231.768 170.042 231.189H164.133C163.286 231.19 162.449 231.383 161.687 231.755C160.926 232.127 160.259 232.668 159.737 233.337C159.216 234.005 158.854 234.784 158.678 235.613C158.503 236.442 158.518 237.301 158.724 238.123Z" fill="#6F7D96"/>
<path d="M200.325 259.585C200.325 260.79 199.923 261.961 199.183 262.913C198.443 263.864 197.407 264.541 196.239 264.838C195.071 265.134 193.837 265.033 192.733 264.549C191.629 264.066 190.718 263.228 190.143 262.168C191.175 262.616 192.321 262.733 193.421 262.501C194.522 262.269 195.523 261.701 196.287 260.874C197.05 260.048 197.537 259.005 197.682 257.889C197.826 256.774 197.619 255.641 197.091 254.648C198.05 255.069 198.867 255.76 199.441 256.637C200.015 257.513 200.322 258.537 200.325 259.585Z" fill="#A7BBD8"/>
<path d="M251.996 339.763C251.195 339.799 250.389 339.799 249.573 339.763L225.171 338.847C224.827 338.834 224.488 338.753 224.175 338.608C223.861 338.464 223.579 338.26 223.345 338.007C222.872 337.496 222.621 336.818 222.648 336.122C222.661 335.777 222.742 335.438 222.886 335.125C223.03 334.812 223.234 334.53 223.487 334.295C223.999 333.822 224.677 333.571 225.373 333.598L249.77 334.514C255.28 334.708 260.688 332.994 265.081 329.664C269.474 326.333 272.583 321.588 273.884 316.231L277.237 302.28C277.412 301.615 277.84 301.046 278.43 300.693C279.02 300.34 279.724 300.233 280.393 300.393C281.061 300.554 281.64 300.969 282.005 301.552C282.371 302.134 282.494 302.836 282.348 303.507L279.004 317.44C277.52 323.58 274.086 329.073 269.217 333.098C264.348 337.122 258.306 339.461 251.996 339.763Z" fill="#6AB0EF"/>
<path d="M269.263 180.997C269.244 181.531 269.331 182.064 269.519 182.565C269.706 183.066 269.991 183.524 270.357 183.914C270.449 184.011 270.541 184.102 270.637 184.189C271.345 184.817 272.251 185.177 273.197 185.206H273.362C274.224 185.239 275.074 184.994 275.785 184.505C276.268 184.177 276.675 183.749 276.979 183.249C277.282 182.75 277.475 182.191 277.543 181.611C277.543 181.496 277.543 181.386 277.543 181.272C277.548 181.168 277.531 181.065 277.495 180.967C277.459 180.87 277.404 180.781 277.334 180.705C277.263 180.629 277.178 180.568 277.083 180.526C276.989 180.483 276.887 180.459 276.783 180.457L270.055 180.232C269.849 180.23 269.65 180.309 269.502 180.452C269.353 180.595 269.268 180.791 269.263 180.997Z" fill="#962F4A"/>
<path d="M273.298 184.574C273.293 184.784 273.307 184.994 273.339 185.201H273.362C274.384 185.236 275.381 184.885 276.155 184.218C276.93 183.551 277.426 182.617 277.543 181.602C277.066 181.447 276.558 181.405 276.062 181.479C275.565 181.554 275.092 181.743 274.681 182.031C274.269 182.319 273.93 182.698 273.69 183.14C273.45 183.581 273.316 184.072 273.298 184.574Z" fill="#E1617F"/>
<path d="M270.22 180.241C270.22 181.038 271.434 181.721 272.968 181.771C274.502 181.821 275.716 181.226 275.794 180.425L270.22 180.241Z" fill="white"/>
</svg>
