<svg width="588" height="588" viewBox="0 0 588 588" fill="none" xmlns="http://www.w3.org/2000/svg">
<path d="M309.453 170.02C318.117 170.02 325.14 162.997 325.14 154.332C325.14 145.668 318.117 138.645 309.453 138.645C300.788 138.645 293.765 145.668 293.765 154.332C293.765 162.997 300.788 170.02 309.453 170.02Z" fill="#332D52"/>
<path d="M311.366 243.502C319.593 237.185 321.141 225.395 314.824 217.168C308.507 208.942 296.716 207.394 288.49 213.711L240.794 250.335C232.568 256.652 231.02 268.442 237.337 276.669C243.654 284.896 255.444 286.444 263.671 280.127L311.366 243.502Z" fill="#FAEEDE"/>
<path d="M252.293 284.01C263.425 284.01 272.45 274.985 272.45 263.853C272.45 252.721 263.425 243.697 252.293 243.697C241.161 243.697 232.137 252.721 232.137 263.853C232.137 274.985 241.161 284.01 252.293 284.01Z" fill="#F2E6D7"/>
<path d="M212.018 190.215L212.013 190.217C204.437 194.21 201.532 203.588 205.525 211.164L236.615 270.158C240.608 277.733 249.986 280.638 257.562 276.646L257.567 276.643C265.143 272.65 268.048 263.272 264.055 255.696L232.964 196.703C228.972 189.127 219.594 186.222 212.018 190.215Z" fill="#EF948C"/>
<path d="M211.99 216.161C219.775 219.539 228.823 215.969 232.2 208.186C235.578 200.404 232.006 191.356 224.222 187.978L211.896 182.629C204.112 179.251 195.064 182.821 191.686 190.604C188.309 198.387 191.881 207.434 199.665 210.812L211.99 216.161Z" fill="#EF948C"/>
<path d="M217.072 196.985C219.887 198.207 223.16 196.915 224.382 194.1C225.603 191.285 224.312 188.013 221.497 186.791L192.957 174.405C190.142 173.184 186.87 174.475 185.648 177.29C184.426 180.106 185.718 183.378 188.533 184.6L217.072 196.985Z" fill="#EF948C"/>
<path d="M219.08 195.988C220.778 198.544 224.227 199.24 226.783 197.542C229.34 195.844 230.036 192.396 228.338 189.839L218.764 175.424C217.066 172.868 213.618 172.172 211.061 173.869C208.505 175.567 207.809 179.016 209.507 181.572L219.08 195.988Z" fill="#EA8681"/>
<path d="M220.377 207.511C226.423 207.511 231.325 202.609 231.325 196.563C231.325 190.516 226.423 185.614 220.377 185.614C214.33 185.614 209.428 190.516 209.428 196.563C209.428 202.609 214.33 207.511 220.377 207.511Z" fill="#EA8681"/>
<path d="M311.366 243.502C319.593 237.185 321.141 225.395 314.824 217.168C308.507 208.942 296.716 207.394 288.49 213.711L240.794 250.335C232.568 256.652 231.02 268.442 237.337 276.669C243.654 284.896 255.444 286.444 263.671 280.127L311.366 243.502Z" fill="#F2E6D7"/>
<path d="M252.293 284.01C263.425 284.01 272.45 274.985 272.45 263.853C272.45 252.721 263.425 243.697 252.293 243.697C241.161 243.697 232.137 252.721 232.137 263.853C232.137 274.985 241.161 284.01 252.293 284.01Z" fill="#FAEEDE"/>
<path d="M212.018 190.215L212.013 190.217C204.437 194.21 201.532 203.588 205.525 211.164L236.615 270.158C240.608 277.733 249.986 280.638 257.562 276.646L257.567 276.643C265.143 272.65 268.048 263.272 264.055 255.696L232.964 196.703C228.972 189.127 219.594 186.222 212.018 190.215Z" fill="#EF948C"/>
<path d="M211.99 216.161C219.775 219.539 228.823 215.969 232.2 208.186C235.578 200.404 232.006 191.356 224.222 187.978L211.896 182.629C204.112 179.251 195.064 182.821 191.686 190.604C188.309 198.387 191.881 207.434 199.665 210.812L211.99 216.161Z" fill="#EF948C"/>
<path d="M191.688 190.588C192.238 189.324 192.954 188.137 193.817 187.06C192.719 190.666 192.988 194.55 194.572 197.97C196.157 201.39 198.946 204.107 202.407 205.6L203.907 206.247L209.745 208.781L214.003 216.854L239.357 264.97C240.557 267.248 242.304 269.191 244.442 270.625C246.579 272.059 249.04 272.939 251.603 273.185C254.165 273.431 256.748 273.036 259.12 272.035C261.491 271.034 263.577 269.459 265.188 267.452C264.293 270.393 262.545 273.001 260.165 274.947C257.785 276.892 254.88 278.086 251.82 278.378C248.76 278.67 245.682 278.046 242.978 276.585C240.273 275.124 238.063 272.893 236.629 270.174L207.023 213.985L199.679 210.798C197.825 209.998 196.147 208.841 194.742 207.392C193.336 205.942 192.23 204.23 191.488 202.352C190.746 200.475 190.381 198.469 190.415 196.45C190.45 194.432 190.882 192.44 191.688 190.588V190.588Z" fill="#EA8681"/>
<path d="M217.072 196.985C219.887 198.207 223.16 196.915 224.382 194.1C225.603 191.285 224.312 188.013 221.497 186.791L192.957 174.405C190.142 173.184 186.87 174.475 185.648 177.29C184.426 180.106 185.718 183.378 188.533 184.6L217.072 196.985Z" fill="#EF948C"/>
<path d="M219.08 195.988C220.778 198.544 224.227 199.24 226.783 197.542C229.34 195.844 230.036 192.396 228.338 189.839L218.764 175.424C217.066 172.868 213.618 172.172 211.061 173.869C208.505 175.567 207.809 179.016 209.507 181.572L219.08 195.988Z" fill="#EF948C"/>
<path d="M220.377 207.511C226.423 207.511 231.325 202.609 231.325 196.563C231.325 190.516 226.423 185.614 220.377 185.614C214.33 185.614 209.428 190.516 209.428 196.563C209.428 202.609 214.33 207.511 220.377 207.511Z" fill="#EF948C"/>
<path d="M310.505 263.054C326.762 263.054 339.94 249.875 339.94 233.618C339.94 217.362 326.762 204.183 310.505 204.183C294.248 204.183 281.07 217.362 281.07 233.618C281.07 249.875 294.248 263.054 310.505 263.054Z" fill="#F2E6D7"/>
<path d="M299.172 242.973L301.301 336.758C301.687 353.77 315.791 367.248 332.803 366.862L359.956 366.246C376.968 365.86 390.446 351.756 390.06 334.744L387.932 240.959C387.546 223.946 373.442 210.468 356.429 210.854L329.277 211.47C312.265 211.857 298.786 225.961 299.172 242.973Z" fill="#FAEEDE"/>
<path d="M286.704 232.32C286.53 223.603 289.825 215.173 295.866 208.886C301.907 202.598 310.198 198.968 318.916 198.794L368.384 197.804C377.102 197.63 385.531 200.926 391.819 206.966C398.106 213.007 401.737 221.298 401.911 230.016C402.053 237.138 400.792 244.218 398.198 250.852C395.604 257.486 391.729 263.544 386.794 268.681C381.859 273.817 375.96 277.932 369.435 280.789C362.91 283.646 355.886 285.189 348.764 285.332L342.014 285.467C327.632 285.753 313.725 280.314 303.353 270.348C292.98 260.381 286.992 246.702 286.704 232.32V232.32Z" fill="#FAEEDE"/>
<path d="M347.843 284.751H347.896C362.272 284.424 375.93 278.401 385.866 268.006C395.802 257.611 401.203 243.696 400.881 229.32C400.683 220.605 397.032 212.325 390.73 206.302C384.428 200.279 375.992 197.006 367.277 197.203L317.82 198.327C315.56 198.376 313.312 198.66 311.111 199.173L358.586 198.091H359.35C367.932 198.095 376.172 201.455 382.309 207.453C388.447 213.451 391.995 221.611 392.196 230.19C392.487 243.07 388.184 255.633 380.057 265.63C371.931 275.627 360.511 282.405 347.843 284.751V284.751Z" fill="#FFF7EE"/>
<path d="M325.958 174.301L326.593 202.313C326.682 206.508 328.413 210.501 331.413 213.434C334.413 216.367 338.444 218.007 342.639 218.001H343.004C345.112 217.953 347.19 217.49 349.118 216.638C351.047 215.787 352.79 214.563 354.245 213.038C355.701 211.513 356.842 209.716 357.603 207.75C358.364 205.783 358.73 203.686 358.68 201.578L358.468 191.982L358.045 173.572C357.951 169.378 356.219 165.388 353.22 162.456C350.221 159.524 346.193 157.883 341.998 157.884H341.628C337.374 157.986 333.334 159.772 330.396 162.85C327.458 165.928 325.861 170.047 325.958 174.301V174.301Z" fill="#EF948C"/>
<path d="M224.179 342.894L224.235 345.357C224.535 358.59 235.506 369.074 248.739 368.774L366.803 366.095C380.036 365.794 390.52 354.823 390.22 341.59L390.164 339.127C389.863 325.894 378.892 315.41 365.659 315.71L247.596 318.39C234.363 318.69 223.878 329.661 224.179 342.894Z" fill="#332D52"/>
<path d="M339.94 342.745V493.209H390.344V342.745C390.344 336.061 387.689 329.651 382.962 324.925C378.236 320.199 371.826 317.544 365.142 317.544C358.458 317.544 352.048 320.199 347.322 324.925C342.596 329.651 339.94 336.061 339.94 342.745V342.745Z" fill="#666DA2"/>
<path d="M339.94 342.745V493.209H353.047V365.642C353.049 361.268 354.189 356.97 356.355 353.17C358.521 349.37 361.638 346.199 365.401 343.969C369.163 341.738 373.441 340.525 377.815 340.449C382.188 340.373 386.506 341.435 390.344 343.533V342.745C390.344 336.061 387.689 329.651 382.962 324.925C378.236 320.199 371.826 317.544 365.142 317.544C358.458 317.544 352.048 320.199 347.322 324.925C342.596 329.651 339.94 336.061 339.94 342.745Z" fill="#555A8B"/>
<path d="M339.94 471.535V493.208H390.344V479.449L339.94 471.535Z" fill="#141334"/>
<path d="M173.289 476.327L218.219 494.337L223.293 481.184L272.773 353C273.965 349.911 274.536 346.618 274.455 343.309C274.374 339.999 273.641 336.738 272.3 333.711C270.958 330.685 269.034 327.952 266.636 325.669C264.239 323.387 261.415 321.599 258.326 320.407C255.237 319.216 251.944 318.644 248.635 318.725C245.325 318.807 242.064 319.539 239.038 320.88C236.011 322.222 233.278 324.147 230.996 326.544C228.713 328.942 226.925 331.766 225.733 334.854L179.369 455.03L173.307 470.712L173.289 476.327Z" fill="#332D52"/>
<path d="M203.663 514.615L168.397 501L175.856 481.68L211.121 495.295L203.663 514.615Z" fill="#EA8681"/>
<path d="M384.046 516.493H346.244V497.136H384.046V516.493Z" fill="#EF948C"/>
<path d="M325.958 174.301L326.593 202.313C326.623 203.783 326.857 205.241 327.287 206.647H328.463C334.252 206.65 339.965 205.326 345.163 202.778C350.362 200.23 354.907 196.525 358.451 191.947L358.027 173.536C357.934 169.343 356.202 165.353 353.202 162.421C350.203 159.489 346.175 157.848 341.981 157.849H341.628C339.519 157.899 337.44 158.365 335.51 159.219C333.581 160.073 331.839 161.299 330.383 162.827C328.928 164.355 327.788 166.155 327.029 168.124C326.269 170.092 325.905 172.191 325.958 174.301V174.301Z" fill="#EA8681"/>
<path d="M298.116 161.177C298.116 170.882 301.834 180.219 308.505 187.268C315.176 194.317 324.293 198.544 333.984 199.079C334.66 199.114 335.336 199.132 336.024 199.132C341.048 199.195 346.034 198.259 350.694 196.38C355.353 194.501 359.593 191.715 363.168 188.185C366.742 184.654 369.581 180.449 371.518 175.814C373.455 171.178 374.452 166.204 374.452 161.18C374.452 156.155 373.455 151.181 371.518 146.546C369.581 141.91 366.742 137.705 363.168 134.175C359.593 130.644 355.353 127.859 350.694 125.979C346.034 124.1 341.048 123.165 336.024 123.227C335.336 123.227 334.66 123.227 333.984 123.28C324.294 123.814 315.176 128.039 308.505 135.087C301.834 142.136 298.116 151.472 298.116 161.177V161.177Z" fill="#EF948C"/>
<path d="M320.407 171.42C320.408 172.532 320.629 173.634 321.057 174.661C321.485 175.688 322.111 176.621 322.9 177.405C323.094 177.599 323.3 177.782 323.488 177.952C325.006 179.202 326.914 179.883 328.88 179.875H329.227C331.352 179.866 333.396 179.06 334.955 177.616C336.514 176.172 337.475 174.196 337.647 172.078C337.647 171.843 337.647 171.608 337.647 171.373C337.649 171.154 337.607 170.938 337.525 170.736C337.442 170.534 337.32 170.351 337.165 170.197C336.852 169.888 336.429 169.717 335.989 169.72L321.983 169.756C321.555 169.772 321.151 169.956 320.856 170.267C320.562 170.578 320.401 170.991 320.407 171.42V171.42Z" fill="#962F4A"/>
<path d="M329.068 178.57C329.069 179.008 329.113 179.445 329.198 179.875H329.245C331.37 179.869 333.416 179.063 334.976 177.619C336.535 176.175 337.495 174.197 337.665 172.078C337.056 171.9 336.424 171.811 335.789 171.814C334.904 171.816 334.028 171.993 333.212 172.333C332.395 172.674 331.654 173.172 331.029 173.8C330.405 174.427 329.911 175.171 329.574 175.99C329.238 176.808 329.066 177.685 329.068 178.57V178.57Z" fill="#E1617F"/>
<path d="M322.353 169.773C322.424 171.437 324.994 172.76 328.145 172.754C331.297 172.748 333.855 171.408 333.913 169.744L322.353 169.773Z" fill="white"/>
<path d="M298.116 161.177C298.116 170.882 301.834 180.219 308.505 187.268C315.176 194.317 324.293 198.544 333.984 199.079C335.031 199.02 336.071 198.926 337.1 198.779C328.014 197.532 319.686 193.036 313.658 186.123C307.629 179.21 304.308 170.349 304.308 161.177C304.308 152.005 307.629 143.143 313.658 136.23C319.686 129.318 328.014 124.822 337.1 123.574C336.071 123.433 335.031 123.333 333.984 123.28C324.294 123.814 315.176 128.039 308.505 135.087C301.834 142.136 298.116 151.472 298.116 161.177V161.177Z" fill="#EA8681"/>
<path d="M367.382 228.685V229.079C367.753 241.615 376.114 251.552 386.322 251.705H386.98C397.6 251.429 406.032 240.663 405.796 227.668C405.679 220.471 404.15 214.649 399.916 210.445C397.384 208.111 394.375 206.355 391.096 205.3C388.419 204.507 385.579 204.434 382.864 205.089C373.903 207.252 367.194 217.078 367.382 228.685Z" fill="#FAEEDE"/>
<path d="M366.624 228.197V228.597C366.947 237.646 371.404 245.384 377.731 249.177C374.432 244.749 372.583 239.409 372.439 233.889C372.439 233.754 372.439 233.624 372.439 233.489C372.186 221.694 379.048 211.733 388.315 209.593C389.437 209.326 390.584 209.18 391.737 209.158C393.462 209.123 395.182 209.355 396.835 209.845C398.279 210.275 399.663 210.888 400.951 211.668C398.482 208.301 395.003 205.809 391.02 204.553C388.251 203.727 385.313 203.639 382.5 204.301C373.227 206.459 366.365 216.384 366.624 228.197Z" fill="#F2E6D7"/>
<path d="M408.576 221.861C404.203 212.455 393.034 208.374 383.628 212.747C374.223 217.119 370.142 228.288 374.514 237.694L399.861 292.225C404.233 301.631 415.403 305.712 424.808 301.34C434.214 296.968 438.295 285.799 433.923 276.393L408.576 221.861Z" fill="#FAEEDE"/>
<path d="M415.551 304.131C426.684 304.131 435.708 295.107 435.708 283.975C435.708 272.842 426.684 263.818 415.551 263.818C404.419 263.818 395.395 272.842 395.395 283.975C395.395 295.107 404.419 304.131 415.551 304.131Z" fill="#F2E6D7"/>
<path d="M408.576 221.861C404.203 212.455 393.034 208.374 383.628 212.747C374.223 217.119 370.142 228.288 374.514 237.694L399.861 292.225C404.233 301.631 415.403 305.712 424.808 301.34C434.214 296.968 438.295 285.799 433.923 276.393L408.576 221.861Z" fill="#FAEEDE"/>
<path d="M373.797 223.652C375.602 220.803 378.141 218.492 381.147 216.963C384.154 215.434 387.516 214.742 390.882 214.961C394.247 215.18 397.492 216.301 400.275 218.207C403.057 220.113 405.275 222.733 406.696 225.792L432.039 280.323C434.094 284.732 434.355 289.767 432.768 294.365C434.677 291.355 435.696 287.868 435.708 284.304C435.706 281.574 435.103 278.878 433.944 276.407L408.601 221.876C407.027 218.48 404.474 215.631 401.269 213.697C398.064 211.762 394.354 210.83 390.616 211.02C386.877 211.209 383.281 212.512 380.288 214.761C377.295 217.01 375.043 220.102 373.821 223.64L373.797 223.652Z" fill="#FFF7EE"/>
<path d="M415.551 304.131C426.684 304.131 435.708 295.107 435.708 283.975C435.708 272.842 426.684 263.818 415.551 263.818C404.419 263.818 395.395 272.842 395.395 283.975C395.395 295.107 404.419 304.131 415.551 304.131Z" fill="#F2E6D7"/>
<path d="M306.671 152.474H363.308C373.349 152.474 381.489 144.334 381.489 134.293C381.489 124.252 373.349 116.112 363.308 116.112H306.671C296.63 116.112 288.49 124.252 288.49 134.293C288.49 144.334 296.63 152.474 306.671 152.474Z" fill="#332D52"/>
<path d="M370.875 170.02C379.539 170.02 386.563 162.997 386.563 154.332C386.563 145.668 379.539 138.645 370.875 138.645C362.211 138.645 355.187 145.668 355.187 154.332C355.187 162.997 362.211 170.02 370.875 170.02Z" fill="#332D52"/>
<path d="M373.68 170.02C380.795 170.02 386.563 164.252 386.563 157.137C386.563 150.022 380.795 144.254 373.68 144.254C366.565 144.254 360.797 150.022 360.797 157.137C360.797 164.252 366.565 170.02 373.68 170.02Z" fill="#49466B"/>
<path d="M373.986 173.76C380.932 173.76 386.563 168.129 386.563 161.183C386.563 154.236 380.932 148.605 373.986 148.605C367.039 148.605 361.408 154.236 361.408 161.183C361.408 168.129 367.039 173.76 373.986 173.76Z" fill="#EF948C"/>
<path d="M372.998 165.099V157.255C372.998 157.059 373.045 156.866 373.134 156.691C373.224 156.517 373.353 156.366 373.512 156.251C373.671 156.137 373.855 156.061 374.049 156.031C374.242 156.001 374.44 156.017 374.627 156.079C375.709 156.425 376.652 157.107 377.322 158.025C377.992 158.943 378.353 160.049 378.353 161.186C378.353 162.322 377.992 163.429 377.322 164.346C376.652 165.264 375.709 165.946 374.627 166.292C374.439 166.353 374.24 166.368 374.045 166.336C373.851 166.305 373.666 166.228 373.507 166.111C373.349 165.995 373.219 165.842 373.131 165.666C373.042 165.49 372.997 165.296 372.998 165.099V165.099Z" fill="#EA8681"/>
<path d="M309.453 152.798C322.725 152.798 333.484 142.038 333.484 128.766C333.484 115.494 322.725 104.735 309.453 104.735C296.18 104.735 285.421 115.494 285.421 128.766C285.421 142.038 296.18 152.798 309.453 152.798Z" fill="#332D52"/>
<path d="M287.608 128.772C287.606 131.616 288.206 134.428 289.371 137.023C290.535 139.618 292.236 141.937 294.362 143.826C296.488 145.715 298.99 147.132 301.704 147.984C304.418 148.835 307.281 149.101 310.105 148.764C305.218 148.182 300.714 145.828 297.447 142.148C294.179 138.468 292.374 133.717 292.374 128.796C292.374 123.874 294.179 119.123 297.447 115.443C300.714 111.763 305.218 109.409 310.105 108.827C307.281 108.49 304.418 108.756 301.704 109.607C298.99 110.459 296.488 111.876 294.362 113.765C292.236 115.654 290.535 117.973 289.371 120.568C288.206 123.163 287.606 125.975 287.608 128.819V128.772Z" fill="#49466B"/>
<path d="M328.48 130.765C337.612 130.765 345.015 123.363 345.015 114.231C345.015 105.099 337.612 97.6962 328.48 97.6962C319.349 97.6962 311.946 105.099 311.946 114.231C311.946 123.363 319.349 130.765 328.48 130.765Z" fill="#332D52"/>
<path d="M310.105 158.207C310.147 159.362 310.636 160.456 311.467 161.258C312.299 162.06 313.41 162.508 314.565 162.508C315.721 162.508 316.831 162.06 317.663 161.258C318.495 160.456 318.983 159.362 319.025 158.207C319.027 157.859 318.985 157.511 318.902 157.172C318.67 158.148 318.116 159.018 317.329 159.64C316.542 160.262 315.568 160.6 314.565 160.6C313.562 160.6 312.589 160.262 311.802 159.64C311.015 159.018 310.461 158.148 310.229 157.172C310.146 157.511 310.104 157.859 310.105 158.207V158.207Z" fill="#332D52"/>
<path d="M334.607 158.207C334.607 159.391 335.078 160.526 335.915 161.363C336.751 162.2 337.887 162.67 339.07 162.67C340.254 162.67 341.389 162.2 342.226 161.363C343.063 160.526 343.533 159.391 343.533 158.207C343.534 157.859 343.493 157.511 343.41 157.172C343.176 158.147 342.62 159.014 341.833 159.635C341.046 160.255 340.073 160.593 339.07 160.593C338.068 160.593 337.095 160.255 336.308 159.635C335.52 159.014 334.965 158.147 334.731 157.172C334.647 157.511 334.606 157.859 334.607 158.207V158.207Z" fill="#332D52"/>
<path d="M339.946 526.107H387.974C387.974 519.738 385.444 513.63 380.941 509.127C376.437 504.623 370.329 502.093 363.96 502.093C357.591 502.093 351.483 504.623 346.98 509.127C342.476 513.63 339.946 519.738 339.946 526.107Z" fill="#332D52"/>
<path d="M339.946 526.107H351.036C351.039 520.879 352.681 515.784 355.731 511.538C358.782 507.293 363.087 504.111 368.041 502.44C364.594 501.853 361.06 502.024 357.686 502.942C354.311 503.861 351.178 505.503 348.503 507.756C345.829 510.009 343.678 512.818 342.2 515.988C340.722 519.157 339.953 522.61 339.946 526.107V526.107Z" fill="#49466B"/>
<path d="M333.296 521.762C333.298 522.232 333.345 522.7 333.437 523.161C333.482 523.386 333.539 523.607 333.608 523.826C333.674 524.042 333.752 524.254 333.843 524.461C334.101 525.079 334.45 525.656 334.878 526.172C335.019 526.342 335.166 526.501 335.325 526.66C335.481 526.816 335.646 526.963 335.819 527.101C337.058 528.124 338.615 528.684 340.223 528.683H391.473C392.836 528.686 394.145 528.155 395.122 527.204C396.099 526.254 396.664 524.959 396.698 523.596C396.732 522.234 396.231 520.912 395.303 519.915C394.375 518.917 393.093 518.322 391.731 518.257L353.312 515.676L340.558 514.829C339.41 514.77 338.265 515.001 337.23 515.5C336.929 515.647 336.638 515.814 336.359 515.999C336.088 516.181 335.827 516.377 335.577 516.587C335.33 516.811 335.1 517.053 334.889 517.311C334.748 517.481 334.613 517.658 334.49 517.84C334.045 518.495 333.719 519.224 333.525 519.992C333.466 520.213 333.419 520.436 333.384 520.662C333.326 521.026 333.296 521.393 333.296 521.762Z" fill="#332D52"/>
<path d="M333.296 521.762C333.298 522.232 333.345 522.7 333.437 523.161C333.479 523.386 333.536 523.608 333.608 523.826C333.671 524.043 333.75 524.255 333.843 524.461C334.101 525.079 334.45 525.656 334.878 526.172C335.019 526.342 335.166 526.501 335.325 526.66C335.481 526.816 335.646 526.963 335.819 527.101C337.058 528.124 338.615 528.684 340.223 528.683H356.657C355.12 528.684 353.626 528.174 352.41 527.232C351.195 526.291 350.327 524.972 349.944 523.483C349.56 521.994 349.683 520.42 350.293 519.009C350.903 517.597 351.965 516.429 353.312 515.688L340.558 514.841C339.41 514.782 338.265 515.013 337.23 515.511C336.629 515.801 336.073 516.176 335.577 516.623C335.33 516.846 335.1 517.088 334.889 517.346C334.746 517.514 334.612 517.691 334.49 517.875C334.045 518.531 333.719 519.259 333.525 520.027C333.466 520.248 333.419 520.472 333.384 520.697C333.328 521.049 333.298 521.405 333.296 521.762V521.762Z" fill="#49466B"/>
<path d="M205.64 520.671L167.051 504.45L173.166 489.901L205.484 503.486C207.147 504.185 208.464 505.517 209.146 507.187C209.828 508.858 209.818 510.731 209.119 512.394L205.64 520.671Z" fill="#49466B"/>
<path d="M137.892 497.372L182.168 515.982C184.636 510.11 184.67 503.499 182.264 497.602C179.857 491.706 175.207 487.006 169.335 484.538C163.464 482.071 156.852 482.036 150.956 484.443C145.059 486.85 140.36 491.5 137.892 497.372V497.372Z" fill="#332D52"/>
<path d="M137.892 497.372L150.334 502.599C152.345 497.812 155.854 493.806 160.334 491.181C164.814 488.556 170.024 487.454 175.183 488.04C172.288 485.688 168.885 484.042 165.243 483.233C161.602 482.424 157.822 482.474 154.204 483.379C150.585 484.285 147.227 486.021 144.396 488.449C141.564 490.878 139.338 493.933 137.892 497.372Z" fill="#49466B"/>
<path d="M208.569 518.563L144.965 488.122C144.12 487.718 143.201 487.489 142.264 487.451C141.327 487.412 140.392 487.564 139.516 487.897C138.64 488.23 137.84 488.738 137.166 489.389C136.491 490.04 135.956 490.821 135.593 491.686C135.24 492.524 135.055 493.424 135.05 494.334C135.045 495.244 135.219 496.146 135.562 496.988C135.906 497.831 136.412 498.597 137.052 499.244C137.692 499.891 138.453 500.406 139.291 500.758L204.295 528.083C205.57 528.618 207.007 528.626 208.288 528.103C209.569 527.58 210.59 526.571 211.127 525.296C211.647 524.06 211.671 522.671 211.195 521.418C210.719 520.164 209.779 519.142 208.569 518.563V518.563Z" fill="#332D52"/>
<path d="M135.593 491.691C134.882 493.384 134.872 495.29 135.565 496.991C136.259 498.691 137.599 500.046 139.291 500.758L154.438 507.126C152.985 506.515 151.784 505.426 151.033 504.04C150.282 502.653 150.027 501.052 150.309 499.501C150.592 497.95 151.395 496.541 152.586 495.508C153.777 494.476 155.285 493.88 156.861 493.82L144.971 488.122C144.125 487.717 143.205 487.488 142.267 487.449C141.33 487.41 140.394 487.563 139.517 487.896C138.64 488.23 137.84 488.739 137.165 489.391C136.491 490.043 135.956 490.826 135.593 491.691V491.691Z" fill="#49466B"/>
<path d="M415.557 312.34L419.526 323.653L426.506 343.58L491.386 528.712H505.856L456.123 343.58L450.773 323.653L447.733 312.34H415.557Z" fill="#441242"/>
<path d="M419.526 323.653L426.506 343.58H456.123L450.773 323.653H419.526Z" fill="#2F073A"/>
<path d="M208.305 312.34L204.336 323.653L197.356 343.58L132.476 528.712H118.006L167.739 343.58L173.09 323.653L176.13 312.34H208.305Z" fill="#441242"/>
<path d="M204.336 323.653L197.356 343.58H167.739L173.09 323.653H204.336Z" fill="#2F073A"/>
<path d="M488.34 332.267H143.672C141.386 332.267 139.193 331.359 137.577 329.742C135.96 328.126 135.052 325.933 135.052 323.647V312.346H496.966V323.641C496.967 324.774 496.744 325.896 496.311 326.943C495.878 327.99 495.242 328.941 494.441 329.742C493.64 330.543 492.689 331.179 491.642 331.612C490.595 332.045 489.473 332.268 488.34 332.267V332.267Z" fill="#441242"/>
<path d="M99.4896 317.661H532.522C536.887 317.661 540.425 314.123 540.425 309.758C540.425 305.394 536.887 301.856 532.522 301.856H99.4896C95.125 301.856 91.5868 305.394 91.5868 309.758C91.5868 314.123 95.125 317.661 99.4896 317.661Z" fill="#D8BA9F"/>
<path d="M91.5869 309.758C91.5884 311.854 92.4215 313.863 93.9032 315.345C95.3849 316.826 97.3941 317.66 99.4896 317.661H532.522C534.618 317.661 536.628 316.829 538.11 315.346C539.592 313.864 540.425 311.854 540.425 309.758C540.427 308.825 540.262 307.899 539.937 307.024C539.377 308.54 538.367 309.847 537.041 310.771C535.715 311.694 534.138 312.188 532.522 312.187H99.4896C98.4517 312.188 97.4238 311.984 96.4651 311.587C95.5064 311.189 94.6358 310.606 93.9036 309.87C93.0926 309.068 92.47 308.096 92.0808 307.024C91.7539 307.899 91.5866 308.825 91.5869 309.758V309.758Z" fill="#C89F87"/>
<path d="M483.853 327.681C485.467 327.681 486.776 326.372 486.776 324.758C486.776 323.144 485.467 321.836 483.853 321.836C482.239 321.836 480.931 323.144 480.931 324.758C480.931 326.372 482.239 327.681 483.853 327.681Z" fill="#D8BA9F"/>
<path d="M483.218 328.516C485.186 328.516 486.782 326.92 486.782 324.952C486.782 322.984 485.186 321.389 483.218 321.389C481.25 321.389 479.655 322.984 479.655 324.952C479.655 326.92 481.25 328.516 483.218 328.516Z" fill="#2F073A"/>
<path d="M483.853 327.681C485.467 327.681 486.776 326.372 486.776 324.758C486.776 323.144 485.467 321.836 483.853 321.836C482.239 321.836 480.931 323.144 480.931 324.758C480.931 326.372 482.239 327.681 483.853 327.681Z" fill="#D8BA9F"/>
<path d="M480.931 324.758C480.931 325.538 481.241 326.286 481.792 326.837C482.344 327.389 483.091 327.698 483.871 327.698H484.177C483.48 327.594 482.844 327.243 482.384 326.71C481.925 326.176 481.672 325.495 481.672 324.791C481.672 324.086 481.925 323.405 482.384 322.872C482.844 322.338 483.48 321.987 484.177 321.883C484.075 321.877 483.973 321.877 483.871 321.883C483.102 321.883 482.364 322.184 481.815 322.721C481.265 323.259 480.948 323.99 480.931 324.758Z" fill="#C89F87"/>
<path d="M483.853 326.34C484.002 326.387 484.156 326.411 484.312 326.411C484.755 326.411 485.18 326.235 485.493 325.921C485.806 325.608 485.982 325.184 485.982 324.741C485.982 324.298 485.806 323.873 485.493 323.56C485.18 323.247 484.755 323.071 484.312 323.071C484.156 323.07 484.002 323.094 483.853 323.141C484.204 323.237 484.513 323.446 484.734 323.735C484.955 324.024 485.074 324.377 485.074 324.741C485.074 325.104 484.955 325.458 484.734 325.747C484.513 326.036 484.204 326.244 483.853 326.34V326.34Z" fill="#F5EAE4"/>
<path d="M467.507 327.681C469.121 327.681 470.429 326.372 470.429 324.758C470.429 323.144 469.121 321.836 467.507 321.836C465.893 321.836 464.585 323.144 464.585 324.758C464.585 326.372 465.893 327.681 467.507 327.681Z" fill="#D8BA9F"/>
<path d="M466.872 328.516C468.84 328.516 470.435 326.92 470.435 324.952C470.435 322.984 468.84 321.389 466.872 321.389C464.904 321.389 463.309 322.984 463.309 324.952C463.309 326.92 464.904 328.516 466.872 328.516Z" fill="#2F073A"/>
<path d="M467.507 327.681C469.121 327.681 470.429 326.372 470.429 324.758C470.429 323.144 469.121 321.836 467.507 321.836C465.893 321.836 464.585 323.144 464.585 324.758C464.585 326.372 465.893 327.681 467.507 327.681Z" fill="#D8BA9F"/>
<path d="M464.591 324.758C464.591 325.538 464.9 326.286 465.452 326.837C466.003 327.389 466.751 327.698 467.531 327.698H467.836C467.14 327.594 466.504 327.243 466.044 326.71C465.584 326.176 465.331 325.495 465.331 324.791C465.331 324.086 465.584 323.405 466.044 322.872C466.504 322.338 467.14 321.987 467.836 321.883C467.735 321.877 467.632 321.877 467.531 321.883C466.762 321.883 466.024 322.184 465.474 322.721C464.925 323.258 464.607 323.99 464.591 324.758Z" fill="#C89F87"/>
<path d="M467.507 326.34C467.655 326.387 467.81 326.411 467.966 326.411C468.409 326.411 468.833 326.235 469.146 325.921C469.46 325.608 469.636 325.184 469.636 324.741C469.636 324.298 469.46 323.873 469.146 323.56C468.833 323.247 468.409 323.071 467.966 323.071C467.81 323.07 467.655 323.094 467.507 323.141C467.858 323.237 468.167 323.446 468.388 323.735C468.608 324.024 468.728 324.377 468.728 324.741C468.728 325.104 468.608 325.458 468.388 325.747C468.167 326.036 467.858 326.244 467.507 326.34V326.34Z" fill="#F5EAE4"/>
<path d="M149.734 327.681C151.348 327.681 152.657 326.372 152.657 324.758C152.657 323.144 151.348 321.836 149.734 321.836C148.12 321.836 146.812 323.144 146.812 324.758C146.812 326.372 148.12 327.681 149.734 327.681Z" fill="#D8BA9F"/>
<path d="M150.369 328.516C152.337 328.516 153.933 326.92 153.933 324.952C153.933 322.984 152.337 321.389 150.369 321.389C148.401 321.389 146.806 322.984 146.806 324.952C146.806 326.92 148.401 328.516 150.369 328.516Z" fill="#2F073A"/>
<path d="M149.734 327.681C151.348 327.681 152.657 326.372 152.657 324.758C152.657 323.144 151.348 321.836 149.734 321.836C148.12 321.836 146.812 323.144 146.812 324.758C146.812 326.372 148.12 327.681 149.734 327.681Z" fill="#D8BA9F"/>
<path d="M152.657 324.758C152.657 325.538 152.347 326.286 151.795 326.837C151.244 327.389 150.496 327.698 149.717 327.698H149.411C150.107 327.594 150.743 327.243 151.203 326.71C151.663 326.176 151.916 325.495 151.916 324.791C151.916 324.086 151.663 323.405 151.203 322.872C150.743 322.338 150.107 321.987 149.411 321.883C149.513 321.877 149.615 321.877 149.717 321.883C150.485 321.883 151.223 322.184 151.773 322.721C152.322 323.259 152.64 323.99 152.657 324.758V324.758Z" fill="#C89F87"/>
<path d="M149.734 326.34C149.586 326.387 149.431 326.411 149.276 326.411C148.833 326.411 148.408 326.235 148.095 325.921C147.782 325.608 147.606 325.184 147.606 324.741C147.606 324.298 147.782 323.873 148.095 323.56C148.408 323.247 148.833 323.071 149.276 323.071C149.431 323.07 149.586 323.094 149.734 323.141C149.387 323.241 149.082 323.451 148.864 323.74C148.647 324.028 148.53 324.379 148.53 324.741C148.53 325.102 148.647 325.453 148.864 325.742C149.082 326.03 149.387 326.24 149.734 326.34V326.34Z" fill="#F5EAE4"/>
<path d="M166.081 327.681C167.695 327.681 169.003 326.372 169.003 324.758C169.003 323.144 167.695 321.836 166.081 321.836C164.467 321.836 163.158 323.144 163.158 324.758C163.158 326.372 164.467 327.681 166.081 327.681Z" fill="#D8BA9F"/>
<path d="M166.716 328.516C168.684 328.516 170.279 326.92 170.279 324.952C170.279 322.984 168.684 321.389 166.716 321.389C164.748 321.389 163.152 322.984 163.152 324.952C163.152 326.92 164.748 328.516 166.716 328.516Z" fill="#2F073A"/>
<path d="M166.081 327.681C167.695 327.681 169.003 326.372 169.003 324.758C169.003 323.144 167.695 321.836 166.081 321.836C164.467 321.836 163.158 323.144 163.158 324.758C163.158 326.372 164.467 327.681 166.081 327.681Z" fill="#D8BA9F"/>
<path d="M168.997 324.758C168.997 325.538 168.687 326.286 168.136 326.837C167.585 327.389 166.837 327.698 166.057 327.698H165.751C166.448 327.594 167.084 327.243 167.544 326.71C168.004 326.176 168.256 325.495 168.256 324.791C168.256 324.086 168.004 323.405 167.544 322.872C167.084 322.338 166.448 321.987 165.751 321.883C165.853 321.877 165.955 321.877 166.057 321.883C166.826 321.883 167.564 322.184 168.113 322.721C168.663 323.259 168.98 323.99 168.997 324.758V324.758Z" fill="#C89F87"/>
<path d="M166.081 326.34C165.932 326.387 165.778 326.411 165.622 326.411C165.179 326.411 164.754 326.235 164.441 325.921C164.128 325.608 163.952 325.184 163.952 324.741C163.952 324.298 164.128 323.873 164.441 323.56C164.754 323.247 165.179 323.071 165.622 323.071C165.778 323.07 165.932 323.094 166.081 323.141C165.73 323.237 165.421 323.446 165.2 323.735C164.98 324.024 164.86 324.377 164.86 324.741C164.86 325.104 164.98 325.458 165.2 325.747C165.421 326.036 165.73 326.244 166.081 326.34V326.34Z" fill="#F5EAE4"/>
<path d="M343.86 282.984C346.916 282.704 349.166 280 348.887 276.944C348.607 273.888 345.903 271.637 342.847 271.917L325.614 273.495C322.558 273.774 320.307 276.479 320.587 279.535C320.867 282.591 323.571 284.841 326.627 284.562L343.86 282.984Z" fill="#EA8681"/>
<path d="M345.021 293.089C351.068 293.089 355.969 288.187 355.969 282.14C355.969 276.093 351.068 271.191 345.021 271.191C338.974 271.191 334.072 276.093 334.072 282.14C334.072 288.187 338.974 293.089 345.021 293.089Z" fill="#EA8681"/>
<path d="M335.502 286.498L335.502 286.504C335.417 295.067 342.29 302.077 350.853 302.163L417.535 302.826C426.098 302.911 433.109 296.039 433.194 287.476L433.194 287.47C433.279 278.907 426.406 271.896 417.843 271.811L351.161 271.147C342.598 271.062 335.588 277.935 335.502 286.498Z" fill="#EF948C"/>
<path d="M358.233 298.828C364.904 293.583 366.06 283.924 360.815 277.255C355.571 270.586 345.913 269.432 339.242 274.677L328.681 282.982C322.011 288.228 320.855 297.886 326.099 304.555C331.343 311.224 341.002 312.378 347.672 307.133L358.233 298.828Z" fill="#EF948C"/>
<path d="M343.779 285.243C346.191 283.346 346.609 279.853 344.712 277.44C342.815 275.028 339.322 274.61 336.909 276.507L312.454 295.738C310.041 297.635 309.624 301.128 311.521 303.541C313.417 305.953 316.911 306.371 319.323 304.474L343.779 285.243Z" fill="#EF948C"/>
<path d="M343.86 282.984C346.916 282.704 349.166 280 348.887 276.944C348.607 273.888 345.903 271.637 342.847 271.917L325.614 273.495C322.558 273.774 320.307 276.479 320.587 279.535C320.867 282.591 323.571 284.841 326.627 284.562L343.86 282.984Z" fill="#EF948C"/>
<path d="M345.021 293.089C351.067 293.089 355.969 288.187 355.969 282.14C355.969 276.093 351.067 271.191 345.021 271.191C338.974 271.191 334.072 276.093 334.072 282.14C334.072 288.187 338.974 293.089 345.021 293.089Z" fill="#EF948C"/>
<path d="M335.502 286.498L335.502 286.504C335.417 295.067 342.29 302.077 350.853 302.163L417.535 302.826C426.098 302.911 433.109 296.039 433.194 287.476L433.194 287.47C433.279 278.907 426.406 271.896 417.843 271.811L351.161 271.147C342.598 271.062 335.588 277.935 335.502 286.498Z" fill="#EF948C"/>
<path d="M358.233 298.828C364.904 293.583 366.06 283.924 360.815 277.255C355.571 270.586 345.913 269.432 339.242 274.677L328.681 282.982C322.011 288.228 320.855 297.886 326.099 304.555C331.343 311.224 341.002 312.378 347.672 307.133L358.233 298.828Z" fill="#EF948C"/>
<path d="M324.605 300.668C327.124 303.871 330.812 305.942 334.858 306.426C338.903 306.91 342.976 305.768 346.179 303.249L347.943 301.856L352.459 298.328L358.821 298.386L415.963 298.974C420.076 299.015 424.037 297.421 426.974 294.542C429.912 291.663 431.585 287.735 431.627 283.622V283.416C431.628 282.159 431.474 280.907 431.169 279.688C432.484 282.008 433.172 284.63 433.168 287.297V287.456C433.149 289.492 432.73 291.504 431.934 293.379C431.137 295.253 429.98 296.952 428.527 298.379C427.074 299.805 425.354 300.932 423.466 301.694C421.577 302.456 419.557 302.839 417.521 302.82L354.017 302.197L347.726 307.142C345.706 308.727 343.322 309.782 340.791 310.21C338.259 310.637 335.661 310.423 333.233 309.588C330.806 308.753 328.626 307.324 326.893 305.429C325.159 303.535 323.928 301.237 323.312 298.745C323.694 299.418 324.127 300.06 324.605 300.668V300.668Z" fill="#F3A6A0"/>
<path d="M343.779 285.243C346.191 283.346 346.609 279.853 344.712 277.44C342.815 275.028 339.322 274.61 336.909 276.507L312.454 295.738C310.041 297.635 309.624 301.128 311.521 303.541C313.417 305.953 316.911 306.371 319.323 304.474L343.779 285.243Z" fill="#EF948C"/>
<path d="M350.456 294.108C352.562 292.452 352.927 289.403 351.271 287.297C349.615 285.191 346.565 284.826 344.459 286.482L337.359 292.065C335.253 293.721 334.889 296.77 336.545 298.876C338.201 300.982 341.251 301.347 343.357 299.691L350.456 294.108Z" fill="#F3A6A0"/>
<path d="M307.118 174.801C316.078 174.801 323.341 167.537 323.341 158.578C323.341 149.618 316.078 142.355 307.118 142.355C298.159 142.355 290.895 149.618 290.895 158.578C290.895 167.537 298.159 174.801 307.118 174.801Z" stroke="white" stroke-width="2.85" stroke-miterlimit="10"/>
<path d="M345.397 174.801C354.357 174.801 361.62 167.537 361.62 158.578C361.62 149.618 354.357 142.355 345.397 142.355C336.437 142.355 329.174 149.618 329.174 158.578C329.174 167.537 336.437 174.801 345.397 174.801Z" stroke="white" stroke-width="2.85" stroke-miterlimit="10"/>
<path d="M323.329 159.213H329.186" stroke="white" stroke-width="2.85" stroke-miterlimit="10"/>
<path d="M173.289 476.327L218.219 494.337L223.293 481.184L179.369 455.03L173.307 470.712L173.289 476.327Z" fill="#141334"/>
<path d="M238.898 296.958H229.702V295.194C229.702 294.392 230.021 293.623 230.587 293.057C231.154 292.49 231.923 292.171 232.724 292.171H235.882C236.684 292.171 237.452 292.49 238.019 293.057C238.586 293.623 238.904 294.392 238.904 295.194V296.958H238.898Z" fill="#ABB2D8"/>
<path d="M248.095 296.958H238.898V295.194C238.903 294.396 239.223 293.633 239.788 293.07C240.353 292.507 241.117 292.191 241.915 292.189H245.072C245.874 292.189 246.643 292.507 247.21 293.074C247.776 293.641 248.095 294.41 248.095 295.211V296.975V296.958Z" fill="#ABB2D8"/>
<path d="M257.297 296.958H248.101V295.194C248.101 294.392 248.419 293.623 248.986 293.057C249.553 292.49 250.321 292.171 251.123 292.171H254.281C255.082 292.171 255.851 292.49 256.418 293.057C256.984 293.623 257.303 294.392 257.303 295.194V296.958H257.297Z" fill="#ABB2D8"/>
<path d="M266.493 296.958H257.297V295.194C257.297 294.392 257.615 293.623 258.182 293.057C258.749 292.49 259.518 292.171 260.319 292.171H263.477C264.278 292.171 265.047 292.49 265.614 293.057C266.181 293.623 266.499 294.392 266.499 295.194V296.958H266.493Z" fill="#ABB2D8"/>
<path d="M275.69 296.958H266.493V295.194C266.493 294.392 266.812 293.623 267.379 293.057C267.945 292.49 268.714 292.171 269.516 292.171H272.673C273.475 292.171 274.244 292.49 274.81 293.057C275.377 293.623 275.696 294.392 275.696 295.194V296.958H275.69Z" fill="#ABB2D8"/>
<path d="M284.892 296.958H275.696V295.194C275.696 294.392 276.014 293.623 276.581 293.057C277.148 292.49 277.916 292.171 278.718 292.171H281.87C282.671 292.171 283.44 292.49 284.007 293.057C284.573 293.623 284.892 294.392 284.892 295.194V296.958Z" fill="#ABB2D8"/>
<path d="M294.082 296.958H284.886V295.194C284.891 294.394 285.212 293.629 285.779 293.066C286.347 292.503 287.115 292.187 287.914 292.189H291.072C291.873 292.189 292.642 292.507 293.209 293.074C293.776 293.641 294.094 294.41 294.094 295.211V296.975L294.082 296.958Z" fill="#ABB2D8"/>
<path d="M205.077 301.856H302.567C304.636 301.856 306.313 300.179 306.313 298.11V298.104C306.313 296.036 304.636 294.359 302.567 294.359H205.077C203.008 294.359 201.331 296.036 201.331 298.104V298.11C201.331 300.179 203.008 301.856 205.077 301.856Z" fill="#5D6295"/>
<path d="M230.249 301.856H142.637C140.853 301.856 139.119 301.26 137.712 300.163C136.305 299.066 135.305 297.53 134.87 295.799L117.818 227.968C117.521 226.786 117.497 225.551 117.749 224.359C118.001 223.167 118.522 222.047 119.271 221.087C120.021 220.126 120.979 219.348 122.074 218.813C123.17 218.279 124.372 218.001 125.591 218.001H202.901C204.686 218.001 206.419 218.597 207.826 219.694C209.233 220.791 210.234 222.327 210.669 224.057L230.249 301.856Z" fill="#666DA2"/>
<path d="M117.812 227.968L134.864 295.799C135.301 297.53 136.302 299.066 137.71 300.164C139.118 301.262 140.852 301.86 142.637 301.862H230.249L228.362 294.365H159.154C157.368 294.364 155.634 293.767 154.226 292.669C152.818 291.571 151.817 290.034 151.381 288.302L134.311 220.5C134.108 219.691 134.031 218.857 134.082 218.025H125.585C124.369 218.025 123.169 218.303 122.076 218.836C120.983 219.37 120.026 220.145 119.277 221.103C118.528 222.061 118.006 223.177 117.753 224.366C117.499 225.556 117.519 226.787 117.812 227.968V227.968Z" fill="#5D6295"/>
<path d="M168.544 266.558C170.967 266.558 172.931 264.594 172.931 262.172C172.931 259.749 170.967 257.785 168.544 257.785C166.122 257.785 164.158 259.749 164.158 262.172C164.158 264.594 166.122 266.558 168.544 266.558Z" fill="#ABB2D8"/>
<path d="M162.676 268.716C163.368 269.798 164.295 270.712 165.386 271.388C166.478 272.065 167.708 272.489 168.986 272.628C170.263 272.766 171.555 272.617 172.767 272.19C173.978 271.763 175.079 271.07 175.987 270.162C176.896 269.253 177.589 268.152 178.016 266.941C178.443 265.729 178.592 264.437 178.453 263.16C178.315 261.882 177.891 260.652 177.214 259.561C176.537 258.469 175.624 257.542 174.542 256.85C175.59 258.5 176.045 260.458 175.831 262.401C175.617 264.344 174.747 266.156 173.364 267.539C171.982 268.921 170.17 269.791 168.227 270.005C166.284 270.219 164.326 269.764 162.676 268.716V268.716Z" fill="#ABB2D8"/>
<path d="M339.94 497.248H390.344L395.483 484.294L330.768 474.134L339.94 497.248Z" fill="#332D52"/>
<path d="M386.157 494.996C387.895 494.996 389.303 493.588 389.303 491.85C389.303 490.113 387.895 488.704 386.157 488.704C384.42 488.704 383.011 490.113 383.011 491.85C383.011 493.588 384.42 494.996 386.157 494.996Z" fill="#141334"/>
<path d="M386.34 494.996C387.606 494.996 388.633 493.969 388.633 492.703C388.633 491.436 387.606 490.41 386.34 490.41C385.073 490.41 384.046 491.436 384.046 492.703C384.046 493.969 385.073 494.996 386.34 494.996Z" fill="#666DA2"/>
<path d="M386.316 494.202C386.418 494.211 386.52 494.211 386.622 494.202C387.012 494.178 387.378 494.006 387.645 493.722C387.913 493.437 388.061 493.061 388.061 492.67C388.061 492.28 387.913 491.904 387.645 491.619C387.378 491.335 387.012 491.163 386.622 491.139C386.519 491.139 386.416 491.15 386.316 491.174C386.658 491.249 386.964 491.438 387.184 491.711C387.404 491.984 387.523 492.323 387.523 492.673C387.523 493.024 387.404 493.363 387.184 493.636C386.964 493.909 386.658 494.098 386.316 494.173V494.202Z" fill="#332D52"/>
<path d="M386.692 490.786C386.563 490.757 386.431 490.743 386.298 490.745C385.798 490.772 385.328 490.99 384.984 491.354C384.639 491.718 384.448 492.199 384.448 492.7C384.448 493.201 384.639 493.682 384.984 494.046C385.328 494.41 385.798 494.628 386.298 494.655C386.431 494.657 386.563 494.643 386.692 494.614C386.255 494.519 385.863 494.278 385.582 493.93C385.301 493.581 385.147 493.147 385.147 492.7C385.147 492.252 385.301 491.818 385.582 491.47C385.863 491.122 386.255 490.88 386.692 490.786V490.786Z" fill="#9DA5D1"/>
<path d="M169.526 479.391L216.308 498.142L225.898 488.034L169.609 454.524L169.526 479.391Z" fill="#262344"/>
<path d="M214.679 492.826C216.416 492.826 217.825 491.418 217.825 489.681C217.825 487.943 216.416 486.535 214.679 486.535C212.941 486.535 211.533 487.943 211.533 489.681C211.533 491.418 212.941 492.826 214.679 492.826Z" fill="#141334"/>
<path d="M214.861 492.826C216.128 492.826 217.154 491.8 217.154 490.533C217.154 489.267 216.128 488.24 214.861 488.24C213.595 488.24 212.568 489.267 212.568 490.533C212.568 491.8 213.595 492.826 214.861 492.826Z" fill="#666DA2"/>
<path d="M214.861 492.027C214.961 492.05 215.064 492.062 215.167 492.062C215.557 492.038 215.923 491.866 216.19 491.581C216.458 491.297 216.607 490.921 216.607 490.53C216.607 490.14 216.458 489.764 216.19 489.479C215.923 489.195 215.557 489.023 215.167 488.998C215.065 488.99 214.963 488.99 214.861 488.998C215.203 489.073 215.51 489.263 215.729 489.535C215.949 489.808 216.069 490.148 216.069 490.498C216.069 490.848 215.949 491.188 215.729 491.46C215.51 491.733 215.203 491.923 214.861 491.997V492.027Z" fill="#332D52"/>
<path d="M215.208 488.628C215.079 488.599 214.947 488.585 214.814 488.587C214.314 488.614 213.844 488.832 213.499 489.196C213.155 489.559 212.963 490.041 212.963 490.542C212.963 491.043 213.155 491.524 213.499 491.888C213.844 492.252 214.314 492.47 214.814 492.497C214.947 492.498 215.079 492.485 215.208 492.456C214.771 492.361 214.379 492.12 214.098 491.772C213.816 491.423 213.663 490.989 213.663 490.542C213.663 490.094 213.816 489.66 214.098 489.312C214.379 488.964 214.771 488.722 215.208 488.628V488.628Z" fill="#9DA5D1"/>
</svg>
