<svg width="456" height="456" viewBox="0 0 456 456" fill="none" xmlns="http://www.w3.org/2000/svg">
<path d="M443.296 286.459V291.206C443.296 301.605 440.613 311.827 435.506 320.885C430.399 329.944 423.041 337.53 414.144 342.912C412.398 343.971 410.597 344.938 408.749 345.808C408.43 345.963 408.106 346.113 407.783 346.264C405.559 347.273 403.275 348.143 400.943 348.867L400.309 349.059C394.665 350.741 388.806 351.589 382.917 351.576H358.416C355.113 351.577 351.945 352.89 349.61 355.227C347.275 357.563 345.963 360.731 345.963 364.034V410.509H137.712V364.039C137.715 361.533 136.961 359.085 135.548 357.016C134.135 354.947 132.13 353.352 129.796 352.442C129.445 352.306 129.089 352.183 128.724 352.073C128.274 351.944 127.818 351.84 127.356 351.763C126.662 351.64 125.959 351.579 125.254 351.581H84.0408C83.3887 351.581 82.7458 351.581 82.0982 351.553C77.1449 351.405 72.2266 350.669 67.447 349.36C66.9317 349.219 66.4164 349.073 65.9057 348.904C62.707 347.941 59.5914 346.721 56.5896 345.256C51.945 342.995 47.5981 340.167 43.6483 336.838C42.2712 335.68 40.9473 334.464 39.6766 333.19C32.0104 325.517 26.4633 315.988 23.5759 305.533C20.6884 295.077 20.5592 284.052 23.2009 273.532C25.8425 263.012 31.1648 253.356 38.649 245.505C46.1332 237.654 55.5239 231.876 65.9057 228.734C66.4164 228.579 66.9317 228.433 67.447 228.278C72.8539 226.799 78.4351 226.052 84.0408 226.057H132.4C133.516 226.058 134.63 225.943 135.724 225.715L135.856 225.688C138.916 225.028 141.72 223.498 143.932 221.283C144.379 220.837 144.797 220.363 145.186 219.865V219.842C145.645 219.264 146.062 218.655 146.435 218.018V217.995C147.887 215.519 148.659 212.702 148.674 209.831C148.688 206.96 147.943 204.136 146.516 201.645C145.088 199.154 143.028 197.084 140.543 195.645C138.059 194.206 135.239 193.448 132.368 193.449H50.8303C43.2949 193.445 35.9297 191.207 29.6653 187.019C23.4008 182.831 18.518 176.88 15.6338 169.919C12.7495 162.957 11.9931 155.297 13.4601 147.906C14.9271 140.514 18.5518 133.724 23.8762 128.391L24.168 128.136L24.2866 128.022C31.3945 121.106 40.9223 117.24 50.8394 117.247C58.6823 117.245 66.2432 114.322 72.048 109.048C72.5359 108.592 73.0056 108.136 73.4662 107.68C78.7292 102.299 81.8889 95.2094 82.3718 87.698C82.4174 87.014 82.4402 86.33 82.4402 85.6277C82.4402 73.7854 87.1446 62.4281 95.5184 54.0543C103.892 45.6805 115.249 40.9762 127.092 40.9762H385.188C393.386 40.9756 401.366 43.6173 407.945 48.5095C414.523 53.4018 419.35 60.284 421.709 68.1356C422.769 71.6948 423.31 75.3885 423.314 79.1024C423.314 80.4248 423.246 81.7289 423.118 83.0148C422.956 84.5903 422.697 86.1543 422.343 87.698C420.396 96.0933 415.664 103.582 408.917 108.944C402.17 114.305 393.806 117.224 385.188 117.224H354.18C351.469 117.219 348.78 117.716 346.25 118.688C345.327 119.039 344.43 119.453 343.564 119.928C340.057 121.856 337.133 124.691 335.096 128.136C334.823 128.592 334.563 129.08 334.321 129.568C332.808 132.625 332.028 135.993 332.041 139.404V139.536C332.041 140.22 332.082 140.904 332.146 141.561C332.412 144.284 333.185 146.933 334.426 149.372C334.604 149.723 334.791 150.07 334.987 150.407C336.927 153.795 339.728 156.61 343.105 158.569C346.482 160.527 350.317 161.559 354.221 161.561C354.595 161.561 354.96 161.561 355.329 161.584H355.429C359.581 161.749 363.646 162.82 367.34 164.721C373.405 167.841 378.167 173.012 380.778 179.313C380.778 179.363 380.819 179.409 380.838 179.459C381.655 181.455 382.239 183.539 382.579 185.67C382.829 187.2 382.954 188.748 382.953 190.298V209.906C382.952 210.648 382.995 211.39 383.081 212.127C383.514 216.031 385.085 219.721 387.598 222.739C390.111 225.758 393.456 227.971 397.217 229.104L397.34 229.14C400.916 230.211 404.42 231.512 407.828 233.034L408.795 233.49C410.582 234.32 412.388 235.241 414.189 236.263C419.396 239.166 424.157 242.804 428.325 247.065C430.254 249.051 432.023 251.185 433.615 253.449C433.998 253.992 434.367 254.544 434.732 255.105C437.319 259.12 439.334 263.475 440.719 268.046C442.489 274.022 443.357 280.228 443.296 286.459Z" fill="#F3F4FE"/>
<path d="M290.062 247.038H276.865L273.03 204.252C273.007 203.983 273.039 203.713 273.126 203.458C273.213 203.203 273.352 202.969 273.534 202.771C273.717 202.572 273.938 202.414 274.185 202.307C274.432 202.199 274.699 202.144 274.968 202.145H284.27C284.754 202.144 285.22 202.324 285.577 202.65C285.934 202.976 286.156 203.424 286.199 203.905L290.062 247.038Z" fill="#F9E7D9"/>
<path d="M281.452 227.758C283.674 227.758 285.474 225.958 285.474 223.736C285.474 221.515 283.674 219.714 281.452 219.714C279.231 219.714 277.43 221.515 277.43 223.736C277.43 225.958 279.231 227.758 281.452 227.758Z" fill="#EFD6C5"/>
<path d="M262.15 202.145H270.54C271.178 202.145 271.789 202.398 272.24 202.849C272.69 203.299 272.943 203.911 272.943 204.548V247.043H259.747V204.548C259.747 203.911 260 203.299 260.451 202.849C260.901 202.398 261.513 202.145 262.15 202.145Z" fill="#F9E7D9"/>
<path d="M266.345 227.758C268.566 227.758 270.367 225.958 270.367 223.736C270.367 221.515 268.566 219.714 266.345 219.714C264.124 219.714 262.323 221.515 262.323 223.736C262.323 225.958 264.124 227.758 266.345 227.758Z" fill="#EFD6C5"/>
<path d="M368.954 244.553V236.327C368.954 234.954 367.841 233.841 366.469 233.841H326.546C325.174 233.841 324.061 234.954 324.061 236.327V244.553C324.061 245.925 325.174 247.038 326.546 247.038H366.469C367.841 247.038 368.954 245.925 368.954 244.553Z" fill="#F9E7D9"/>
<path d="M347.363 244.462C349.584 244.462 351.384 242.661 351.384 240.44C351.384 238.218 349.584 236.418 347.363 236.418C345.141 236.418 343.341 238.218 343.341 240.44C343.341 242.661 345.141 244.462 347.363 244.462Z" fill="#EFD6C5"/>
<path d="M374.595 231.352V223.125C374.595 221.753 373.482 220.64 372.11 220.64H332.187C330.814 220.64 329.702 221.753 329.702 223.125V231.352C329.702 232.724 330.814 233.837 332.187 233.837H372.11C373.482 233.837 374.595 232.724 374.595 231.352Z" fill="#F9E7D9"/>
<path d="M353.003 231.265C355.225 231.265 357.025 229.464 357.025 227.243C357.025 225.022 355.225 223.221 353.003 223.221C350.782 223.221 348.981 225.022 348.981 227.243C348.981 229.464 350.782 231.265 353.003 231.265Z" fill="#EFD6C5"/>
<path d="M314.914 280.18H296.24C294.855 280.18 293.732 281.303 293.732 282.688V296.122C293.732 297.507 294.855 298.63 296.24 298.63H314.914C316.299 298.63 317.422 297.507 317.422 296.122V282.688C317.422 281.303 316.299 280.18 314.914 280.18Z" fill="#F9E7D9"/>
<path d="M305.579 294.193C308.224 294.193 310.367 292.049 310.367 289.405C310.367 286.761 308.224 284.617 305.579 284.617C302.935 284.617 300.791 286.761 300.791 289.405C300.791 292.049 302.935 294.193 305.579 294.193Z" fill="#E8D1C1"/>
<path d="M303.185 289.893C303.455 289.893 303.673 289.674 303.673 289.405C303.673 289.135 303.455 288.917 303.185 288.917C302.916 288.917 302.697 289.135 302.697 289.405C302.697 289.674 302.916 289.893 303.185 289.893Z" fill="#D3AA94"/>
<path d="M308.22 289.893C308.489 289.893 308.707 289.674 308.707 289.405C308.707 289.135 308.489 288.917 308.22 288.917C307.95 288.917 307.732 289.135 307.732 289.405C307.732 289.674 307.95 289.893 308.22 289.893Z" fill="#D3AA94"/>
<path d="M433.583 253.445H252.82V247.061H428.293C430.222 249.046 431.991 251.181 433.583 253.445Z" fill="#F9E7D9"/>
<path d="M340.477 156.796H252.82V150.389H334.946C336.362 152.859 338.24 155.034 340.477 156.796Z" fill="#F9E7D9"/>
<path d="M249.359 104.88C250.277 104.88 251.157 105.245 251.806 105.894C252.455 106.543 252.82 107.423 252.82 108.341V410.509H245.898V108.332C245.898 107.414 246.263 106.534 246.912 105.885C247.561 105.235 248.441 104.871 249.359 104.871V104.88Z" fill="#F9E7D9"/>
<path d="M312.109 69.7634H289.177C288.497 69.7634 287.946 70.3147 287.946 70.9946V79.2117C287.946 79.8917 288.497 80.4429 289.177 80.4429H312.109C312.789 80.4429 313.34 79.8917 313.34 79.2117V70.9946C313.34 70.3147 312.789 69.7634 312.109 69.7634Z" fill="#F2E1D3"/>
<path d="M294.695 84.515H271.762C271.082 84.515 270.531 85.0662 270.531 85.7462V93.9633C270.531 94.6433 271.082 95.1945 271.762 95.1945H294.695C295.375 95.1945 295.926 94.6433 295.926 93.9633V85.7462C295.926 85.0662 295.375 84.515 294.695 84.515Z" fill="#F9EEE4"/>
<path d="M262.962 84.515H240.029C239.349 84.515 238.798 85.0662 238.798 85.7462V93.9633C238.798 94.6433 239.349 95.1945 240.029 95.1945H262.962C263.641 95.1945 264.193 94.6433 264.193 93.9633V85.7462C264.193 85.0662 263.641 84.515 262.962 84.515Z" fill="#F9EEE4"/>
<path d="M328.781 84.515H305.848C305.168 84.515 304.617 85.0662 304.617 85.7462V93.9633C304.617 94.6433 305.168 95.1945 305.848 95.1945H328.781C329.461 95.1945 330.012 94.6433 330.012 93.9633V85.7462C330.012 85.0662 329.461 84.515 328.781 84.515Z" fill="#F9E7D9"/>
<path d="M280.13 99.5311H257.198C256.518 99.5311 255.966 100.082 255.966 100.762V108.979C255.966 109.659 256.518 110.211 257.198 110.211H280.13C280.81 110.211 281.361 109.659 281.361 108.979V100.762C281.361 100.082 280.81 99.5311 280.13 99.5311Z" fill="#F9E7D9"/>
<path d="M129.094 276.081H106.161C105.481 276.081 104.93 276.632 104.93 277.312V285.529C104.93 286.209 105.481 286.76 106.161 286.76H129.094C129.774 286.76 130.325 286.209 130.325 285.529V277.312C130.325 276.632 129.774 276.081 129.094 276.081Z" fill="#F2E1D3"/>
<path d="M111.679 290.832H88.7467C88.0668 290.832 87.5155 291.384 87.5155 292.063V300.281C87.5155 300.961 88.0668 301.512 88.7467 301.512H111.679C112.359 301.512 112.91 300.961 112.91 300.281V292.063C112.91 291.384 112.359 290.832 111.679 290.832Z" fill="#F9EEE4"/>
<path d="M79.9459 290.832H57.0137C56.3337 290.832 55.7825 291.384 55.7825 292.063V300.281C55.7825 300.961 56.3337 301.512 57.0137 301.512H79.9459C80.6259 301.512 81.1771 300.961 81.1771 300.281V292.063C81.1771 291.384 80.6259 290.832 79.9459 290.832Z" fill="#F9EEE4"/>
<path d="M145.76 290.832H122.828C122.148 290.832 121.597 291.384 121.597 292.063V300.281C121.597 300.961 122.148 301.512 122.828 301.512H145.76C146.44 301.512 146.992 300.961 146.992 300.281V292.063C146.992 291.384 146.44 290.832 145.76 290.832Z" fill="#F9E7D9"/>
<path d="M97.1143 305.848H74.1821C73.5021 305.848 72.9509 306.4 72.9509 307.08V315.297C72.9509 315.977 73.5021 316.528 74.1821 316.528H97.1143C97.7943 316.528 98.3455 315.977 98.3455 315.297V307.08C98.3455 306.4 97.7943 305.848 97.1143 305.848Z" fill="#F9E7D9"/>
<path d="M75.5455 133.229H54.8294C54.2149 133.229 53.7168 133.728 53.7168 134.342V141.766C53.7168 142.38 54.2149 142.878 54.8294 142.878H75.5455C76.16 142.878 76.6582 142.38 76.6582 141.766V134.342C76.6582 133.728 76.16 133.229 75.5455 133.229Z" fill="#F2E1D3"/>
<path d="M59.8135 146.558H39.0974C38.4829 146.558 37.9848 147.056 37.9848 147.671V155.095C37.9848 155.709 38.4829 156.207 39.0974 156.207H59.8135C60.428 156.207 60.9262 155.709 60.9262 155.095V147.671C60.9262 147.056 60.428 146.558 59.8135 146.558Z" fill="#F9EEE4"/>
<path d="M90.6072 146.558H69.8911C69.2766 146.558 68.7785 147.056 68.7785 147.671V155.095C68.7785 155.709 69.2766 156.207 69.8911 156.207H90.6072C91.2217 156.207 91.7198 155.709 91.7198 155.095V147.671C91.7198 147.056 91.2217 146.558 90.6072 146.558Z" fill="#F9E7D9"/>
<path d="M375.416 296.523H354.7C354.085 296.523 353.587 297.021 353.587 297.636V305.059C353.587 305.674 354.085 306.172 354.7 306.172H375.416C376.03 306.172 376.528 305.674 376.528 305.059V297.636C376.528 297.021 376.03 296.523 375.416 296.523Z" fill="#F2E1D3"/>
<path d="M359.684 309.852H338.968C338.353 309.852 337.855 310.35 337.855 310.965V318.388C337.855 319.003 338.353 319.501 338.968 319.501H359.684C360.298 319.501 360.796 319.003 360.796 318.388V310.965C360.796 310.35 360.298 309.852 359.684 309.852Z" fill="#F9EEE4"/>
<path d="M390.477 309.852H369.761C369.147 309.852 368.649 310.35 368.649 310.965V318.388C368.649 319.003 369.147 319.501 369.761 319.501H390.477C391.092 319.501 391.59 319.003 391.59 318.388V310.965C391.59 310.35 391.092 309.852 390.477 309.852Z" fill="#F9E7D9"/>
<path d="M37.3738 418.54H63.1195C65.3357 418.54 67.1323 416.743 67.1323 414.527V414.522C67.1323 412.306 65.3357 410.509 63.1195 410.509H37.3738C35.1576 410.509 33.361 412.306 33.361 414.522V414.527C33.361 416.743 35.1576 418.54 37.3738 418.54Z" fill="#A66633"/>
<path d="M74.4147 418.54H435.722C437.938 418.54 439.735 416.743 439.735 414.527V414.522C439.735 412.306 437.938 410.509 435.722 410.509H74.4147C72.1985 410.509 70.4019 412.306 70.4019 414.522V414.527C70.4019 416.743 72.1985 418.54 74.4147 418.54Z" fill="#A66633"/>
<path d="M225.383 170.757L225.386 170.754C231.639 165.457 232.414 156.093 227.117 149.841L198.104 115.594C192.807 109.341 183.444 108.566 177.191 113.863L177.188 113.866C170.935 119.164 170.16 128.527 175.457 134.779L204.47 169.026C209.767 175.279 219.13 176.054 225.383 170.757Z" fill="#DEE4EB"/>
<path d="M290.518 143.837L290.517 143.833C290.16 141.804 288.225 140.449 286.196 140.806L274.731 142.826C272.702 143.183 271.347 145.118 271.705 147.147L271.705 147.151C272.063 149.18 273.997 150.535 276.026 150.177L287.491 148.158C289.52 147.801 290.875 145.866 290.518 143.837Z" fill="#EF927F"/>
<path d="M287.503 148.163L276.049 150.184C275.834 150.224 275.615 150.243 275.397 150.243C274.725 150.243 274.066 150.06 273.491 149.714C273.861 149.758 274.236 149.749 274.603 149.687L286.062 147.666C286.813 147.535 287.505 147.177 288.047 146.641C288.588 146.104 288.951 145.415 289.089 144.666C289.227 143.916 289.131 143.143 288.816 142.449C288.501 141.755 287.981 141.175 287.326 140.785C288.214 140.895 289.033 141.32 289.634 141.983C290.235 142.646 290.578 143.503 290.599 144.398C290.621 145.292 290.32 146.165 289.752 146.856C289.183 147.548 288.385 148.012 287.503 148.163Z" fill="#EF927F"/>
<path d="M218.465 174.931C227.738 174.931 235.255 167.414 235.255 158.141C235.255 148.868 227.738 141.351 218.465 141.351C209.192 141.351 201.675 148.868 201.675 158.141C201.675 167.414 209.192 174.931 218.465 174.931Z" fill="#004393"/>
<path d="M275.247 138.755L275.245 138.751C272.812 131.988 265.356 128.478 258.593 130.911L215.485 146.423C208.722 148.856 205.212 156.312 207.645 163.075L207.647 163.079C210.08 169.842 217.536 173.352 224.299 170.918L267.407 155.407C274.17 152.973 277.68 145.518 275.247 138.755Z" fill="#F0A284"/>
<path d="M269.629 155.155C278.694 153.809 285.16 146.77 284.071 139.431C282.982 132.092 274.751 127.233 265.685 128.578C256.62 129.923 250.154 136.963 251.243 144.302C252.332 151.641 260.564 156.5 269.629 155.155Z" fill="#F0A284"/>
<path d="M275.247 138.755L275.245 138.751C272.812 131.988 265.356 128.478 258.593 130.911L215.485 146.423C208.722 148.856 205.212 156.312 207.645 163.075L207.647 163.079C210.08 169.842 217.536 173.352 224.299 170.918L267.407 155.407C274.17 152.973 277.68 145.518 275.247 138.755Z" fill="#E28F79"/>
<path d="M269.629 155.155C278.694 153.809 285.16 146.77 284.071 139.431C282.982 132.092 274.751 127.233 265.685 128.578C256.62 129.923 250.154 136.963 251.243 144.302C252.332 151.641 260.564 156.5 269.629 155.155Z" fill="#F0A284"/>
<path d="M284.088 139.436C283.893 138.157 283.474 136.922 282.852 135.788C282.054 139.39 279.523 142.628 275.921 144.839C273.667 146.199 271.163 147.093 268.557 147.466C267.861 147.568 267.161 147.635 266.459 147.667L255.483 151.62L223.207 163.202C220.167 164.303 216.825 164.229 213.836 162.995C210.847 161.761 208.426 159.456 207.047 156.531C206.676 158.725 206.88 160.978 207.64 163.07C208.215 164.681 209.103 166.162 210.253 167.428C211.402 168.694 212.79 169.721 214.337 170.45C215.885 171.179 217.56 171.595 219.269 171.674C220.977 171.754 222.685 171.495 224.293 170.913L267.398 155.409C267.436 155.397 267.473 155.382 267.508 155.364C268.218 155.333 268.926 155.265 269.628 155.159C278.689 153.813 285.16 146.768 284.088 139.436Z" fill="#EF927F"/>
<path d="M291.442 135.552L291.441 135.548C290.925 133.553 288.89 132.354 286.896 132.87L275.625 135.782C273.63 136.298 272.431 138.333 272.946 140.327L272.948 140.332C273.463 142.326 275.498 143.525 277.492 143.01L288.764 140.097C290.758 139.581 291.957 137.547 291.442 135.552Z" fill="#F0A284"/>
<path d="M285.13 130.137L285.13 130.132C284.772 128.103 282.838 126.748 280.809 127.106L269.344 129.125C267.315 129.483 265.96 131.417 266.317 133.446L266.318 133.45C266.675 135.479 268.61 136.834 270.639 136.477L282.104 134.457C284.133 134.1 285.488 132.165 285.13 130.137Z" fill="#F0A284"/>
<path d="M269.939 125.144L269.936 125.141C268.656 123.527 266.309 123.257 264.696 124.538L255.577 131.776C253.964 133.056 253.694 135.403 254.975 137.016L254.978 137.02C256.258 138.633 258.605 138.903 260.218 137.622L269.337 130.385C270.95 129.104 271.22 126.758 269.939 125.144Z" fill="#F0A284"/>
<path d="M257.804 146.909C262.055 146.909 265.501 143.463 265.501 139.212C265.501 134.961 262.055 131.515 257.804 131.515C253.553 131.515 250.107 134.961 250.107 139.212C250.107 143.463 253.553 146.909 257.804 146.909Z" fill="#F0A284"/>
<path d="M168.542 54.7885H178.574C179.892 54.7885 181.157 55.3121 182.089 56.2442C183.021 57.1764 183.545 58.4406 183.545 59.7589V63.5619C183.545 67.0115 182.175 70.3202 179.738 72.7611C177.3 75.2021 173.994 76.5759 170.544 76.5807C170.017 76.5807 169.511 76.3712 169.138 75.9984C168.765 75.6255 168.556 75.1198 168.556 74.5925V54.7885H168.542Z" fill="#004393"/>
<path d="M238.493 232.423H153.622C150.534 232.423 148.031 234.926 148.031 238.014C148.031 241.101 150.534 243.604 153.622 243.604H238.493C241.58 243.604 244.083 241.101 244.083 238.014C244.083 234.926 241.58 232.423 238.493 232.423Z" fill="#9A463B"/>
<path d="M188.437 235.387L184.602 246.331L177.849 265.606L144.917 359.032L126.818 410.377H112.819L125.719 359.032L149.194 265.606L154.374 246.331L157.315 235.387H188.437Z" fill="#9A463B"/>
<path d="M237.936 235.387L237.312 246.331L236.213 265.606L229.623 359.032L225.998 410.377H211.999L210.426 359.032L207.558 265.606L207.079 246.331L206.81 235.387H237.936Z" fill="#9A463B"/>
<path d="M179.596 166.413H223.527C224.037 166.413 224.526 166.615 224.887 166.976C225.248 167.337 225.451 167.827 225.451 168.337C225.451 172.056 223.974 175.622 221.344 178.252C218.714 180.882 215.148 182.359 211.429 182.359H165.574V180.435C165.574 176.716 167.051 173.149 169.681 170.52C172.31 167.89 175.877 166.413 179.596 166.413Z" fill="#9A463B"/>
<path d="M201.014 178.98C201.014 174.691 197.538 171.214 193.251 171.214C188.963 171.214 185.487 174.691 185.487 178.98V235.839C185.487 240.127 188.963 243.604 193.251 243.604C197.538 243.604 201.014 240.127 201.014 235.839V178.98Z" fill="#9A463B"/>
<path d="M144.748 128.998H174.192C179.846 128.998 185.268 131.244 189.266 135.242C193.264 139.24 195.51 144.662 195.51 150.316V211.771C195.51 217.425 193.264 222.847 189.266 226.845C185.268 230.843 179.846 233.089 174.192 233.089H123.43V150.316C123.43 144.662 125.676 139.24 129.674 135.242C133.672 131.244 139.094 128.998 144.748 128.998Z" fill="#9A463B"/>
<path d="M125.719 359.031H144.917L126.818 410.377H112.819L125.719 359.031Z" fill="#6F232D"/>
<path d="M229.623 359.031L225.998 410.377H211.999L210.426 359.031H229.623Z" fill="#6F232D"/>
<path d="M235.024 325.193L235.705 341.91L209.092 342.993L208.412 326.276L235.024 325.193Z" fill="#F0A284"/>
<path d="M235.024 325.193L235.248 330.688L208.635 331.771L208.412 326.276L235.024 325.193Z" fill="#EF927F"/>
<path d="M219.678 345.124L245.629 346.191C245.713 344.478 245.458 342.766 244.877 341.153C244.297 339.54 243.403 338.058 242.246 336.792C241.09 335.526 239.695 334.502 238.141 333.778C236.586 333.054 234.904 332.645 233.191 332.575C231.478 332.504 229.768 332.774 228.16 333.368C226.552 333.961 225.077 334.868 223.821 336.034C222.564 337.201 221.552 338.605 220.841 340.165C220.129 341.725 219.734 343.41 219.678 345.124Z" fill="white"/>
<path d="M248.297 349.319V345.338C248.293 344.508 247.975 343.71 247.405 343.106C246.835 342.502 246.056 342.138 245.228 342.087L211.128 340.048C210.572 340.015 210.015 340.095 209.492 340.285C208.968 340.475 208.489 340.771 208.085 341.153C207.68 341.536 207.358 341.997 207.139 342.509C206.919 343.021 206.807 343.573 206.81 344.129V351.498L248.297 349.319Z" fill="#004393"/>
<path d="M206.805 349.296V352.944C206.805 353.139 206.844 353.332 206.918 353.512C206.993 353.691 207.103 353.855 207.241 353.992C207.379 354.129 207.543 354.238 207.724 354.312C207.904 354.385 208.097 354.423 208.292 354.421L246.436 354.321C247.028 354.32 247.614 354.202 248.161 353.974C248.707 353.746 249.203 353.413 249.621 352.994C250.038 352.574 250.369 352.076 250.594 351.528C250.819 350.981 250.934 350.394 250.932 349.802C250.931 349.21 250.813 348.625 250.585 348.078C250.357 347.532 250.024 347.036 249.604 346.619C249.185 346.202 248.687 345.872 248.139 345.647C247.592 345.423 247.005 345.308 246.413 345.311L236.089 345.338C235.582 345.339 235.079 345.44 234.61 345.636C234.142 345.831 233.716 346.117 233.358 346.477C233 346.837 232.716 347.264 232.523 347.733C232.329 348.203 232.23 348.706 232.232 349.214L206.805 349.296Z" fill="#108FD4"/>
<path d="M168.22 300.006L175.604 289.389L197.25 304.444L189.865 315.061L168.22 300.006Z" fill="#EF927F"/>
<path d="M175.879 308.593L195.843 325.205C196.961 323.898 197.809 322.382 198.336 320.744C198.864 319.107 199.061 317.381 198.915 315.666C198.77 313.952 198.286 312.284 197.49 310.758C196.695 309.233 195.604 307.88 194.282 306.78C192.959 305.68 191.431 304.853 189.787 304.348C188.142 303.843 186.413 303.67 184.701 303.838C182.989 304.007 181.328 304.514 179.813 305.331C178.299 306.147 176.961 307.256 175.879 308.593Z" fill="#EFDADC"/>
<path d="M196.08 329.314L198.492 326.149C198.996 325.489 199.229 324.662 199.144 323.836C199.059 323.01 198.663 322.248 198.036 321.703L172.186 299.359C171.764 298.993 171.271 298.716 170.739 298.548C170.206 298.379 169.644 298.322 169.088 298.379C168.532 298.437 167.994 298.609 167.507 298.883C167.02 299.158 166.595 299.529 166.258 299.975L161.789 305.839L196.08 329.314Z" fill="#004393"/>
<path d="M163.116 304.088L160.836 307.093C160.726 307.236 160.645 307.4 160.599 307.574C160.552 307.749 160.541 307.931 160.565 308.109C160.589 308.288 160.649 308.461 160.74 308.617C160.831 308.772 160.952 308.909 161.096 309.017L191.52 332.182C191.991 332.541 192.528 332.803 193.1 332.954C193.672 333.105 194.269 333.142 194.855 333.062C195.442 332.983 196.007 332.788 196.518 332.49C197.03 332.192 197.477 331.796 197.836 331.325C198.195 330.855 198.458 330.319 198.61 329.747C198.762 329.175 198.8 328.579 198.722 327.993C198.644 327.406 198.45 326.841 198.154 326.329C197.857 325.817 197.462 325.369 196.992 325.009L188.784 318.744C188.38 318.436 187.92 318.211 187.429 318.081C186.938 317.951 186.426 317.92 185.923 317.988C185.42 318.056 184.935 318.223 184.497 318.478C184.058 318.734 183.674 319.074 183.367 319.478L163.116 304.088Z" fill="#013568"/>
<path d="M255.255 199.609C259.17 202.332 261.842 206.498 262.686 211.191C263.529 215.884 262.473 220.72 259.751 224.635L201.383 308.539L171.866 288.019L230.234 204.115C231.581 202.176 233.297 200.521 235.283 199.246C237.27 197.97 239.488 197.098 241.812 196.68C244.135 196.261 246.518 196.305 248.825 196.807C251.131 197.31 253.316 198.262 255.255 199.609Z" fill="#004393"/>
<path d="M244.147 232.423H196.139C192.875 232.423 189.642 231.78 186.626 230.531C183.61 229.281 180.87 227.45 178.561 225.141C176.253 222.833 174.422 220.092 173.173 217.076C171.925 214.059 171.282 210.827 171.283 207.562V201.502C171.283 199.599 172.038 197.774 173.383 196.428C174.728 195.082 176.553 194.326 178.456 194.324H244.147C249.199 194.326 254.045 196.333 257.617 199.906C261.19 203.478 263.197 208.324 263.199 213.376C263.197 218.428 261.19 223.273 257.617 226.845C254.044 230.417 249.199 232.423 244.147 232.423Z" fill="#004393"/>
<path d="M144.873 207.788L177.199 207.748C184.268 207.74 189.992 202.002 189.983 194.933L189.9 126.957C189.892 119.888 184.154 114.164 177.085 114.172L144.759 114.212C137.69 114.221 131.966 119.958 131.975 127.028L132.058 195.003C132.066 202.073 137.804 207.796 144.873 207.788Z" fill="white"/>
<path d="M170.168 158.166L155.38 158.185C147.33 158.194 139.606 155.006 133.907 149.321C128.209 143.636 125.001 135.92 124.992 127.87L124.988 124.897C124.984 119.978 126.933 115.259 130.406 111.776C133.879 108.293 138.592 106.331 143.511 106.32L181.892 106.273C186.816 106.267 191.54 108.217 195.025 111.694C198.511 115.171 200.473 119.891 200.479 124.814L200.482 127.787C200.49 135.835 197.3 143.557 191.616 149.254C185.931 154.951 178.216 158.157 170.168 158.166Z" fill="white"/>
<path d="M168.086 104.625V106.28L147.894 106.303L147.881 96.1658L147.876 86.5579L168.063 86.5397L168.086 104.625Z" fill="#F0A284"/>
<path d="M132.035 207.562C132.036 213.89 134.449 219.979 138.784 224.589C143.118 229.199 149.048 231.983 155.364 232.373C155.453 232.378 155.543 232.378 155.633 232.373C156.048 232.396 156.467 232.41 156.891 232.41H204.904C209.906 232.416 214.709 230.452 218.273 226.942C221.837 223.433 223.875 218.66 223.946 213.659C224.11 203.02 215.186 194.311 204.543 194.311H132.039L132.035 207.562Z" fill="#108FD4"/>
<path d="M187.94 214.831L188.064 215.743L189.463 225.962L196.627 278.16L203.782 330.285L239.541 325.379L236.454 302.871L226.395 229.578L223.695 209.924C223.338 207.292 222.403 204.771 220.956 202.543C219.509 200.315 217.587 198.435 215.328 197.038C214.769 196.688 214.19 196.372 213.595 196.089C210.656 194.686 207.391 194.105 204.148 194.407C200.905 194.709 197.805 195.883 195.175 197.804C192.545 199.725 190.484 202.322 189.21 205.32C187.936 208.318 187.498 211.604 187.94 214.831Z" fill="#108FD4"/>
<path d="M168.086 104.625C167.618 104.665 167.147 104.68 166.677 104.67C163.128 104.617 159.629 103.834 156.395 102.371C153.162 100.908 150.264 98.7961 147.881 96.1658V86.5579H168.068L168.086 104.625Z" fill="#EF927F"/>
<path d="M180.161 61.2134L180.12 65.208L179.819 84.0408C179.751 88.1767 178.043 92.1163 175.072 94.9943C172.101 97.8722 168.109 99.4532 163.973 99.3897C160.566 99.3369 157.203 98.6134 154.076 97.2606C150.949 95.9078 148.119 93.9522 145.747 91.5055C143.376 89.0588 141.51 86.1689 140.256 83.0009C139.001 79.833 138.383 76.4489 138.437 73.0421L138.619 61.7013C138.684 57.9593 140.23 54.3956 142.919 51.7919C145.607 49.1881 149.218 47.7567 152.961 47.8116L167.384 48.0441C170.824 48.0994 174.101 49.5171 176.496 51.9861C178.892 54.4551 180.21 57.7737 180.161 61.2134Z" fill="#F0A284"/>
<path d="M180.161 61.2134L180.12 65.208C175.579 66.878 170.772 67.7092 165.934 67.6613C152.254 67.6613 141.15 61.56 141.059 54.0177C142.371 52.0728 144.148 50.4864 146.229 49.4026C148.31 48.3188 150.629 47.7719 152.974 47.8116L167.398 48.0441C170.835 48.1029 174.109 49.5222 176.501 51.9908C178.894 54.4595 180.21 57.776 180.161 61.2134Z" fill="#EF927F"/>
<path d="M144.976 178.98V235.843C144.976 237.903 144.158 239.878 142.702 241.334C141.245 242.791 139.27 243.609 137.21 243.609C135.151 243.609 133.176 242.791 131.719 241.334C130.263 239.878 129.445 237.903 129.445 235.843V178.98C129.443 178.004 129.628 177.036 129.992 176.13C130.645 174.437 131.872 173.026 133.458 172.145C135.044 171.263 136.89 170.966 138.673 171.305C140.456 171.644 142.063 172.598 143.215 174C144.367 175.403 144.99 177.165 144.976 178.98Z" fill="#DB8D5C"/>
<path d="M158.009 235.387L155.127 243.604L154.174 246.331L149.728 259.022L147.42 265.606L114.488 359.032L96.3893 410.377H82.3901L95.2949 359.032L118.77 265.606L120.539 259.022L123.945 246.331L124.68 243.604L126.887 235.387H158.009Z" fill="#DB8D5C"/>
<path d="M207.512 235.387L207.042 243.604L206.887 246.331L206.158 259.022L205.788 265.606L199.194 359.032L195.569 410.377H181.57L180.001 359.032L177.138 265.606L176.969 259.022L176.659 246.331L176.586 243.604L176.385 235.387H207.512Z" fill="#DB8D5C"/>
<path d="M207.047 227.986H124.21C120.561 227.986 117.602 230.945 117.602 234.594V236.997C117.602 240.646 120.561 243.604 124.21 243.604H207.047C210.696 243.604 213.654 240.646 213.654 236.997V234.594C213.654 230.945 210.696 227.986 207.047 227.986Z" fill="#DB8D5C"/>
<path d="M196.682 231.229H134.579C132.184 231.229 130.243 233.17 130.243 235.565V236.021C130.243 238.416 132.184 240.358 134.579 240.358H196.682C199.077 240.358 201.018 238.416 201.018 236.021V235.565C201.018 233.17 199.077 231.229 196.682 231.229Z" fill="#F1A873"/>
<path d="M124.68 243.604H155.127L154.174 246.331L149.728 259.022H120.539L124.68 243.604Z" fill="#CB7748"/>
<path d="M207.042 243.604L206.887 246.331L206.158 259.022H176.969L176.659 246.331L176.586 243.604H207.042Z" fill="#CB7748"/>
<path d="M144.976 178.98V192.076H129.445V178.98C129.443 178.004 129.628 177.036 129.992 176.13H144.433C144.793 177.037 144.978 178.004 144.976 178.98Z" fill="#CB7748"/>
<path d="M114.488 359.031L96.3893 410.377H82.3901L95.2949 359.031H114.488Z" fill="#CB7748"/>
<path d="M199.194 359.031L195.569 410.377H181.57L180.001 359.031H199.194Z" fill="#CB7748"/>
<path d="M123.576 166.413H167.507C168.017 166.413 168.507 166.615 168.868 166.976C169.229 167.337 169.431 167.827 169.431 168.337C169.431 172.056 167.954 175.622 165.324 178.252C162.695 180.882 159.128 182.359 155.409 182.359H109.531V180.435C109.531 178.591 109.895 176.766 110.601 175.063C111.307 173.361 112.342 171.814 113.646 170.511C114.951 169.209 116.499 168.177 118.203 167.473C119.907 166.77 121.733 166.41 123.576 166.413Z" fill="#DB8D5C"/>
<path d="M169.409 166.413V168.341C169.409 170.182 169.046 172.005 168.342 173.706C167.637 175.406 166.605 176.952 165.303 178.253C164.001 179.555 162.456 180.587 160.755 181.292C159.055 181.996 157.232 182.359 155.391 182.359H133.503C137.221 182.359 140.787 180.882 143.417 178.254C146.046 175.625 147.524 172.06 147.525 168.341V166.413H169.409Z" fill="#E9A06D"/>
<path d="M261.913 248.93H326.605V266.445H261.913V248.93Z" fill="#CB7748"/>
<path d="M343.322 411.157H336.884L331.248 359.032L311.047 172.085L309.898 161.433H324.207L325.023 172.085L339.332 359.032L343.322 411.157Z" fill="#DB8D5C"/>
<path d="M278.005 161.433L276.728 172.085L254.311 359.032L248.059 411.157H240.918L245.346 359.032L261.22 172.085L262.127 161.433H278.005Z" fill="#DB8D5C"/>
<path d="M262.127 161.433H278.005L276.728 172.085H261.22L262.127 161.433Z" fill="#CB7748"/>
<path d="M325.023 172.085H311.047L309.898 161.433H324.207L325.023 172.085Z" fill="#CB7748"/>
<path d="M332.264 156.125H255.903C253.397 156.125 251.365 158.157 251.365 160.662V162.924C251.365 165.43 253.397 167.461 255.903 167.461H332.264C334.77 167.461 336.802 165.43 336.802 162.924V160.662C336.802 158.157 334.77 156.125 332.264 156.125Z" fill="#DB8D5C"/>
<path d="M245.346 359.031H254.311L248.059 411.157H240.918L245.346 359.031Z" fill="#CB7748"/>
<path d="M343.322 411.157H336.884L331.247 359.031H339.332L343.322 411.157Z" fill="#CB7748"/>
<path d="M332.219 327.864C331.608 327.864 331.074 327.166 330.979 326.195L320.664 218.579C320.559 217.512 321.033 216.518 321.717 216.358C322.401 216.199 323.04 216.933 323.14 218L333.459 325.616C333.559 326.688 333.09 327.682 332.406 327.841C332.344 327.855 332.282 327.863 332.219 327.864Z" fill="#F1A873"/>
<path d="M253.691 327.864C254.302 327.864 254.836 327.166 254.931 326.195L265.246 218.579C265.351 217.512 264.877 216.518 264.193 216.358C263.509 216.199 262.87 216.933 262.77 218L252.451 325.616C252.35 326.688 252.82 327.682 253.504 327.841C253.565 327.855 253.628 327.863 253.691 327.864Z" fill="#F1A873"/>
<path d="M276.518 150.238H278.438C278.922 150.238 279.386 150.431 279.728 150.773C280.07 151.115 280.262 151.579 280.262 152.062V153.129H274.681V152.062C274.681 151.822 274.728 151.583 274.821 151.361C274.913 151.139 275.049 150.937 275.22 150.768C275.391 150.598 275.593 150.464 275.816 150.373C276.039 150.282 276.278 150.237 276.518 150.238Z" fill="#DEE4EB"/>
<path d="M270.928 150.238H272.848C273.331 150.238 273.795 150.43 274.137 150.773C274.479 151.115 274.672 151.579 274.672 152.062V153.129H269.095V152.062C269.095 151.822 269.142 151.584 269.234 151.362C269.327 151.14 269.462 150.939 269.632 150.769C269.803 150.6 270.005 150.466 270.227 150.375C270.449 150.283 270.688 150.237 270.928 150.238Z" fill="#DEE4EB"/>
<path d="M265.342 150.238H267.262C267.745 150.238 268.209 150.431 268.551 150.773C268.893 151.115 269.086 151.579 269.086 152.062V153.129H263.504V152.062C263.504 151.822 263.552 151.583 263.644 151.361C263.737 151.139 263.872 150.937 264.043 150.768C264.214 150.598 264.417 150.464 264.64 150.373C264.862 150.282 265.101 150.237 265.342 150.238Z" fill="#DEE4EB"/>
<path d="M259.751 150.238H261.671C262.155 150.238 262.619 150.431 262.961 150.773C263.303 151.115 263.495 151.579 263.495 152.062V153.129H257.914V152.062C257.914 151.822 257.961 151.583 258.054 151.361C258.146 151.139 258.282 150.937 258.453 150.768C258.623 150.598 258.826 150.464 259.049 150.373C259.272 150.282 259.511 150.237 259.751 150.238Z" fill="#DEE4EB"/>
<path d="M254.161 150.238H256.08C256.564 150.238 257.028 150.43 257.37 150.773C257.712 151.115 257.904 151.579 257.904 152.062V153.129H252.328V152.062C252.328 151.822 252.375 151.584 252.467 151.362C252.56 151.14 252.695 150.939 252.865 150.769C253.035 150.6 253.238 150.466 253.46 150.375C253.682 150.283 253.92 150.237 254.161 150.238Z" fill="#DEE4EB"/>
<path d="M248.575 150.238H250.494C250.978 150.238 251.442 150.431 251.784 150.773C252.126 151.115 252.318 151.579 252.318 152.062V153.129H246.737V152.062C246.737 151.822 246.785 151.583 246.877 151.361C246.97 151.139 247.105 150.937 247.276 150.768C247.447 150.598 247.65 150.464 247.873 150.373C248.095 150.282 248.334 150.237 248.575 150.238Z" fill="#DEE4EB"/>
<path d="M242.984 150.238H244.904C245.388 150.238 245.852 150.431 246.194 150.773C246.536 151.115 246.728 151.579 246.728 152.062V153.129H241.146V152.062C241.146 151.822 241.194 151.583 241.287 151.361C241.379 151.139 241.515 150.937 241.686 150.768C241.856 150.598 242.059 150.464 242.282 150.373C242.505 150.282 242.743 150.237 242.984 150.238Z" fill="#DEE4EB"/>
<path d="M298.229 150.672H227.325C225.819 150.672 224.598 151.891 224.598 153.396C224.598 154.901 225.819 156.121 227.325 156.121H298.229C299.735 156.121 300.955 154.901 300.955 153.396C300.955 151.891 299.735 150.672 298.229 150.672Z" fill="#004393"/>
<path d="M279.92 156.121H343.632C344.931 156.121 346.193 155.688 347.217 154.89C348.241 154.092 348.97 152.975 349.287 151.716L361.704 102.381C361.92 101.521 361.938 100.623 361.755 99.7558C361.572 98.8882 361.193 98.0738 360.648 97.3746C360.103 96.6754 359.405 96.1098 358.608 95.721C357.811 95.3321 356.936 95.1303 356.049 95.1307H299.815C298.517 95.1303 297.257 95.5635 296.233 96.3616C295.209 97.1596 294.482 98.2768 294.166 99.5357L279.92 156.121Z" fill="#108FD4"/>
<path d="M361.704 102.381L349.296 151.716C348.979 152.975 348.251 154.093 347.226 154.892C346.202 155.691 344.941 156.125 343.642 156.125H279.925L281.293 150.653H331.631C332.93 150.653 334.192 150.219 335.217 149.421C336.243 148.622 336.972 147.504 337.29 146.244L349.702 96.9091C349.85 96.3225 349.906 95.7162 349.866 95.1124H356.049C356.938 95.1122 357.814 95.3148 358.613 95.705C359.411 96.0951 360.109 96.6624 360.655 97.3636C361.2 98.0648 361.578 98.8813 361.76 99.7509C361.942 100.62 361.923 101.52 361.704 102.381Z" fill="#004393"/>
<path d="M324.8 130.443C326.56 130.443 327.987 129.016 327.987 127.256C327.987 125.496 326.56 124.068 324.8 124.068C323.039 124.068 321.612 125.496 321.612 127.256C321.612 129.016 323.039 130.443 324.8 130.443Z" fill="#DEE4EB"/>
<path d="M329.072 132.03C328.569 132.817 327.895 133.481 327.102 133.973C326.308 134.465 325.414 134.773 324.485 134.874C323.556 134.975 322.617 134.866 321.736 134.556C320.855 134.246 320.055 133.742 319.394 133.082C318.733 132.421 318.229 131.621 317.919 130.74C317.608 129.86 317.499 128.92 317.599 127.992C317.7 127.063 318.007 126.169 318.499 125.375C318.99 124.58 319.654 123.907 320.44 123.403C319.678 124.603 319.347 126.027 319.503 127.44C319.659 128.854 320.292 130.172 321.298 131.177C322.304 132.182 323.622 132.814 325.035 132.969C326.449 133.125 327.873 132.793 329.072 132.03Z" fill="#DEE4EB"/>
<path d="M134.566 54.7885H149.568V63.5664C149.568 65.2761 149.231 66.969 148.577 68.5485C147.923 70.128 146.964 71.5632 145.755 72.7721C144.546 73.981 143.111 74.94 141.531 75.5943C139.952 76.2485 138.259 76.5852 136.549 76.5852C136.022 76.5852 135.516 76.3758 135.143 76.0029C134.77 75.6301 134.561 75.1244 134.561 74.5971V54.7885H134.566Z" fill="#004393"/>
<path d="M157.981 64.939C171.724 64.939 182.865 58.7877 182.865 51.1997C182.865 43.6117 171.724 37.4604 157.981 37.4604C144.238 37.4604 133.097 43.6117 133.097 51.1997C133.097 58.7877 144.238 64.939 157.981 64.939Z" fill="#004393"/>
<path d="M179.208 51.1996C179.208 56.8176 170.964 61.3684 160.795 61.3684C159.942 61.3684 159.098 61.3365 158.273 61.2772C167.243 60.5932 174.16 56.3433 174.16 51.1996C174.16 46.056 167.22 41.806 158.232 41.1312C159.057 41.0673 159.901 41.0354 160.754 41.0354C170.941 41.04 179.208 45.6 179.208 51.1996Z" fill="#108FD4"/>
<path d="M147.881 55.3173C154.409 55.3173 159.7 52.3958 159.7 48.792C159.7 45.1881 154.409 42.2666 147.881 42.2666C141.353 42.2666 136.061 45.1881 136.061 48.792C136.061 52.3958 141.353 55.3173 147.881 55.3173Z" fill="#108FD4"/>
<path d="M139.495 78.8789C143.139 78.8789 146.093 75.9247 146.093 72.2806C146.093 68.6364 143.139 65.6823 139.495 65.6823C135.851 65.6823 132.897 68.6364 132.897 72.2806C132.897 75.9247 135.851 78.8789 139.495 78.8789Z" fill="#F0A284"/>
<path d="M160.037 176.714L160.041 176.711C167.308 172.924 170.129 163.962 166.341 156.695L145.595 116.893C141.807 109.626 132.845 106.806 125.578 110.593L125.574 110.596C118.307 114.383 115.487 123.345 119.275 130.612L140.021 170.414C143.809 177.681 152.77 180.501 160.037 176.714Z" fill="#DEE4EB"/>
<path d="M155.496 178.219C152.427 178.695 149.285 178.199 146.513 176.799C143.74 175.398 141.476 173.165 140.038 170.412L119.299 130.617C118.028 128.183 117.458 125.444 117.651 122.706C117.845 119.967 118.794 117.336 120.394 115.104C121.994 112.873 124.181 111.13 126.713 110.068C129.245 109.006 132.021 108.667 134.734 109.089C132.406 109.454 130.199 110.368 128.294 111.755C126.39 113.142 124.843 114.963 123.781 117.067C122.72 119.17 122.174 121.496 122.19 123.853C122.206 126.209 122.783 128.527 123.872 130.617L144.616 170.412C145.689 172.476 147.234 174.258 149.124 175.614C151.014 176.97 153.197 177.863 155.496 178.219Z" fill="white"/>
<path d="M153.271 179.623C162.544 179.623 170.061 172.106 170.061 162.833C170.061 153.56 162.544 146.043 153.271 146.043C143.998 146.043 136.481 153.56 136.481 162.833C136.481 172.106 143.998 179.623 153.271 179.623Z" fill="#004393"/>
<path d="M210.505 153.611L210.504 153.606C209.089 146.559 202.23 141.993 195.183 143.408L150.264 152.424C143.217 153.838 138.651 160.698 140.066 167.745L140.067 167.749C141.481 174.796 148.341 179.362 155.388 177.948L200.306 168.931C207.353 167.517 211.919 160.658 210.505 153.611Z" fill="#F0A284"/>
<path d="M202.546 169.016C211.711 169.016 219.14 163.002 219.14 155.583C219.14 148.163 211.711 142.149 202.546 142.149C193.382 142.149 185.952 148.163 185.952 155.583C185.952 163.002 193.382 169.016 202.546 169.016Z" fill="#F0A284"/>
<path d="M219.135 155.391C218.173 161.319 212.414 166.034 205.118 166.901C204.311 166.996 203.5 167.043 202.687 167.042C201.984 167.045 201.28 167.008 200.581 166.932L200.448 166.964L195.888 167.876L155.542 175.975C152.157 176.653 148.642 175.96 145.769 174.047C142.896 172.134 140.9 169.158 140.22 165.774C140.055 164.95 139.969 164.112 139.965 163.271C139.693 165.12 139.821 167.006 140.343 168.802C140.864 170.597 141.765 172.259 142.985 173.675C144.205 175.091 145.716 176.228 147.414 177.009C149.113 177.79 150.959 178.196 152.828 178.2C153.694 178.2 154.557 178.115 155.405 177.945L200.321 168.93L200.448 168.898C201.15 168.971 201.855 169.008 202.56 169.007C211.725 169.007 219.154 162.993 219.154 155.578C219.14 155.496 219.14 155.455 219.135 155.391Z" fill="#FCB798"/>
<path d="M221.556 160.972L221.556 160.967C221.5 158.908 219.786 157.284 217.726 157.339L206.089 157.654C204.03 157.71 202.405 159.424 202.461 161.484L202.461 161.488C202.517 163.548 204.232 165.172 206.291 165.116L217.928 164.801C219.988 164.746 221.612 163.031 221.556 160.972Z" fill="#F0A284"/>
<path d="M227.81 153.831L227.81 153.827C227.755 151.767 226.04 150.143 223.981 150.199L212.343 150.514C210.284 150.57 208.66 152.284 208.715 154.343L208.716 154.348C208.771 156.407 210.486 158.032 212.545 157.976L224.183 157.661C226.242 157.605 227.866 155.891 227.81 153.831Z" fill="#F0A284"/>
<path d="M221.555 146.536L221.555 146.532C221.5 144.472 219.785 142.848 217.726 142.904L206.088 143.219C204.029 143.275 202.405 144.989 202.46 147.049L202.461 147.053C202.516 149.112 204.231 150.737 206.29 150.681L217.928 150.366C219.987 150.31 221.611 148.596 221.555 146.536Z" fill="#F0A284"/>
<path d="M207.257 139.378L207.254 139.374C206.224 137.59 203.943 136.978 202.159 138.008L192.077 143.829C190.293 144.859 189.682 147.14 190.712 148.925L190.714 148.929C191.744 150.713 194.025 151.324 195.809 150.294L205.891 144.473C207.675 143.443 208.287 141.162 207.257 139.378Z" fill="#F0A284"/>
<path d="M180.769 166.305C182.893 165.878 184.269 163.811 183.842 161.688C183.416 159.564 181.349 158.189 179.226 158.615L159.639 162.546C157.516 162.973 156.14 165.04 156.566 167.163C156.992 169.287 159.059 170.662 161.183 170.236L180.769 166.305Z" fill="#FCB798"/>
<path d="M160.631 73.8218C161.482 73.8218 162.172 73.1318 162.172 72.2805C162.172 71.4293 161.482 70.7393 160.631 70.7393C159.779 70.7393 159.089 71.4293 159.089 72.2805C159.089 73.1318 159.779 73.8218 160.631 73.8218Z" fill="#361647"/>
<path d="M171.944 73.8218C172.795 73.8218 173.485 73.1318 173.485 72.2805C173.485 71.4293 172.795 70.7393 171.944 70.7393C171.093 70.7393 170.403 71.4293 170.403 72.2805C170.403 73.1318 171.093 73.8218 171.944 73.8218Z" fill="#361647"/>
<path d="M140.776 75.6959V70.1008C140.772 69.9616 140.736 69.8251 140.671 69.7019C140.606 69.5788 140.514 69.4721 140.401 69.3903C140.288 69.3084 140.158 69.2534 140.021 69.2295C139.884 69.2057 139.743 69.2136 139.609 69.2527C138.836 69.5002 138.161 69.9869 137.683 70.6425C137.204 71.2982 136.947 72.0889 136.947 72.9007C136.947 73.7124 137.204 74.5031 137.683 75.1588C138.161 75.8145 138.836 76.3012 139.609 76.5487C139.743 76.5878 139.884 76.5957 140.022 76.5716C140.16 76.5475 140.29 76.4921 140.403 76.4097C140.515 76.3273 140.608 76.2201 140.673 76.0963C140.737 75.9726 140.773 75.8356 140.776 75.6959Z" fill="#EF927F"/>
<path d="M140.484 75.5728C141.96 75.5728 143.157 74.3765 143.157 72.9007C143.157 71.4249 141.96 70.2285 140.484 70.2285C139.009 70.2285 137.812 71.4249 137.812 72.9007C137.812 74.3765 139.009 75.5728 140.484 75.5728Z" fill="#FCF4E6"/>
<path d="M140.685 73.2236L140.682 73.2265C140.217 73.6047 140.147 74.2883 140.525 74.7532L143.656 78.6018C144.034 79.0667 144.718 79.137 145.183 78.7588L145.186 78.7559C145.651 78.3776 145.721 77.6941 145.343 77.2291L142.212 73.3806C141.834 72.9156 141.15 72.8453 140.685 73.2236Z" fill="#FCF4E6"/>
<path d="M144.032 77.6431L141.889 75.012L141.707 74.7885C141.513 74.8387 141.314 74.8633 141.114 74.8615H140.895C140.283 74.8068 139.714 74.5251 139.3 74.0719C138.885 73.6187 138.656 73.0268 138.656 72.4128C138.648 71.8958 138.808 71.3903 139.112 70.9718C138.818 71.1998 138.58 71.4923 138.417 71.8268C138.255 72.1612 138.171 72.5287 138.173 72.9007C138.173 73.5525 138.432 74.1777 138.892 74.6386C139.353 75.0996 139.979 75.3585 140.63 75.3585C140.829 75.3599 141.027 75.3354 141.219 75.2856L143.549 78.1401C143.631 78.2424 143.733 78.3274 143.848 78.3902C143.963 78.4529 144.09 78.4922 144.221 78.5058C144.351 78.5193 144.483 78.5069 144.609 78.4692C144.735 78.4315 144.852 78.3692 144.953 78.286C145.077 78.1864 145.174 78.058 145.236 77.9121C145.034 78.0094 144.806 78.0357 144.587 77.9869C144.369 77.9381 144.173 77.8169 144.032 77.6431Z" fill="white"/>
<path d="M169.764 78.888C169.763 79.4061 169.66 79.9189 169.461 80.397C169.261 80.8752 168.969 81.3092 168.601 81.6742C168.512 81.7642 168.417 81.8494 168.319 81.9295C167.615 82.5212 166.725 82.8443 165.806 82.8415H165.647C164.811 82.8429 163.998 82.5759 163.326 82.08C162.869 81.7446 162.489 81.3149 162.213 80.82C161.937 80.3251 161.771 79.7767 161.725 79.2118C161.725 79.1069 161.725 78.9929 161.725 78.8835C161.727 78.6815 161.809 78.4885 161.952 78.346C162.096 78.2036 162.289 78.1231 162.491 78.1219H169.016C169.217 78.1255 169.408 78.208 169.548 78.3514C169.688 78.4948 169.765 78.6876 169.764 78.888Z" fill="#962F4A"/>
<path d="M165.729 82.2351C165.73 82.4387 165.71 82.642 165.669 82.8416H165.647C164.654 82.8386 163.699 82.4614 162.972 81.7852C162.245 81.109 161.8 80.1836 161.725 79.1936C162.01 79.1128 162.304 79.0714 162.6 79.0704C163.014 79.0716 163.423 79.1546 163.805 79.3145C164.186 79.4744 164.532 79.7081 164.823 80.0022C165.113 80.2963 165.343 80.645 165.499 81.0282C165.654 81.4114 165.732 81.8216 165.729 82.2351Z" fill="#E1617F"/>
<path d="M168.857 78.1402C168.825 78.9154 167.63 79.5082 166.162 79.5082C164.694 79.5082 163.503 78.8835 163.471 78.1083L168.857 78.1402Z" fill="white"/>
</svg>
