<svg width="154" height="57" viewBox="0 0 154 57" fill="none" xmlns="http://www.w3.org/2000/svg">
<g clip-path="url(#clip0_4_285)">
<path d="M79.5072 18.8798L86.8339 18.4078C87.0011 19.6016 87.3075 20.4901 87.809 21.1287C88.6169 22.1282 89.7312 22.6279 91.2077 22.6279C92.2941 22.6279 93.1577 22.3781 93.7428 21.8505C94.2999 21.4341 94.6342 20.7677 94.6342 20.0736C94.6342 19.4073 94.3278 18.7687 93.7985 18.3522C93.2413 17.8525 91.932 17.3527 89.8705 16.9085C86.4996 16.1589 84.076 15.1594 82.6552 13.8822C81.2344 12.6883 80.4266 10.9392 80.4823 9.07899C80.4823 7.80183 80.8723 6.52468 81.5966 5.46964C82.4323 4.27577 83.5745 3.33179 84.9396 2.80427C86.4161 2.16569 88.4776 1.83252 91.0684 1.83252C94.2442 1.83252 96.6679 2.41557 98.3394 3.60943C100.011 4.77553 101.014 6.6635 101.32 9.24557L94.0771 9.66204C93.8821 8.55147 93.492 7.7463 92.8513 7.21878C92.2106 6.69126 91.3748 6.44138 90.2884 6.44138C89.3969 6.44138 88.7283 6.63573 88.2826 6.99667C87.8647 7.32984 87.5861 7.8296 87.614 8.38488C87.614 8.80135 87.8368 9.19004 88.1711 9.43992C88.5333 9.77309 89.3969 10.0785 90.7619 10.3561C94.1328 11.078 96.5286 11.7999 98.0051 12.5495C99.4815 13.2992 100.54 14.2154 101.181 15.2982C101.849 16.4087 102.184 17.6859 102.156 18.9908C102.156 20.5456 101.71 22.1004 100.819 23.4053C99.8994 24.7658 98.618 25.8208 97.1136 26.4594C95.5257 27.1535 93.5199 27.5144 91.1241 27.5144C86.8897 27.5144 83.9645 26.7093 82.3209 25.0712C80.6773 23.4331 79.7022 21.3785 79.5072 18.8798ZM1.75507 27.098V2.27675H14.5977C16.9656 2.27675 18.8043 2.4711 20.0579 2.88756C21.2836 3.27626 22.3701 4.08142 23.0944 5.16423C23.9023 6.35809 24.2923 7.7463 24.2645 9.19004C24.348 11.6333 23.0944 13.9655 20.9493 15.1871C20.1136 15.6591 19.1943 15.9923 18.2471 16.1589C18.9436 16.3532 19.64 16.6864 20.2529 17.0751C20.7265 17.4638 21.1165 17.908 21.4787 18.38C21.8965 18.852 22.2587 19.3795 22.5651 19.9348L26.2981 27.1257H17.5507L13.4276 19.4906C12.8983 18.5188 12.4526 17.8803 12.0347 17.5748C11.4776 17.1861 10.809 16.9918 10.1404 16.9918H9.47178V27.0702H1.75507V27.098ZM9.47178 12.3274H12.7312C13.4276 12.2719 14.0962 12.1608 14.7648 11.9942C15.2663 11.9109 15.712 11.6333 16.0185 11.2168C16.7706 10.2173 16.6592 8.80135 15.7399 7.94065C15.2384 7.52419 14.2634 7.30208 12.8705 7.30208H9.47178V12.3274ZM0 48.3654L7.3267 47.8934C7.49385 49.0873 7.80029 49.9757 8.30174 50.6143C9.08177 51.6138 10.224 52.1413 11.7004 52.1413C12.7869 52.1413 13.6505 51.8915 14.2355 51.3639C14.7927 50.9197 15.127 50.2811 15.127 49.587C15.127 48.9207 14.8205 48.2821 14.2912 47.8656C13.7341 47.3659 12.4247 46.8661 10.3354 46.4219C6.96454 45.6723 4.54088 44.6727 3.12012 43.3956C1.69935 42.2017 0.891462 40.4526 0.947178 38.5924C0.947178 37.3152 1.33719 36.0381 2.06151 34.983C2.89725 33.7892 4.03944 32.8452 5.40449 32.3177C6.88097 31.6791 8.94248 31.3459 11.5333 31.3459C14.7091 31.3459 17.1328 31.929 18.8043 33.1228C20.4758 34.3167 21.4508 36.1769 21.7572 38.759L14.5141 39.1754C14.3191 38.0649 13.9291 37.2597 13.2884 36.7322C12.6755 36.2047 11.8119 35.9548 10.7254 35.9825C9.83394 35.9825 9.16534 36.1769 8.71961 36.5656C8.27388 36.8988 8.02316 37.3985 8.05101 37.9538C8.05101 38.3703 8.27388 38.759 8.60818 39.0088C8.97033 39.342 9.83394 39.6474 11.199 39.9251C14.5698 40.6469 16.9656 41.3688 18.4421 42.1184C19.9186 42.8681 20.9772 43.7843 21.6179 44.8671C22.2865 45.9777 22.6208 47.2548 22.6208 48.532C22.6208 50.0868 22.1473 51.6138 21.2836 52.9187C20.3643 54.2792 19.0829 55.3342 17.5785 55.9728C15.9906 56.6669 13.9848 57.0278 11.589 57.0278C7.35456 57.0278 4.42945 56.2227 2.78582 54.5846C1.14219 52.9187 0.222865 50.8642 0 48.3654H0Z" fill="black"/>
<path d="M37.0514 46.4217L43.7931 48.4485C43.4309 50.1421 42.6787 51.7524 41.648 53.1684C40.7008 54.4178 39.4472 55.3895 38.0264 56.0281C36.5778 56.6667 34.7392 56.9999 32.5105 56.9999C29.8083 56.9999 27.5796 56.6112 25.8803 55.8338C24.1531 55.0564 22.6766 53.6682 21.423 51.6969C20.1693 49.7256 19.5565 47.1991 19.5565 44.1173C19.5565 40.0081 20.6429 36.843 22.8437 34.6496C25.0445 32.4563 28.1368 31.3457 32.1484 31.3457C35.2963 31.3457 37.7478 31.9843 39.5586 33.2337C41.3416 34.5108 42.6787 36.4543 43.5702 39.0642L36.7728 40.5634C36.6057 39.9804 36.3549 39.3973 36.0206 38.8976C35.6028 38.3145 35.0735 37.8703 34.4327 37.5371C33.792 37.204 33.0677 37.0651 32.3434 37.0651C30.5883 37.0651 29.2511 37.7592 28.3318 39.1752C27.6353 40.2025 27.2732 41.8406 27.2732 44.0617C27.2732 46.8104 27.691 48.6984 28.5268 49.7256C29.3625 50.7529 30.5326 51.2527 32.0648 51.2527C33.5413 51.2527 34.6556 50.8362 35.4078 50.031C36.1599 49.1703 36.7171 47.9765 37.0514 46.4217ZM52.7913 31.7622H60.4801V40.4524H68.8933V31.7622H76.6379V56.5834H68.8933V46.5327H60.4801V56.5834H52.7913V31.7622Z" fill="black"/>
<path d="M75.5792 44.1727C75.5792 40.1191 76.7214 36.954 78.9779 34.7051C81.2344 32.4562 84.4103 31.3179 88.4497 31.3179C92.6006 31.3179 95.7764 32.4284 98.0329 34.6496C100.289 36.8707 101.404 39.9803 101.404 43.9784C101.404 46.8936 100.902 49.2536 99.9273 51.1138C98.9801 52.9462 97.5036 54.4455 95.6928 55.445C93.8263 56.4723 91.5141 56.9998 88.7561 56.9998C85.9425 56.9998 83.6302 56.5556 81.7916 55.6671C79.8972 54.7231 78.3372 53.2516 77.3064 51.4469C76.1642 49.5035 75.5792 47.088 75.5792 44.1727ZM83.2681 44.2005C83.2681 46.6993 83.7417 48.5039 84.661 49.6145C85.5803 50.6973 86.8618 51.2526 88.4776 51.2526C90.1212 51.2526 91.4027 50.7251 92.322 49.6423C93.2413 48.5595 93.687 46.6437 93.687 43.8673C93.687 41.5351 93.2135 39.8137 92.2663 38.7587C91.3191 37.6759 90.0376 37.1484 88.4218 37.1484C87.0011 37.0928 85.636 37.7036 84.6889 38.7865C83.7417 39.8693 83.2681 41.6739 83.2681 44.2005ZM109.288 44.1727C109.288 40.1191 110.43 36.954 112.686 34.7051C114.943 32.4562 118.119 31.3179 122.158 31.3179C126.309 31.3179 129.513 32.4284 131.741 34.6496C133.97 36.8707 135.112 39.9803 135.112 43.9784C135.112 46.8936 134.611 49.2536 133.636 51.1138C132.688 52.9462 131.212 54.4455 129.401 55.445C127.535 56.4723 125.222 56.9998 122.465 56.9998C119.651 56.9998 117.339 56.5556 115.5 55.6671C113.606 54.7231 112.046 53.2516 111.015 51.4469C109.873 49.5035 109.288 47.088 109.288 44.1727ZM116.976 44.2005C116.976 46.6993 117.45 48.5039 118.369 49.6145C119.289 50.6973 120.57 51.2526 122.186 51.2526C123.83 51.2526 125.111 50.7251 126.03 49.6423C126.95 48.5595 127.395 46.6437 127.395 43.8673C127.395 41.5351 126.922 39.8137 125.975 38.7587C125.027 37.6759 123.746 37.1484 122.13 37.1484C120.709 37.0928 119.317 37.7036 118.397 38.7865C117.45 39.8693 116.976 41.6739 116.976 44.2005Z" fill="black"/>
<path d="M134.304 31.7622H141.993V50.4753H154V56.5834H134.276V31.7622H134.304Z" fill="black"/>
<path d="M125.829 30.3298C133.571 24.516 135.958 14.6606 131.161 8.31723C126.365 1.97384 116.201 1.54455 108.46 7.35838C100.719 13.1722 98.3319 23.0276 103.128 29.371C107.925 35.7144 118.088 36.1437 125.829 30.3298Z" fill="white"/>
<path d="M125.829 30.3298C133.571 24.516 135.958 14.6606 131.161 8.31723C126.365 1.97384 116.201 1.54455 108.46 7.35838C100.719 13.1722 98.3319 23.0276 103.128 29.371C107.925 35.7144 118.088 36.1437 125.829 30.3298Z" fill="white" stroke="black" stroke-width="4" stroke-miterlimit="10"/>
<path d="M125.829 30.3298C133.571 24.516 135.958 14.6606 131.161 8.31723C126.365 1.97384 116.201 1.54455 108.46 7.35838C100.719 13.1722 98.3319 23.0276 103.128 29.371C107.925 35.7144 118.088 36.1437 125.829 30.3298Z" fill="white" stroke="black" stroke-width="4" stroke-miterlimit="10"/>
<path d="M109.316 17.0196L112.101 15.0761L115.528 19.9349C116.113 20.7123 116.559 21.5452 116.893 22.4614C117.088 23.1555 117.032 23.9052 116.754 24.5715C116.391 25.4044 115.806 26.0985 115.026 26.5983C114.107 27.2369 113.327 27.5978 112.658 27.7089C112.018 27.8199 111.349 27.7089 110.736 27.4312C110.068 27.098 109.483 26.6261 109.037 26.0152L111.433 23.7941C111.628 24.0995 111.878 24.3771 112.157 24.5993C112.352 24.7381 112.575 24.8214 112.826 24.8214C113.021 24.8214 113.216 24.7381 113.355 24.627C113.634 24.4604 113.829 24.1273 113.801 23.7941C113.717 23.3221 113.522 22.8501 113.216 22.4892L109.316 17.0196ZM117.673 20.1015L120.208 18.1024C120.487 18.4356 120.849 18.6855 121.239 18.8243C121.796 18.9909 122.381 18.8798 122.855 18.5189C123.189 18.2968 123.467 17.9914 123.579 17.6027C123.746 17.1029 123.467 16.5476 122.966 16.381C122.882 16.3533 122.799 16.3255 122.715 16.3255C122.381 16.2978 121.796 16.4366 120.932 16.7975C119.512 17.3806 118.397 17.6027 117.562 17.5194C116.754 17.4361 116.001 17.0196 115.556 16.3255C115.221 15.8535 115.054 15.2982 115.026 14.743C115.026 14.1044 115.194 13.4658 115.556 12.9383C116.085 12.1886 116.726 11.5501 117.506 11.0503C118.676 10.2451 119.707 9.85645 120.598 9.85645C121.49 9.85645 122.325 10.2729 123.105 11.1336L120.598 13.1049C120.097 12.4663 119.149 12.3275 118.509 12.8272L118.425 12.9105C118.147 13.0771 117.952 13.327 117.84 13.6324C117.757 13.8545 117.812 14.1044 117.952 14.2987C118.063 14.4375 118.23 14.5486 118.425 14.5486C118.648 14.5764 119.038 14.4653 119.595 14.2154C120.988 13.6324 122.047 13.2992 122.771 13.1882C123.384 13.0771 124.025 13.1326 124.61 13.3825C125.139 13.6046 125.585 13.9933 125.891 14.4653C126.281 15.0206 126.504 15.6869 126.532 16.381C126.56 17.1029 126.365 17.797 125.975 18.4078C125.473 19.1575 124.833 19.796 124.08 20.2958C122.548 21.3508 121.295 21.7951 120.292 21.6285C119.205 21.4619 118.314 20.9066 117.673 20.1015Z" fill="black"/>
</g>
<defs>
<clipPath id="clip0_4_285">
<rect width="154" height="57" fill="white"/>
</clipPath>
</defs>
</svg>
